<svg xmlns="http://www.w3.org/2000/svg" xmlns:xlink="http://www.w3.org/1999/xlink" width="27" height="27" viewBox="0 0 27 27"><defs><path id="srwpa" d="M414.9 2333.89c2.81-.51 5.52.44 7.89-.92a6.56 6.56 0 0 0 2.43-8.96 6.56 6.56 0 0 0-8.97-2.36 6.57 6.57 0 0 0-2.87 8.04"/><path id="srwpb" d="M414.54 2333.65l3.05-1.89c.1-.06.23-.03.29.06a.2.2 0 0 1 .03.11v3.78c0 .11-.1.2-.2.2a.21.21 0 0 1-.12-.03l-3.05-1.89a.2.2 0 0 1 0-.34z"/><path id="srwpc" d="M407 2327.5a12.5 12.5 0 1 1 25 0 12.5 12.5 0 0 1-25 0z"/></defs><g><g transform="translate(-406 -2314)"><g><use fill="#fff" fill-opacity="0" stroke="#e24747" stroke-miterlimit="50" xlink:href="#srwpa"/></g><g><use fill="#f7f7f7" xlink:href="#srwpb"/><use fill="#fff" fill-opacity="0" stroke="#e24747" stroke-miterlimit="50" xlink:href="#srwpb"/></g><g><use fill="#fff" fill-opacity="0" stroke="#e24747" stroke-miterlimit="50" xlink:href="#srwpc"/></g></g></g></svg>