<svg xmlns="http://www.w3.org/2000/svg" xmlns:xlink="http://www.w3.org/1999/xlink" width="63" height="63" viewBox="0 0 63 63"><defs><path id="ywbsa" d="M469.5 506.88c1.12 0 2.33 1.2 2.33 2.33 0 1.12-1.21 2.33-2.33 2.33s-2.33-1.21-2.33-2.33 1.2-2.33 2.33-2.33"/><path id="ywbsb" d="M469.5 537.14c1.12 0 2.33 1.2 2.33 2.33 0 1.12-1.21 2.33-2.33 2.33s-2.33-1.21-2.33-2.33 1.2-2.33 2.33-2.33"/><path id="ywbsc" d="M469.5 555.76a16.33 16.33 0 0 1-16.29-16.3 16.3 16.3 0 0 1 16.3-16.29c7.21 0 13.96-6.75 13.96-13.96 0-7.21-6.75-13.97-13.97-13.97"/><path id="ywbsd" d="M499.76 525.5a30.26 30.26 0 1 1-60.52 0 30.26 30.26 0 0 1 60.52 0z"/></defs><g><g transform="translate(-438 -494)"><g><use fill="#444752" xlink:href="#ywbsa"/></g><g><use fill="#444752" xlink:href="#ywbsb"/></g><g><use fill="#fff" fill-opacity="0" stroke="#444752" stroke-miterlimit="50" stroke-width="2" xlink:href="#ywbsc"/></g><g><use fill="#fff" fill-opacity="0" stroke="#444752" stroke-miterlimit="50" stroke-width="2" xlink:href="#ywbsd"/></g></g></g></svg>