<svg xmlns="http://www.w3.org/2000/svg" xmlns:xlink="http://www.w3.org/1999/xlink" width="67" height="67" viewBox="0 0 67 67"><defs><path id="2ntpa" d="M249.41 195.9l9.92 16.5c.5.84 1.8.48 1.8-.5v-12.12c0-2.55-.69-5.06-2-7.25l-9.72-16.16z"/><path id="2ntpb" d="M228.73 195.9l-9.92 16.5c-.5.84-1.81.48-1.81-.5v-12.12c0-2.55.7-5.06 2.01-7.25l9.72-16.16z"/><path id="2ntpc" d="M239 216.45v18.27"/><path id="2ntpd" d="M245 211.11v16.75"/><path id="2ntpe" d="M232 211.11v16.75"/><path id="2ntpf" d="M245.54 206.64a60.2 60.2 0 0 0 5.8-26.06c0-13.3-4.16-25.46-11.04-34.78a1.51 1.51 0 0 0-2.43 0c-6.88 9.32-11.04 21.48-11.04 34.78a60.2 60.2 0 0 0 5.8 26.06z"/><path id="2ntpg" d="M244.56 167.01a5.45 5.45 0 1 1-10.9 0 5.45 5.45 0 0 1 10.9 0z"/><path id="2ntph" d="M234.74 151.98l8.84-.06"/></defs><g><g transform="rotate(45 324.8 -137.16)"><g><use fill="#fff" fill-opacity="0" stroke="#e24747" stroke-miterlimit="50" stroke-width="2" xlink:href="#2ntpa"/></g><g><use fill="#fff" fill-opacity="0" stroke="#e24747" stroke-miterlimit="50" stroke-width="2" xlink:href="#2ntpb"/></g><g><use fill="#fff" fill-opacity="0" stroke="#e24747" stroke-linecap="round" stroke-miterlimit="50" stroke-width="2" xlink:href="#2ntpc"/></g><g><use fill="#fff" fill-opacity="0" stroke="#e24747" stroke-linecap="round" stroke-miterlimit="50" stroke-width="2" xlink:href="#2ntpd"/></g><g><use fill="#fff" fill-opacity="0" stroke="#e24747" stroke-linecap="round" stroke-miterlimit="50" stroke-width="2" xlink:href="#2ntpe"/></g><g><use fill="#fff" xlink:href="#2ntpf"/><use fill="#fff" fill-opacity="0" stroke="#e24747" stroke-miterlimit="50" stroke-width="2" xlink:href="#2ntpf"/></g><g><use fill="#fff" fill-opacity="0" stroke="#e24747" stroke-miterlimit="50" stroke-width="2" xlink:href="#2ntpg"/></g><g><use fill="#fff" fill-opacity="0" stroke="#e24747" stroke-linecap="square" stroke-miterlimit="50" stroke-width="2" xlink:href="#2ntph"/></g></g></g></svg>