<svg xmlns="http://www.w3.org/2000/svg" xmlns:xlink="http://www.w3.org/1999/xlink" width="53" height="30" viewBox="0 0 53 30"><defs><path id="yo1ra" d="M294.58 1022.13c0 3.1.86 3.42 4.3 3.62v1.04H285.1v-1.04c2.87-.2 3.74-.49 3.74-3.62v-20.14c0-3.1-.86-3.52-3.64-3.62v-1.17h24.22l.2 6.55h-1.16c-1.01-3.32-2.2-4.3-7.85-4.3h-4.4c-1.34 0-1.63.29-1.63 1.47v9.38h2.2c4.5 0 5.46-.79 6.07-3.91H304v10.46h-1.19c-.57-3.52-2.3-4.4-6.08-4.4h-2.15z"/><path id="yo1rb" d="M336.67 997.2H311.2l-.58 6.55h1.44c.95-3.1 2.3-4.3 5.36-4.3h3.62v22.68c0 3.1-.86 3.42-4.12 3.62v1.04h13.99v-1.04c-3.25-.2-4.12-.49-4.12-3.62v-22.68h3.64c3.04 0 4.41 1.16 5.36 4.3h1.46z"/></defs><g><g transform="translate(-285 -997)"><g><use fill="#f9f9f9" xlink:href="#yo1ra"/></g><g><use fill="#f9f9f9" xlink:href="#yo1rb"/></g></g></g></svg>