<svg xmlns="http://www.w3.org/2000/svg" xmlns:xlink="http://www.w3.org/1999/xlink" width="23" height="22" viewBox="0 0 23 22"><defs><path id="fjtga" d="M267.8 225.87c-.7 0-1.25.52-1.25 1.17v18.88c0 .65.56 1.18 1.24 1.18h10.78v-8.22h-2.93v-3.2h2.93v-2.37c0-2.74 1.77-4.23 4.37-4.23 1.24 0 2.3.08 2.62.12v2.87h-1.8c-1.41 0-1.69.63-1.69 1.56v2.04h3.37l-.44 3.2h-2.93v8.23h5.74c.68 0 1.24-.53 1.24-1.18v-18.88c0-.65-.56-1.17-1.24-1.17z"/></defs><g><g transform="translate(-266 -225)"><use fill="#3c5a99" xlink:href="#fjtga"/></g></g></svg>