<svg xmlns="http://www.w3.org/2000/svg" xmlns:xlink="http://www.w3.org/1999/xlink" width="52" height="52" viewBox="0 0 52 52"><defs><path id="p6aia" d="M465.42 851.74a28.18 28.18 0 0 0-1.2 4.84l-.12.79a5.18 5.18 0 0 0 1.7 4.45 6.5 6.5 0 0 0 8.53.13 5.1 5.1 0 0 0 .08-7.72 6.27 6.27 0 0 0-3.14-1.56c.12-.8.28-1.64.48-2.49a38.9 38.9 0 0 1 1.69-5.18c.56-1.4 1-2.36 1-2.36l-3.42-1.57s-.61.87-1.49 2.26a44.3 44.3 0 0 0-2.9 5.34 35.09 35.09 0 0 0-1.2 3.07"/><path id="p6aib" d="M479.21 851.74a28.18 28.18 0 0 0-1.2 4.84l-.12.79a5.18 5.18 0 0 0 1.7 4.45 6.5 6.5 0 0 0 8.53.13 5.1 5.1 0 0 0 .08-7.72 6.27 6.27 0 0 0-3.14-1.56c.12-.8.28-1.64.48-2.49a38.9 38.9 0 0 1 1.69-5.18c.56-1.4 1-2.36 1-2.36l-3.42-1.57s-.61.87-1.49 2.26a44.3 44.3 0 0 0-2.9 5.34 35.09 35.09 0 0 0-1.2 3.07"/><path id="p6aic" d="M452 854a25 25 0 1 1 50 0 25 25 0 0 1-50 0z"/></defs><g><g transform="translate(-451 -828)"><use fill="#fff" fill-opacity="0" stroke="#444752" stroke-miterlimit="50" stroke-width="2" xlink:href="#p6aia"/></g><g transform="translate(-451 -828)"><use fill="#fff" fill-opacity="0" stroke="#444752" stroke-miterlimit="50" stroke-width="2" xlink:href="#p6aib"/></g><g transform="translate(-451 -828)"><use fill="#fff" fill-opacity="0" stroke="#444752" stroke-miterlimit="50" stroke-width="2" xlink:href="#p6aic"/></g></g></svg>