<svg xmlns="http://www.w3.org/2000/svg" xmlns:xlink="http://www.w3.org/1999/xlink" width="14" height="16" viewBox="0 0 14 16"><defs><path id="hgj0a" d="M699.17 385.4h-8.34c-.98 0-1.79-.8-1.79-1.78v-5.59c0-.98.8-1.78 1.8-1.78h8.33c.99 0 1.8.8 1.8 1.78v5.59c0 .98-.81 1.78-1.8 1.78z"/><path id="hgj0b" d="M698.07 376.04h-6.1v-1.97a3.05 3.05 0 0 1 6.1 0z"/><path id="hgj0c" d="M696.5 379.25a1.5 1.5 0 1 0-2.4 1.2v1.65c0 .5.4.9.9.9s.9-.4.9-.9v-1.65c.36-.27.6-.7.6-1.2z"/></defs><g><g transform="translate(-688 -370)"><g><use fill="#ffa700" xlink:href="#hgj0a"/><use fill="#fff" fill-opacity="0" stroke="#ffa700" stroke-miterlimit="50" stroke-width=".93" xlink:href="#hgj0a"/></g><g><use fill="#fff" fill-opacity="0" stroke="#ffa700" stroke-miterlimit="50" stroke-width=".93" xlink:href="#hgj0b"/></g><g><use fill="#fff" xlink:href="#hgj0c"/><use fill="#fff" fill-opacity="0" stroke="#fff" stroke-miterlimit="50" stroke-width=".83" xlink:href="#hgj0c"/></g></g></g></svg>