<svg xmlns="http://www.w3.org/2000/svg" xmlns:xlink="http://www.w3.org/1999/xlink" width="160" height="31" viewBox="0 0 160 31"><defs><path id="bur2a" d="M188.23 960.63l1.58-.72v-16l-1.66-.76v-1.33l6.13-.98h.42v8h.17a7.68 7.68 0 0 1 5.13-1.94c2.51 0 3.76 1.24 3.76 3.93v9.08l1.6.73v1.35h-8.13v-1.35l1.6-.73v-7.97c0-1.5-.66-2.05-2-2.05-.7-.01-1.39.11-2.04.36v9.66l1.6.72v1.35h-8.14v-1.35z"/><path id="bur2b" d="M210.1 955.04h8.86c0-6.17-2.14-8.14-6.6-8.14-4.43 0-7.33 2.82-7.33 7.66 0 5 2.64 7.77 7.75 7.77 2.75 0 4.96-1.21 5.65-2.14v-1.42c-1.03.3-2.1.5-4 .5-2.68 0-4.06-1.37-4.32-4.23m2.17-6.52c1.23 0 1.9.21 1.9 4.53l-4.13.24c.06-3.91.66-4.77 2.23-4.77"/><path id="bur2c" d="M179.46 957.9v-8.14h-2.28v-2.23l2.28-.3v-2.78l4.92-.68v3.46h3.27v2.54h-3.27v7.72c0 1.45.41 2.19 1.86 2.19a9.7 9.7 0 0 0 1.57-.13v1.89c-.8.46-2.48.85-4.04.85-2.93 0-4.3-1.28-4.3-4.4z"/><path id="bur2d" d="M302.92 939.19c0-1.58-1.3-2.86-2.9-2.86-1.6 0-2.9 1.29-2.9 2.87s1.3 2.86 2.9 2.87c1.6 0 2.9-1.28 2.9-2.86z"/><path id="bur2e" d="M237.57 948.32l-1.65-.76v-1.32l6.2-.96h.42v10.34c0 1.68.83 1.98 2.08 1.98.61.02 1.22-.1 1.78-.35v-8.93l-1.67-.76v-1.34l6.18-.97h.4v12.58l1.65.85v1.27l-6.01.65h-.43v-1.96h-.17a5.74 5.74 0 0 1-4.53 2.01c-2.99 0-4.26-2.1-4.26-4.65v-7.68z"/><path id="bur2f" d="M266.42 958.28v-8.55c0-3.3-2.38-4.46-6.36-4.46-2.6 0-4.29.7-5.68 1.12v3.87h2.56l1.05-3 .03-.01c.3-.03.77-.07 1.01-.07 1.9 0 2.48.94 2.48 2.83v1.92l-2.86.49c-3.25.67-5.27 1.16-5.27 4.17 0 2.44 1.66 4.13 4.29 4.13 1.84 0 3.6-.8 4.26-2.1h.15c.22 1.59 1.61 2.08 3.15 2.08 1.2 0 2.3-.33 2.77-.59v-1.1zm-6.28-.19c-.96 0-1.86-.52-1.86-2.16 0-1.41.94-2.18 2.08-2.28l1.14-.11v3.99h.03c-.38.35-.87.55-1.39.56z"/><path id="bur2g" d="M268.32 946.24v1.34l1.67.76v9.97l-1.58.72v1.36h8.54v-1.34l-2.03-.73v-8.2c.84-.4 1.95-.54 3.28-.54.42 0 .84.05 1.25.14v-4.3a2.9 2.9 0 0 0-.73-.08c-1.63 0-2.97 1.04-3.84 3.01h-.14v-3.1h-.43l-5.99.97z"/><path id="bur2h" d="M231.08 957.13c3.28 0 4.9 1.34 4.9 4.22 0 3.5-2.52 5.71-8.33 5.71-4.68 0-7.55-1.45-7.55-3.4 0-1.9 1.88-2.45 3.56-2.8v-.15c-1.6-.34-2.36-1.47-2.36-2.61 0-1.57 1.64-2.79 2.5-3.38v-.16a4.6 4.6 0 0 1-2.48-4.19c0-3.2 2.65-5.07 6.49-5.07 1.19 0 2.5.36 3.44.7h.21l3.79-.74h.26v2.95l-.33-.02-2.45-.85v.11c.95.83 1.56 1.65 1.56 3.08 0 3.2-2.63 4.93-6.46 4.93a8 8 0 0 1-2.46-.3c-.36.26-.66.68-.66 1.08.04.54.5.96 1.05.94h5.32v-.05m-3.26-10.15c-1.08 0-1.75.42-1.75 3.41 0 3 .68 3.24 1.74 3.24s1.76-.3 1.76-3.24c0-2.94-.7-3.41-1.78-3.41h.03m-.06 18.27c3.1 0 3.94-.96 3.94-2.48 0-.77-.55-1.13-1.77-1.13h-5.23c-.39.46-.6 1.05-.57 1.65 0 1.02.93 1.96 3.63 1.96"/><path id="bur2i" d="M319.75 959l1.58-.71v-9.97l-1.65-.76v-1.32l6.14-.96h.41v1.96h.17a7.67 7.67 0 0 1 5.13-1.94c2.51 0 3.76 1.23 3.76 3.93v9.08l1.6.72v1.36h-8.14v-1.34l1.6-.71v-8.04c0-1.5-.66-2.05-2-2.05-.7-.01-1.4.11-2.04.36v9.66l1.57.72v1.36h-8.1v-1.36z"/><path id="bur2j" d="M317.77 958.28v-8.55c0-3.3-2.39-4.46-6.36-4.46-2.61 0-4.3.7-5.68 1.12v3.85h2.56l1.06-3h-.06c.3-.02.75-.06 1-.06 1.9 0 2.48.94 2.48 2.83v1.92l-2.84.49c-3.26.67-5.26 1.16-5.26 4.17 0 2.44 1.67 4.13 4.3 4.13 1.86 0 3.62-.8 4.28-2.1h.15c.23 1.59 1.62 2.08 3.17 2.08 1.2 0 2.29-.33 2.77-.59v-1.1zm-4.94-.76c-.37.35-.87.55-1.38.56-.95 0-1.86-.54-1.86-2.16 0-1.42.94-2.17 2.09-2.28l1.15-.11z"/><path id="bur2k" d="M296.02 946.22v1.34l1.65.76v9.97l-1.58.72v1.36h8.12v-1.34l-1.58-.72v-13.05h-.42l-6.19.98z"/><path id="bur2l" d="M294.08 957.84v-18.61h-.42l-6.17.98v1.34l1.65.74h.04v3.63a4.4 4.4 0 0 0-2.4-.62c-3.94 0-7.26 2.14-7.26 8.06 0 5.64 3.25 7.34 5.96 7.34 1.85 0 3.12-.81 3.74-1.6h.16v1.53h.4l5.87-.67v-1.27zm-4.94-.08v-.02c-.49.2-1 .3-1.53.28-1.96 0-2.9-1.58-2.9-5.21 0-4.15 1.2-5.52 2.74-5.52.9 0 1.3.24 1.69.53z"/></defs><g><g transform="translate(-177 -936)"><g><use fill="#f9f9f9" xlink:href="#bur2a"/></g><g><use fill="#f9f9f9" xlink:href="#bur2b"/></g><g><use fill="#f9f9f9" xlink:href="#bur2c"/></g><g><use fill="#f9f9f9" xlink:href="#bur2d"/></g><g><use fill="#f9f9f9" xlink:href="#bur2e"/></g><g><use fill="#f9f9f9" xlink:href="#bur2f"/></g><g><use fill="#f9f9f9" xlink:href="#bur2g"/></g><g><use fill="#f9f9f9" xlink:href="#bur2h"/></g><g><use fill="#f9f9f9" xlink:href="#bur2i"/></g><g><use fill="#f9f9f9" xlink:href="#bur2j"/></g><g><use fill="#f9f9f9" xlink:href="#bur2k"/></g><g><use fill="#f9f9f9" xlink:href="#bur2l"/></g></g></g></svg>