<svg xmlns="http://www.w3.org/2000/svg" xmlns:xlink="http://www.w3.org/1999/xlink" width="78" height="72" viewBox="0 0 78 72"><defs><path id="uymma" d="M91.17 375c0 13.65 11.27 24.72 25.17 24.72 13.9 0 25.17-11.07 25.17-24.71v-30.7H91.17v30.7"/><path id="uymmb" d="M130.48 362.67a3.7 3.7 0 0 1-3.74 3.67 3.7 3.7 0 0 1-3.74-3.67 3.7 3.7 0 0 1 3.74-3.67 3.7 3.7 0 0 1 3.74 3.67z"/><path id="uymmc" d="M109.48 362.67a3.7 3.7 0 0 1-3.74 3.67 3.7 3.7 0 0 1-3.74-3.67 3.7 3.7 0 0 1 3.74-3.67 3.7 3.7 0 0 1 3.74 3.67z"/><path id="uymmd" d="M129.45 390.32a15.26 15.26 0 0 0-13.2-7.5 15.27 15.27 0 0 0-13.11 7.36"/><path id="uymme" d="M116.17 389c0 13.65 11.27 24.72 25.17 24.72 13.9 0 25.17-11.07 25.17-24.71v-30.7h-50.34v30.7"/><path id="uymmf" d="M155.48 376.67a3.7 3.7 0 0 1-3.74 3.67 3.7 3.7 0 0 1-3.74-3.67 3.7 3.7 0 0 1 3.74-3.67 3.7 3.7 0 0 1 3.74 3.67z"/><path id="uymmg" d="M134.48 376.67a3.7 3.7 0 0 1-3.74 3.67 3.7 3.7 0 0 1-3.74-3.67 3.7 3.7 0 0 1 3.74-3.67 3.7 3.7 0 0 1 3.74 3.67z"/><path id="uymmh" d="M128.14 396.82a15.26 15.26 0 0 0 13.2 7.5c5.58 0 10.47-2.95 13.11-7.36"/></defs><g><g transform="translate(-90 -343)"><g><g><use fill="#f7f7f7" xlink:href="#uymma"/><use fill="#fff" fill-opacity="0" stroke="#444752" stroke-miterlimit="50" stroke-width="2" xlink:href="#uymma"/></g><g><use fill="#fff" fill-opacity="0" stroke="#444752" stroke-miterlimit="50" stroke-width="2" xlink:href="#uymmb"/></g><g><use fill="#fff" fill-opacity="0" stroke="#444752" stroke-miterlimit="50" stroke-width="2" xlink:href="#uymmc"/></g><g><use fill="#fff" fill-opacity="0" stroke="#444752" stroke-miterlimit="50" stroke-width="2" xlink:href="#uymmd"/></g></g><g><g><use fill="#f7f7f7" xlink:href="#uymme"/><use fill="#fff" fill-opacity="0" stroke="#444752" stroke-miterlimit="50" stroke-width="2" xlink:href="#uymme"/></g><g><use fill="#fff" fill-opacity="0" stroke="#444752" stroke-miterlimit="50" stroke-width="2" xlink:href="#uymmf"/></g><g><use fill="#fff" fill-opacity="0" stroke="#444752" stroke-miterlimit="50" stroke-width="2" xlink:href="#uymmg"/></g><g><use fill="#fff" fill-opacity="0" stroke="#444752" stroke-miterlimit="50" stroke-width="2" xlink:href="#uymmh"/></g></g></g></g></svg>