<svg xmlns="http://www.w3.org/2000/svg" xmlns:xlink="http://www.w3.org/1999/xlink" width="69" height="25" viewBox="0 0 69 25"><defs><path id="7046a" d="M228.83 1010.44a11.3 11.3 0 0 0-14.4-7.44 11.8 11.8 0 0 0-7.74 12.09c.2 3.15 1.62 6.1 3.96 8.18a11.11 11.11 0 0 0 12.87 1.35 12.09 12.09 0 0 0 5.31-14.18m-3.8 6.26a7.64 7.64 0 0 1-4.13 5.19 6.7 6.7 0 0 1-8.64-2.56 10.06 10.06 0 0 1-1.59-6.14 7.84 7.84 0 0 1 4.05-6.4 6.69 6.69 0 0 1 8.04 1.03 8.63 8.63 0 0 1 2.27 8.88"/><path id="7046b" d="M236.22 1002.14l-.2 5.29.64-.82c.83-.98 1.59-1.98 2.5-2.93a2.7 2.7 0 0 1 2.21-1.03 2 2 0 0 1 1.59.87 6.35 6.35 0 0 1 1.03 3.93v16.88c-.04.55.3 1.05.81 1.22.27.13.75.12.62.6s-.5.2-.76.2h-6a1.58 1.58 0 0 1-.46-.17c.11-.14.2-.39.35-.43.8-.24 1.3-1.02 1.19-1.85v-13.56c0-.78-.06-1.56-.18-2.33 0-.45-.25-.87-.65-1.07-.4-.2-.88-.16-1.23.12-.53.33-1.02.72-1.48 1.14a.7.7 0 0 0-.16.48v15.99c0 .29.16.56.42.69.2.14.44.24.63.4.12.13.21.28.29.44-.13.07-.27.12-.42.14h-6.61c-.11 0-.22-.11-.35-.18-.13-.06.13-.33.24-.37 1.1-.3 1.25-1.1 1.25-2.13v-18.08a.7.7 0 0 0-.59-.8c-.3-.08-.6-.17-.89-.3a.4.4 0 0 1-.17-.3s.14-.17.24-.17c2.04-.08 4.02-.72 5.72-1.85h.16z"/><path id="7046c" d="M189.62 1022.85c-.72-.2-.81-.74-.81-1.37v-12.86a7.68 7.68 0 0 0-.88-3.9 5.2 5.2 0 0 0-5.67-2.3c-1.03.14-1.98.61-2.72 1.34-1.74 1.76-1.58 4-1.58 6.28 1.12 0 2.22-.02 3.34 0 .37 0 .48-.1.48-.49-.04-.71-.04-1.43 0-2.15 0-.56.37-1.06.9-1.2.5-.18 1.05-.09 1.47.23.42.33.66.84.63 1.37v3.22c0 .3-.13.41-.4.54-1.22.57-2.46 1.1-3.62 1.77a6.53 6.53 0 0 0-3.01 3.36 10.02 10.02 0 0 0-.16 5.98c.31 1.7 1.67 3 3.36 3.22a4.32 4.32 0 0 0 4.45-1.74l.3-.45c.21.86.77 1.6 1.54 2.02.76.43 1.67.52 2.5.25v-2.83c0-.11-.12-.29-.12-.29zm-4.84-2.59c0 .6-.2 1.17-.59 1.61-.41.55-1.1.8-1.76.65a1.38 1.38 0 0 1-1.06-1.32 15.28 15.28 0 0 1 0-3.22 4.02 4.02 0 0 1 2.76-2.98c.18-.08.37-.14.62-.22h0l.03.48z"/><path id="7046d" d="M205.07 1012.85c-.14-1.18-.22-2.36-.41-3.52a10.13 10.13 0 0 0-2.43-5.3 4.64 4.64 0 0 0-3.17-1.62 5.53 5.53 0 0 0-4.65 2.01 12.32 12.32 0 0 0-3.03 7.06c-.45 3-.24 6.08.6 9a8.91 8.91 0 0 0 2.69 4.36 5.6 5.6 0 0 0 7.33-.25 12.75 12.75 0 0 0 2.8-4.75c.24-.62.23-.64-.35-1-.52.83-1 1.65-1.53 2.29-.47.67-1.21 1.1-2.02 1.17a3.16 3.16 0 0 1-2.98-1.6 11.2 11.2 0 0 1-1.75-4.96c-.1-.77-.16-1.54-.23-2.38h8.66c.47.02.47-.13.47-.51m-4.84-1h-4.1c-.2 0-.35 0-.35-.28-.08-2.05.27-4.1 1.01-6.02.16-.39.38-.74.65-1.06a1.29 1.29 0 0 1 2 0c.61.78.96 1.74 1 2.73.13 1.4.21 2.79.21 4.2.02.31-.1.43-.42.43"/></defs><g><g transform="translate(-177 -1002)"><g><use fill="#f9f9f9" xlink:href="#7046a"/></g><g><use fill="#f9f9f9" xlink:href="#7046b"/></g><g><use fill="#f9f9f9" xlink:href="#7046c"/></g><g><use fill="#f9f9f9" xlink:href="#7046d"/></g></g></g></svg>