<svg xmlns="http://www.w3.org/2000/svg" xmlns:xlink="http://www.w3.org/1999/xlink" width="68" height="67" viewBox="0 0 68 67"><defs><path id="ot42a" d="M126.64 503.06a17.76 17.76 0 0 0 25.12 25.12l4.54-4.54a17.76 17.76 0 0 0-25.12-25.12z"/><path id="ot42b" d="M156.3 498.52l-4.54 4.53"/><path id="ot42c" d="M160.45 504.56l-4.53 4.53"/><path id="ot42d" d="M161.77 510.61l-4.53 4.53"/><path id="ot42e" d="M143.63 493.42l-4.53 4.53"/><path id="ot42f" d="M150.62 494.93l-4.53 4.53"/><path id="ot42g" d="M151.76 503.05a17.76 17.76 0 1 1-25.12 25.12 17.76 17.76 0 0 1 25.12-25.12z"/><path id="ot42h" d="M101.52 511.88A17.76 17.76 0 0 0 126.64 537l4.54-4.54a17.76 17.76 0 0 0-25.12-25.12z"/><path id="ot42i" d="M131.17 507.35l-4.53 4.53"/><path id="ot42j" d="M135.32 513.39l-4.53 4.53"/><path id="ot42k" d="M136.65 519.44l-4.53 4.53"/><path id="ot42l" d="M118.51 502.25l-4.53 4.53"/><path id="ot42m" d="M125.5 503.76l-4.53 4.53"/><path id="ot42n" d="M126.64 511.88A17.76 17.76 0 1 1 101.52 537a17.76 17.76 0 0 1 25.12-25.12z"/><path id="ot42o" d="M116.63 527a17.76 17.76 0 0 0 25.12 25.12l4.54-4.54a17.76 17.76 0 0 0-25.12-25.12z"/><path id="ot42p" d="M146.28 522.46l-4.53 4.53"/><path id="ot42q" d="M150.44 528.51l-4.53 4.53"/><path id="ot42r" d="M151.76 534.56l-4.53 4.53"/><path id="ot42s" d="M133.62 517.36l-4.53 4.53"/><path id="ot42t" d="M140.61 518.87l-4.53 4.53"/><path id="ot42u" d="M141.75 527a17.76 17.76 0 1 1-25.12 25.12A17.76 17.76 0 0 1 141.75 527z"/></defs><g><g transform="translate(-95 -492)"><g><use fill="#f7f7f7" xlink:href="#ot42a"/><use fill="#fff" fill-opacity="0" stroke="#444752" stroke-miterlimit="50" stroke-width="2" xlink:href="#ot42a"/></g><g><use fill="#fff" fill-opacity="0" stroke="#444752" stroke-miterlimit="50" stroke-width="2" xlink:href="#ot42b"/></g><g><use fill="#fff" fill-opacity="0" stroke="#444752" stroke-miterlimit="50" stroke-width="2" xlink:href="#ot42c"/></g><g><use fill="#fff" fill-opacity="0" stroke="#444752" stroke-miterlimit="50" stroke-width="2" xlink:href="#ot42d"/></g><g><use fill="#fff" fill-opacity="0" stroke="#444752" stroke-miterlimit="50" stroke-width="2" xlink:href="#ot42e"/></g><g><use fill="#fff" fill-opacity="0" stroke="#444752" stroke-miterlimit="50" stroke-width="2" xlink:href="#ot42f"/></g><g><use fill="#f7f7f7" xlink:href="#ot42g"/><use fill="#fff" fill-opacity="0" stroke="#444752" stroke-miterlimit="50" stroke-width="2" xlink:href="#ot42g"/></g><g><use fill="#f7f7f7" xlink:href="#ot42h"/><use fill="#fff" fill-opacity="0" stroke="#444752" stroke-miterlimit="50" stroke-width="2" xlink:href="#ot42h"/></g><g><use fill="#fff" fill-opacity="0" stroke="#444752" stroke-miterlimit="50" stroke-width="2" xlink:href="#ot42i"/></g><g><use fill="#fff" fill-opacity="0" stroke="#444752" stroke-miterlimit="50" stroke-width="2" xlink:href="#ot42j"/></g><g><use fill="#fff" fill-opacity="0" stroke="#444752" stroke-miterlimit="50" stroke-width="2" xlink:href="#ot42k"/></g><g><use fill="#fff" fill-opacity="0" stroke="#444752" stroke-miterlimit="50" stroke-width="2" xlink:href="#ot42l"/></g><g><use fill="#fff" fill-opacity="0" stroke="#444752" stroke-miterlimit="50" stroke-width="2" xlink:href="#ot42m"/></g><g><use fill="#fff" fill-opacity="0" stroke="#444752" stroke-miterlimit="50" stroke-width="2" xlink:href="#ot42n"/></g><g><use fill="#f7f7f7" xlink:href="#ot42o"/></g><g><use fill="#fff" fill-opacity="0" stroke="#444752" stroke-miterlimit="50" stroke-width="2" xlink:href="#ot42o"/></g><g><use fill="#fff" fill-opacity="0" stroke="#444752" stroke-miterlimit="50" stroke-width="2" xlink:href="#ot42p"/></g><g><use fill="#fff" fill-opacity="0" stroke="#444752" stroke-miterlimit="50" stroke-width="2" xlink:href="#ot42q"/></g><g><use fill="#fff" fill-opacity="0" stroke="#444752" stroke-miterlimit="50" stroke-width="2" xlink:href="#ot42r"/></g><g><use fill="#fff" fill-opacity="0" stroke="#444752" stroke-miterlimit="50" stroke-width="2" xlink:href="#ot42s"/></g><g><use fill="#fff" fill-opacity="0" stroke="#444752" stroke-miterlimit="50" stroke-width="2" xlink:href="#ot42t"/></g><g><use fill="#f7f7f7" xlink:href="#ot42u"/><use fill="#fff" fill-opacity="0" stroke="#444752" stroke-miterlimit="50" stroke-width="2" xlink:href="#ot42u"/></g></g></g></svg>