<svg xmlns="http://www.w3.org/2000/svg" xmlns:xlink="http://www.w3.org/1999/xlink" width="65" height="72" viewBox="0 0 65 72"><defs><path id="t3mma" d="M299.4 665.54a3.46 3.46 0 0 0-3.5 3.5c0 1.96 1.54 3.5 3.5 3.5s3.5-1.54 3.5-3.5-1.54-3.5-3.5-3.5z"/><path id="t3mmb" d="M283.82 669.17c0 19.18 7.03 34.73 15.71 34.73s15.71-15.55 15.71-34.73c0-19.18-7.03-34.73-15.7-34.73-8.69 0-15.72 15.55-15.72 34.73z"/><path id="t3mmc" d="M308.15 636.67a3.46 3.46 0 0 0-3.5 3.5c0 1.96 1.54 3.5 3.5 3.5s3.5-1.54 3.5-3.5-1.54-3.5-3.5-3.5z"/><path id="t3mmd" d="M307.39 682.78c16.6-9.6 26.56-23.46 22.22-30.97-4.34-7.52-21.32-5.83-37.93 3.76s-26.56 23.45-22.22 30.96c4.33 7.52 21.32 5.84 37.93-3.75z"/><path id="t3mme" d="M276.53 687.44a3.46 3.46 0 0 0-3.5 3.5c0 1.96 1.54 3.5 3.5 3.5s3.5-1.54 3.5-3.5-1.54-3.5-3.5-3.5z"/><path id="t3mmf" d="M291.68 682.78c-16.61-9.6-26.56-23.46-22.22-30.97 4.33-7.52 21.32-5.83 37.93 3.76 16.6 9.59 26.56 23.45 22.22 30.96-4.34 7.52-21.32 5.84-37.93-3.75z"/><path id="t3mmg" d="M326.53 687.44a3.46 3.46 0 0 0-3.5 3.5c0 1.96 1.54 3.5 3.5 3.5s3.5-1.54 3.5-3.5-1.54-3.5-3.5-3.5z"/></defs><g><g transform="translate(-267 -633)"><g><use fill="#f7f7f7" xlink:href="#t3mma"/><use fill="#fff" fill-opacity="0" stroke="#444752" stroke-miterlimit="50" stroke-width="2" xlink:href="#t3mma"/></g><g><use fill="#fff" fill-opacity="0" stroke="#444752" stroke-miterlimit="50" stroke-width="2" xlink:href="#t3mmb"/></g><g><use fill="#f7f7f7" xlink:href="#t3mmc"/><use fill="#fff" fill-opacity="0" stroke="#444752" stroke-miterlimit="50" stroke-width="2" xlink:href="#t3mmc"/></g><g><use fill="#fff" fill-opacity="0" stroke="#444752" stroke-miterlimit="50" stroke-width="2" xlink:href="#t3mmd"/></g><g><use fill="#f7f7f7" xlink:href="#t3mme"/><use fill="#fff" fill-opacity="0" stroke="#444752" stroke-miterlimit="50" stroke-width="2" xlink:href="#t3mme"/></g><g><use fill="#fff" fill-opacity="0" stroke="#444752" stroke-miterlimit="50" stroke-width="2" xlink:href="#t3mmf"/></g><g><use fill="#f7f7f7" xlink:href="#t3mmg"/><use fill="#fff" fill-opacity="0" stroke="#444752" stroke-miterlimit="50" stroke-width="2" xlink:href="#t3mmg"/></g></g></g></svg>