<svg xmlns="http://www.w3.org/2000/svg" xmlns:xlink="http://www.w3.org/1999/xlink" width="27" height="27" viewBox="0 0 27 27"><defs><path id="cc5ha" d="M413.7 2236.37a16.03 16.03 0 0 0-.6 2.42l-.06.39c-.09.79.2 1.6.85 2.22a3.25 3.25 0 0 0 4.27.07 2.55 2.55 0 0 0 .04-3.86c-.44-.41-1-.67-1.57-.78.06-.4.14-.82.24-1.24.23-.95.56-1.9.84-2.6l.5-1.18-1.7-.78s-.31.43-.75 1.13a22.15 22.15 0 0 0-2.05 4.2"/><path id="cc5hb" d="M420.6 2236.37a16.03 16.03 0 0 0-.6 2.42l-.06.39c-.09.79.2 1.6.85 2.22a3.25 3.25 0 0 0 4.27.07 2.55 2.55 0 0 0 .04-3.86c-.44-.41-1-.67-1.57-.78.06-.4.14-.82.24-1.24.23-.95.56-1.9.84-2.6l.5-1.18-1.7-.78s-.31.43-.75 1.13a22.15 22.15 0 0 0-2.05 4.2"/><path id="cc5hc" d="M407 2237.5a12.5 12.5 0 1 1 25 0 12.5 12.5 0 0 1-25 0z"/></defs><g><g transform="translate(-406 -2224)"><g><use fill="#fff" fill-opacity="0" stroke="#e24747" stroke-miterlimit="50" xlink:href="#cc5ha"/></g><g><use fill="#fff" fill-opacity="0" stroke="#e24747" stroke-miterlimit="50" xlink:href="#cc5hb"/></g><g><use fill="#fff" fill-opacity="0" stroke="#e24747" stroke-miterlimit="50" xlink:href="#cc5hc"/></g></g></g></svg>