<svg xmlns="http://www.w3.org/2000/svg" xmlns:xlink="http://www.w3.org/1999/xlink" width="91" height="29" viewBox="0 0 91 29"><defs><path id="dxmkaa" d="M58.25 1065.1a1.66 1.66 0 1 1 3.31 0 1.66 1.66 0 0 1-3.31 0zm2.62-2.05c-1-.43-2.16-.1-2.8.77a2.2 2.2 0 0 0 0 2.51c.6.96 1.81 1.34 2.86.9a3.5 3.5 0 0 1-3.74 1.33 3.56 3.56 0 0 1-.2-6.8c1.44-.43 3 .09 3.88 1.3zm-6.18 4.66a6.44 6.44 0 0 1 3.28-12.04 6.44 6.44 0 1 1 3.28 12.03 4.07 4.07 0 0 0-1.03-6.15 4.2 4.2 0 0 0-5.16.6 4.19 4.19 0 0 0-.24 5.46zm-1.8-.68l.02.04zm.02.04a7.16 7.16 0 0 0 7.78 1.6 7.07 7.07 0 0 0 0-13.09 7.16 7.16 0 0 0-7.78 1.61 9.37 9.37 0 0 1 3.86-3.84 9.95 9.95 0 0 1 5.44-1.25c5 .41 8.94 4.37 9.3 9.33a10.1 10.1 0 0 1-7.87 10.55 10.03 10.03 0 0 1-10.73-4.91zm1.58-12.83a10.66 10.66 0 0 0-2.83 11.8 10.8 10.8 0 0 0 10.07 6.86 10.8 10.8 0 0 0 10.07-6.87c1.6-4.13.48-8.82-2.82-11.8a13.28 13.28 0 0 1 6.24 12.93 13.59 13.59 0 0 1-12.08 11.86A13.64 13.64 0 0 1 48.8 1070a13.5 13.5 0 0 1 5.65-15.9zm-7.08 11.36a14.1 14.1 0 0 0 4.15 10.02 14.31 14.31 0 0 0 10.07 4.18 14.2 14.2 0 0 0 14.3-14.12 14.2 14.2 0 0 0-14.22-14.19 14.2 14.2 0 0 0-14.3 14.11z"/><path id="dxmka" d="M59.9 1063.43a1.66 1.66 0 1 1 0 3.32 1.66 1.66 0 0 1 0-3.32zm-5.36 1.8a3.55 3.55 0 0 1 2.45-3.47c1.44-.43 3 .09 3.88 1.3-1-.44-2.16-.12-2.8.76a2.2 2.2 0 0 0 0 2.51c.6.96 1.81 1.34 2.86.9a3.5 3.5 0 0 1-3.74 1.33 3.56 3.56 0 0 1-2.65-3.33zm3.43-9.56a6.44 6.44 0 1 1 3.28 12.03 4.08 4.08 0 0 0-1.03-6.15 4.2 4.2 0 0 0-5.16.6 4.19 4.19 0 0 0-.24 5.46l-.13.1a6.44 6.44 0 0 1 3.28-12.04zm-3.52-1.59l.04.16a10.66 10.66 0 0 0-2.83 11.8 10.8 10.8 0 0 0 10.07 6.86 10.8 10.8 0 0 0 10.07-6.87c1.6-4.13.48-8.82-2.82-11.8a13.28 13.28 0 0 1 6.24 12.93 13.59 13.59 0 0 1-13.54 11.94 13.63 13.63 0 0 1-12.88-9.11 13.5 13.5 0 0 1 5.65-15.9zm7.76-1.98c5 .41 8.94 4.37 9.3 9.33a10.1 10.1 0 0 1-7.87 10.55 10.03 10.03 0 0 1-10.73-4.91 7.16 7.16 0 0 0 7.78 1.6 7.07 7.07 0 0 0 0-13.09 7.16 7.16 0 0 0-7.78 1.61 9.37 9.37 0 0 1 3.86-3.84 9.95 9.95 0 0 1 5.44-1.25zm-10.65 23.52a14.31 14.31 0 0 0 10.07 4.18 14.2 14.2 0 0 0 14.3-14.12 14.2 14.2 0 0 0-14.22-14.19h-.04a14.2 14.2 0 0 0-14.26 14.11 14.1 14.1 0 0 0 4.15 10.02z"/><path id="dxmkac" d="M-143.04 1735.95h667.46V958.53h-667.46z"/><path id="dxmkb" d="M59.9 1063.43a1.66 1.66 0 1 1 0 3.32 1.66 1.66 0 0 1 0-3.32zm-5.36 1.8a3.55 3.55 0 0 1 2.45-3.47c1.44-.43 3 .09 3.88 1.3-1-.44-2.16-.12-2.8.76a2.2 2.2 0 0 0 0 2.51c.6.96 1.81 1.34 2.86.9a3.5 3.5 0 0 1-3.74 1.33 3.56 3.56 0 0 1-2.65-3.33zm3.43-9.56a6.44 6.44 0 1 1 3.28 12.03 4.07 4.07 0 0 0-1.03-6.15 4.2 4.2 0 0 0-5.16.6 4.19 4.19 0 0 0-.24 5.46l-.13.1a6.44 6.44 0 0 1 3.28-12.04zm-3.52-1.59l.04.16a10.66 10.66 0 0 0-2.83 11.8 10.8 10.8 0 0 0 10.07 6.86 10.8 10.8 0 0 0 10.07-6.87c1.6-4.13.48-8.82-2.82-11.8a13.28 13.28 0 0 1 6.24 12.93 13.59 13.59 0 0 1-13.54 11.94 13.63 13.63 0 0 1-12.88-9.11 13.49 13.49 0 0 1 5.65-15.9zm7.76-1.98c5 .41 8.94 4.37 9.3 9.33a10.1 10.1 0 0 1-7.87 10.55 10.03 10.03 0 0 1-10.73-4.91 7.16 7.16 0 0 0 7.78 1.6 7.07 7.07 0 0 0 4.43-6.54 7.07 7.07 0 0 0-4.43-6.55 7.16 7.16 0 0 0-7.78 1.61 9.37 9.37 0 0 1 3.86-3.84 9.94 9.94 0 0 1 5.44-1.25zm-14.8 13.5a14.1 14.1 0 0 0 4.15 10.02 14.31 14.31 0 0 0 10.07 4.18 14.2 14.2 0 0 0 14.3-14.12 14.2 14.2 0 0 0-14.22-14.19h-.04a14.2 14.2 0 0 0-14.26 14.11z"/><path id="dxmkae" d="M46.64 1080.57H76.7v-29.85H46.64z"/><path id="dxmkaf" d="M90.92 1064.75h2.56c0-.55 0-1.09-.13-1.59-.1-.5-.52-.9-1.04-.94-.58-.04-1.1.37-1.2.94-.06.56-.1 1.11-.09 1.67zm3.85 3.83h-1.21v-2.45h-2.5v2.45h-1.25v-4.73c0-.32.04-.64.12-.96a2.44 2.44 0 0 1 4.8.18c.04.67.04 1.35 0 2.02v3.28c.02.06.04.14.04.2z"/><path id="dxmkc" d="M91.12 1063.16c-.07.53-.1 1.06-.1 1.6h2.46c0-.56 0-1.1-.13-1.6-.1-.5-.52-.9-1.04-.94-.58-.04-1.1.37-1.2.94zm-1.2-.27a2.44 2.44 0 0 1 4.81.18c.04.67.04 1.35 0 2.02v3.28c.02.06.04.13.04.2h-1.21v-2.44h-2.5v2.45h-1.25v-4.73c0-.32.04-.64.12-.96z"/><path id="dxmkd" d="M91.12 1063.16c-.07.53-.1 1.06-.1 1.6h2.46c0-.56 0-1.1-.13-1.6-.1-.5-.52-.9-1.04-.94-.58-.04-1.1.37-1.2.94zm-1.2-.27a2.44 2.44 0 0 1 4.81.18c.04.67.04 1.35 0 2.02v3.28c.02.06.04.13.04.2h-1.21v-2.44h-2.5v2.45h-1.25v-4.73c0-.32.04-.64.12-.96z"/><path id="dxmkai" d="M89.05 1069.35h6.5v-9.15h-6.5z"/><path id="dxmkaj" d="M82.86 1063.93v4.7h-1.11v-7.44c.73-.2.86-.14 1.26.5l2.3 3.72.29.42v-4.64h1.11v7.4c-.7.2-.86.14-1.24-.47l-2.3-3.75z"/><path id="dxmke" d="M81.75 1061.19v7.45h1.11v-4.7l.3.43 2.3 3.75c.39.61.54.67 1.25.48v-7.41H85.6v4.64l-.29-.42-2.3-3.72c-.27-.44-.42-.6-.72-.6-.14 0-.3.04-.54.1z"/><path id="dxmkf" d="M81.75 1061.19v7.45h1.11v-4.7l.3.43 2.3 3.75c.39.61.54.67 1.25.48v-7.41H85.6v4.64l-.29-.42-2.3-3.72c-.27-.44-.42-.6-.72-.6-.14 0-.3.04-.54.1z"/><path id="dxmkam" d="M80.99 1069.47h6.5v-9.15h-6.5z"/><path id="dxmkan" d="M97.5 1061.22h1.24v4.68c0 .37.07.72.19 1.05a1.14 1.14 0 0 0 2.08 0c.13-.33.2-.68.2-1.04v-4.69h1.25V1065.87c0 .38-.04.77-.14 1.14a2.36 2.36 0 0 1-2.39 1.94 2.4 2.4 0 0 1-2.4-1.94 1.94 1.94 0 0 1 0-.5c-.03-1.78-.03-3.53-.03-5.29"/><path id="dxmkg" d="M101.2 1061.22v4.68c0 .37-.06.72-.19 1.05a1.14 1.14 0 0 1-2.08 0 3.17 3.17 0 0 1-.2-1.04v-4.69H97.5a245.53 245.53 0 0 0 .04 5.8 2.4 2.4 0 0 0 2.4 1.93 2.36 2.36 0 0 0 2.38-1.94c.1-.37.14-.76.14-1.14V1061.22z"/><path id="dxmkh" d="M101.2 1061.22v4.68c0 .37-.06.72-.19 1.05a1.14 1.14 0 0 1-2.08 0 3.17 3.17 0 0 1-.2-1.04v-4.69H97.5a244.34 244.34 0 0 0 .04 5.8 2.4 2.4 0 0 0 2.4 1.93 2.36 2.36 0 0 0 2.38-1.94c.1-.37.14-.76.14-1.14V1061.22z"/><path id="dxmkaq" d="M96.73 1069.71h6.5v-9.27h-6.5z"/><path id="dxmkar" d="M124.86 1061.22h1.22v4.48c0 .34.05.68.14 1a1.16 1.16 0 1 0 2.27 0c.08-.32.13-.66.13-1v-4.35-.11h1.22v4.58c.03.3.03.62 0 .92a2.4 2.4 0 0 1-2.75 2.06 2.38 2.38 0 0 1-2.31-2.33c.02-1.73.08-3.48.08-5.25"/><path id="dxmki" d="M124.86 1061.22c0 1.77-.06 3.52-.08 5.25a2.38 2.38 0 0 0 2.3 2.33 2.44 2.44 0 0 0 2.76-2.06c.03-.3.03-.61 0-.92v-4.58h-1.22v4.46c0 .34-.05.68-.14 1a1.16 1.16 0 1 1-2.27 0 3.83 3.83 0 0 1-.13-1v-4.48z"/><path id="dxmkj" d="M124.86 1061.22c0 1.77-.06 3.52-.08 5.25a2.38 2.38 0 0 0 2.3 2.33 2.44 2.44 0 0 0 2.76-2.06c.03-.3.03-.61 0-.92v-4.58h-1.22a.6.6 0 0 0 0 .11v4.35c0 .34-.05.68-.14 1a1.16 1.16 0 1 1-2.27 0 3.84 3.84 0 0 1-.13-1v-4.48z"/><path id="dxmkau" d="M124.01 1069.59h6.62v-9.15h-6.62z"/><path id="dxmkav" d="M136.73 1062.78c-.43-.22-.88-.4-1.34-.52-.4-.07-.82-.03-1.2.12a.7.7 0 0 0-.1 1.27c.31.19.64.36.99.5.37.17.78.3 1.13.52a2.04 2.04 0 0 1 .15 3.52 3.2 3.2 0 0 1-3.7-.16.44.44 0 0 1-.15-.3c0-.3 0-.58.12-.85.59.21 1.2.4 1.8.54.36.03.72-.03 1.04-.18a.73.73 0 0 0 .1-1.35c-.3-.17-.62-.31-.94-.44-.42-.16-.84-.35-1.24-.55a2.02 2.02 0 0 1-.18-3.4 2.94 2.94 0 0 1 3.66.24c.04.1.04.2 0 .29 0 .27 0 .52-.14.75"/><path id="dxmkk" d="M133.21 1061.49a2.01 2.01 0 0 0 .18 3.4c.4.21.82.4 1.24.56.32.13.64.27.94.45a.73.73 0 0 1-.1 1.34c-.32.15-.68.21-1.03.18a16.1 16.1 0 0 1-1.81-.54c-.12.27-.12.56-.12.84 0 .12.06.24.16.31a3.2 3.2 0 0 0 3.7.16 2.03 2.03 0 0 0-.16-3.52c-.35-.22-.76-.35-1.13-.52-.35-.14-.68-.31-1-.5a.7.7 0 0 1 .1-1.27c.39-.15.8-.19 1.21-.12.46.13.91.3 1.34.52.14-.23.14-.48.14-.75.04-.1.04-.2 0-.29a2.93 2.93 0 0 0-3.66-.25z"/><path id="dxmkl" d="M133.21 1061.49a2.01 2.01 0 0 0 .18 3.4c.4.21.82.4 1.24.56.32.13.64.27.94.45a.73.73 0 0 1-.1 1.34c-.32.15-.68.21-1.03.18a16 16 0 0 1-1.81-.54c-.12.27-.12.56-.12.85 0 .11.06.23.16.3a3.2 3.2 0 0 0 3.7.16 2.03 2.03 0 0 0-.16-3.52c-.35-.22-.76-.35-1.13-.52-.35-.14-.68-.31-1-.5a.7.7 0 0 1 .1-1.27c.39-.15.8-.19 1.2-.12.47.13.92.3 1.35.52.14-.23.14-.48.14-.75.04-.1.04-.2 0-.29a2.93 2.93 0 0 0-3.66-.25z"/><path id="dxmkay" d="M131.58 1069.47h6.5v-9.27h-6.5z"/><path id="dxmkaz" d="M116.22 1061.22v1.21h-.95c-.31 0-.28.14-.28.22v4.78h1.23v1.27h-3.74v-1.21h1.11v-5.06h-1.21v-1.21z"/><path id="dxmkm" d="M112.38 1061.22v1.21h1.21v5.06h-1.11v1.21h3.74v-1.27H115v-4.78c0-.08-.03-.22.28-.22h.95v-1.21z"/><path id="dxmkn" d="M112.38 1061.22v1.21h1.21v5.06h-1.11v1.21h3.74v-1.27H115v-4.78c0-.08-.03-.22.28-.22h.95v-1.21z"/><path id="dxmkaC" d="M111.61 1069.46h5.38v-9.02h-5.38z"/><path id="dxmkaD" d="M106.88 1062.45h-1.82c-.27 0-.39 0-.37-.36.02-.37 0-.56 0-.87h5.58v1.21h-2.13v6.27h-1.26z"/><path id="dxmko" d="M104.7 1061.22v.87c-.03.36.09.36.36.36h1.82v6.25h1.26v-6.27h2.13v-1.21z"/><path id="dxmkp" d="M104.7 1061.22v.87c-.03.36.09.36.36.36h1.82v6.25h1.26v-6.27h2.13v-1.21z"/><path id="dxmkaG" d="M103.93 1069.46h7.12v-9.02h-7.12z"/><path id="dxmkaH" d="M122.68 1067.45v1.25h-3.35v-7.48h1.21v6.24z"/><path id="dxmkq" d="M119.32 1061.22v7.48h3.35v-1.25l-2.14.01v-6.24z"/><path id="dxmkr" d="M119.32 1061.22v7.48h3.35v-1.25l-2.14.01v-6.24z"/><path id="dxmkaK" d="M118.56 1069.46h4.88v-9.02h-4.88z"/><path id="dxmkaL" d="M118.18 1074.3v-.36c0-.37-.16-.5-.49-.52a.77.77 0 0 0-.86.6c-.16.43-.01.92.36 1.19a.64.64 0 0 0 .96-.56c.03-.12.03-.24.03-.34zm.27 1.12c-.26.08-.53.13-.8.14-.3-.03-.6-.14-.86-.31a1.38 1.38 0 0 1-.15-1.54 1.1 1.1 0 0 1 1.22-.55h.23c.25-.35-.15-.87.36-1.22z"/><path id="dxmks" d="M117.2 1075.2a.63.63 0 0 0 .64.01c.2-.12.32-.33.32-.57.02-.11.02-.23.02-.33v-.37c0-.37-.16-.5-.49-.52a.77.77 0 0 0-.86.6c-.16.43-.01.92.36 1.19zm.9-2.03c.24-.35-.16-.88.35-1.23v3.48c-.26.08-.53.13-.8.14-.3-.03-.6-.13-.86-.31a1.38 1.38 0 0 1-.15-1.54 1.1 1.1 0 0 1 1.22-.54z"/><path id="dxmkt" d="M117.2 1075.2a.63.63 0 0 0 .64.01c.2-.12.32-.33.32-.57.02-.11.02-.23.02-.33v-.37c0-.37-.16-.5-.49-.52a.77.77 0 0 0-.86.6c-.16.43-.01.92.36 1.19zm.9-2.03c.24-.35-.16-.88.35-1.23v3.48c-.26.08-.53.13-.8.14-.3-.03-.6-.13-.86-.31a1.38 1.38 0 0 1-.15-1.54 1.1 1.1 0 0 1 1.22-.54z"/><path id="dxmkaO" d="M115.71 1076.33h3.52v-5.16h-3.52z"/><path id="dxmkaP" d="M83.65 1072.72c-.34-.1-.69-.17-1.05-.2a.85.85 0 0 0-.57.41c-.14.3.12.47.37.59l.82.3c.34.13.55.47.51.83a.76.76 0 0 1-.63.78c-.43.02-.85-.01-1.27-.1 0 0-.12-.2-.2-.3.39.09.78.14 1.17.18.15 0 .3-.05.41-.15.12-.1.18-.24.19-.4 0-.33-.16-.5-.44-.62l-.77-.29a.76.76 0 0 1-.54-.82c0-.38.3-.7.7-.74.37 0 .74.03 1.1.12 0 0 .1.23.2.4"/><path id="dxmku" d="M82.34 1072.2a.77.77 0 0 0-.7.73c-.04.37.19.71.55.82l.77.3c.28.1.44.28.44.62a.58.58 0 0 1-.6.55c-.4-.05-.78-.1-1.17-.18l.2.29c.41.09.84.12 1.27.1.38-.07.65-.4.63-.78a.78.78 0 0 0-.51-.82l-.82-.31c-.25-.12-.51-.3-.37-.59a.85.85 0 0 1 .57-.4c.36.02.71.08 1.05.19-.1-.18-.2-.41-.2-.41a4.15 4.15 0 0 0-1.1-.12z"/><path id="dxmkv" d="M82.34 1072.2a.77.77 0 0 0-.7.73c-.04.37.19.71.54.82l.78.3c.28.1.44.28.44.62a.58.58 0 0 1-.6.55c-.4-.05-.78-.1-1.17-.18l.2.29c.41.09.84.12 1.27.1.38-.07.65-.4.63-.78a.78.78 0 0 0-.51-.82l-.82-.31c-.25-.12-.51-.3-.37-.59a.85.85 0 0 1 .57-.4c.36.02.71.08 1.05.19-.1-.18-.2-.41-.2-.41a4.16 4.16 0 0 0-1.1-.12z"/><path id="dxmkaS" d="M80.86 1076.2h3.64v-4.78h-3.64z"/><path id="dxmkaT" d="M99.9 1072.76c-.8-.34-1.39-.24-1.75.25-.4.58-.4 1.36 0 1.95.36.45.96.53 1.83.23 0 .1-.1.26-.2.32-.65.33-1.44.17-1.92-.4a1.97 1.97 0 0 1 0-2.26 1.6 1.6 0 0 1 1.93-.37l.19.26z"/><path id="dxmkw" d="M97.86 1072.85a1.97 1.97 0 0 0 0 2.27c.48.56 1.27.72 1.93.39.1-.06.19-.22.19-.32-.87.3-1.47.22-1.83-.23-.41-.59-.41-1.37 0-1.95.36-.49.94-.59 1.75-.25l.08-.02-.2-.26a1.6 1.6 0 0 0-1.92.37z"/><path id="dxmkx" d="M97.86 1072.85a1.97 1.97 0 0 0 0 2.27c.48.56 1.27.72 1.93.39.1-.06.19-.22.19-.32-.87.3-1.47.22-1.83-.23-.41-.59-.41-1.37 0-1.95.36-.49.94-.59 1.75-.25l.08-.02-.2-.26a1.6 1.6 0 0 0-1.92.37z"/><path id="dxmkaW" d="M96.73 1076.45h4.02v-4.91h-4.02z"/><path id="dxmkaX" d="M100.66 1074.31c.06.45.46.76.9.72a.83.83 0 0 0 .74-.88.83.83 0 0 0-.84-.8.84.84 0 0 0-.6.3.87.87 0 0 0-.2.66m1.92 0c.01.33-.1.64-.32.88-.22.23-.52.36-.84.36a1.25 1.25 0 0 1-1.07-1.24c0-.64.46-1.17 1.07-1.25.33-.01.64.12.86.36.22.24.33.57.3.9"/><path id="dxmky" d="M100.66 1074.31a.83.83 0 0 0 .9.72.83.83 0 0 0 .74-.88.83.83 0 0 0-.84-.8.84.84 0 0 0-.6.3.87.87 0 0 0-.2.66zm.76-1.25h.05c.3 0 .6.13.81.36.22.24.33.57.3.9.01.32-.1.63-.32.87-.22.23-.52.36-.84.36a1.25 1.25 0 0 1-1.07-1.24c0-.64.46-1.17 1.07-1.25z"/><path id="dxmkz" d="M100.66 1074.31a.83.83 0 0 0 .9.72.83.83 0 0 0 .74-.88.83.83 0 0 0-.84-.8.84.84 0 0 0-.6.3.87.87 0 0 0-.2.66zm.77-1.25h.04c.3 0 .6.13.81.36.22.24.33.57.3.9.01.32-.1.63-.32.87-.22.23-.52.36-.84.36a1.25 1.25 0 0 1-1.07-1.24c0-.64.46-1.17 1.07-1.25z"/><path id="dxmkba" d="M99.59 1076.33h3.77v-4.04h-3.77z"/><path id="dxmkbb" d="M105.75 1075.55s-.19-.17-.19-.25v-1.97l.15-.25.28.23.17-.1c.72-.39 1.24 0 1.26.75v1.22c0 .41-.12.22-.17.33h-.14v-1.5c0-.52-.14-.6-.52-.58-.4.02-.68.22-.68.6v1.46z"/><path id="dxmkA" d="M106.16 1073.22l-.17.1-.27-.24-.16.25v1.97c0 .08.2.25.2.25l.15-.05v-1.48c0-.37.29-.57.68-.59.38-.02.52.06.52.57v1.51h.14c.05-.11.17.08.17-.33v-1.22c-.01-.54-.3-.9-.73-.9-.16 0-.34.05-.53.16z"/><path id="dxmkB" d="M106.16 1073.22l-.17.1-.27-.24-.16.25v1.97c0 .08.2.25.2.25l.15-.05v-1.48c0-.37.29-.57.68-.59.38-.02.52.06.52.57v1.51h.14c.05-.11.17.08.17-.33v-1.22c-.01-.54-.3-.9-.73-.9-.16 0-.34.05-.53.16z"/><path id="dxmkbe" d="M104.79 1076.33h3.4v-4.04h-3.4z"/><path id="dxmkbf" d="M103.4 1075.43s-.19-.17-.19-.25v-1.95l.16-.25.25.23.2-.12c.7-.39 1.25 0 1.25.73v1.24c0 .12-.12.22-.18.32h-.13v-1.5c0-.51-.14-.57-.53-.57-.4 0-.69.21-.69.58v1.47z"/><path id="dxmkC" d="M103.82 1073.1l-.2.11-.25-.23-.16.25v1.95c0 .08.2.25.2.25l.13-.07v-1.47c0-.37.3-.58.69-.58.39 0 .53.06.53.56v1.5h.13c.06-.1.18-.19.18-.3v-1.25c0-.53-.3-.88-.72-.88-.16 0-.34.05-.53.15z"/><path id="dxmkD" d="M103.82 1073.1l-.2.11-.25-.23-.16.25v1.95c0 .08.2.25.2.25l.13-.07v-1.47c0-.37.3-.58.69-.58.39 0 .53.06.53.56v1.5h.13c.06-.1.18-.19.18-.3v-1.25c0-.53-.3-.88-.72-.88-.16 0-.34.05-.53.15z"/><path id="dxmkbi" d="M102.44 1076.2h3.4v-4.03h-3.4z"/><path id="dxmkbj" d="M91.19 1075.36v-1.4c0-.46-.14-.62-.52-.62-.39 0-.67.21-.67.62.01.5-.02.99-.1 1.47 0 0-.21-.15-.21-.25v-1.91s.11-.18.23-.33l.13.36.46-.23a.69.69 0 0 1 1.02.62c.03.49.03.98 0 1.48l-.2.24z"/><path id="dxmkE" d="M89.69 1073.27v1.91c0 .1.21.25.21.25.08-.48.11-.98.1-1.47 0-.4.28-.62.67-.62.38 0 .52.16.52.62v1.4l.15.05.19-.24c.03-.5.03-.99 0-1.48a.7.7 0 0 0-1.02-.62l-.46.23-.13-.36c-.12.15-.23.33-.23.33z"/><path id="dxmkF" d="M89.69 1073.27v1.91c0 .1.21.25.21.25.08-.48.11-.98.1-1.47 0-.4.28-.62.67-.62.38 0 .52.16.52.62v1.4l.15.05.2-.24c.02-.5.02-.99 0-1.48a.7.7 0 0 0-1.03-.62l-.46.23-.13-.36c-.12.15-.23.33-.23.33z"/><path id="dxmkbm" d="M88.92 1076.2h3.4v-4.03h-3.4z"/><path id="dxmkbn" d="M114.47 1074.04h1c.11 0 .32 0 .32-.11 0-.12 0-.37-.11-.4-.19-.12-.4-.17-.63-.14-.35.05-.5.29-.54.65zm0 .24c0 .89.49 1.08 1.59.79-.1.17-.14.31-.22.35-.4.21-.9.17-1.27-.12a1.27 1.27 0 0 1-.4-1.33c.07-.44.4-.8.85-.88.4-.11.83.09 1 .47.22.53 0 .74-.5.74z"/><path id="dxmkG" d="M115.05 1073.39c-.35.05-.5.29-.54.65h.95c.12 0 .33 0 .33-.11 0-.12 0-.37-.11-.4-.2-.12-.4-.17-.63-.14zm-.03-.3a.85.85 0 0 1 1 .47c.22.53 0 .74-.5.74l-1.05-.02c0 .89.49 1.08 1.59.79-.1.17-.14.31-.22.35-.4.21-.9.17-1.27-.12a1.27 1.27 0 0 1-.4-1.33c.07-.44.4-.8.85-.88z"/><path id="dxmkH" d="M115.05 1073.39c-.35.05-.5.29-.54.65h.95c.12 0 .33 0 .33-.11 0-.12 0-.37-.11-.4-.2-.12-.4-.17-.63-.14zm.2-.33c.33 0 .63.19.77.5.22.53 0 .74-.5.74l-1.05-.02c0 .89.49 1.08 1.59.79-.1.17-.14.31-.22.35-.4.21-.9.17-1.27-.12a1.27 1.27 0 0 1-.4-1.33c.07-.44.4-.8.85-.88a.84.84 0 0 1 .23-.03z"/><path id="dxmkbq" d="M113.35 1076.33h3.52v-4.04h-3.52z"/><path id="dxmkbr" d="M108.29 1074.04h1c.3 0 .32-.15.24-.36a.52.52 0 0 0-.63-.35.68.68 0 0 0-.57.71zm0 .24c0 .89.5 1.08 1.6.79-.12.17-.14.31-.24.35a1.2 1.2 0 0 1-1.28-.12 1.26 1.26 0 0 1-.4-1.33c.07-.44.41-.8.85-.88.4-.1.8.07 1 .43.23.53 0 .78-.48.78z"/><path id="dxmkI" d="M108.9 1073.33a.68.68 0 0 0-.57.71h.96c.3 0 .31-.15.23-.36a.51.51 0 0 0-.62-.35zm-.08-.24a.86.86 0 0 1 1 .43c.23.53 0 .78-.48.78l-1.05-.01c0 .87.5 1.07 1.6.78-.12.17-.14.31-.24.35a1.2 1.2 0 0 1-1.28-.12 1.26 1.26 0 0 1-.4-1.33c.07-.44.41-.8.85-.88z"/><path id="dxmkJ" d="M108.9 1073.33a.68.68 0 0 0-.57.71h.96c.3 0 .31-.15.23-.36a.5.5 0 0 0-.62-.35zm-.08-.24a.85.85 0 0 1 1 .43c.23.53 0 .78-.48.78l-1.05-.02c0 .88.5 1.08 1.6.79-.12.17-.14.31-.24.35a1.2 1.2 0 0 1-1.28-.12 1.26 1.26 0 0 1-.4-1.33c.07-.44.41-.8.85-.88z"/><path id="dxmkbu" d="M107.15 1076.33h3.52v-4.04h-3.52z"/><path id="dxmkbv" d="M94.5 1074.1h1c.29 0 .29-.16.2-.37a.5.5 0 0 0-.61-.33.67.67 0 0 0-.53.7zm0 .21c.12.85.47 1.02 1.57.78 0 .13 0 .26-.17.3-.4.23-.89.23-1.28 0a1.3 1.3 0 0 1-.4-1.42c.13-.43.52-.74.99-.77.24-.03.48.04.66.2.17.15.27.38.26.61 0 .3-.1.4-.39.38z"/><path id="dxmkK" d="M95.09 1073.4a.67.67 0 0 0-.53.7h.93c.3 0 .3-.16.22-.37a.5.5 0 0 0-.62-.33zm.12-.2a.87.87 0 0 1 .66.2c.17.16.27.38.26.61 0 .3-.1.4-.39.38l-1.24-.08c.12.85.47 1.02 1.57.78 0 .13 0 .26-.17.3-.4.23-.89.23-1.28 0a1.3 1.3 0 0 1-.4-1.42c.13-.43.52-.74.99-.77z"/><path id="dxmkL" d="M95.09 1073.4a.67.67 0 0 0-.53.7h.93c.3 0 .3-.16.22-.37a.5.5 0 0 0-.62-.33zm.12-.2a.87.87 0 0 1 .66.2c.17.16.27.38.26.61 0 .3-.1.4-.39.38l-1.24-.08c.12.85.47 1.03 1.57.78 0 .13 0 .26-.17.3-.4.23-.89.23-1.28 0a1.3 1.3 0 0 1-.4-1.42c.13-.43.52-.74.99-.77z"/><path id="dxmkby" d="M93.39 1076.33h3.52v-3.91h-3.52z"/><path id="dxmkbz" d="M87.56 1074.08h.84c.13-.02.26-.06.38-.11 0-.16-.1-.37-.22-.49-.12-.11-.82-.03-.98.6zm0 .28c0 .82.5 1.04 1.57.73 0 .17-.14.31-.2.33-.4.21-.9.17-1.27-.12a1.25 1.25 0 0 1-.4-1.33c.07-.44.41-.8.85-.88.4-.11.83.09 1 .47.22.55 0 .74-.49.74h-.96z"/><path id="dxmkM" d="M88.56 1073.48c-.12-.11-.82-.03-.98.6h.82c.13-.02.26-.06.38-.11 0-.16-.1-.37-.22-.49zm-.45-.39a.85.85 0 0 1 1 .47c.22.55 0 .74-.49.74h-.96l-.1.06c0 .82.5 1.04 1.57.73 0 .17-.14.31-.2.33-.4.21-.9.17-1.27-.12a1.25 1.25 0 0 1-.4-1.33c.07-.44.41-.8.85-.88z"/><path id="dxmkN" d="M88.56 1073.48c-.12-.11-.82-.03-.98.6h.82c.13-.02.26-.06.38-.11 0-.16-.1-.37-.22-.49zm-.22-.42c.33 0 .63.19.77.5.22.55 0 .74-.49.74h-.96l-.1.06c0 .82.5 1.04 1.57.73 0 .17-.14.31-.2.33-.4.21-.9.17-1.27-.12a1.25 1.25 0 0 1-.4-1.33c.07-.44.41-.8.85-.88a.83.83 0 0 1 .23-.03z"/><path id="dxmkbC" d="M86.44 1076.33h3.52v-4.04h-3.52z"/><path id="dxmkbD" d="M85.85 1075.1c-.11.16-.13.28-.2.31-.46.26-1.03.16-1.38-.23a1.47 1.47 0 0 1 0-1.72c.34-.4.9-.52 1.37-.27 0 0 0 .15.12.23h-.29a.84.84 0 0 0-.92.18c-.25.29-.32.7-.19 1.05.07.38.4.64.77.59l.72-.14"/><path id="dxmkO" d="M84.27 1073.46c-.37.5-.37 1.21 0 1.72.35.39.92.49 1.37.23.08-.03.1-.15.21-.3-.34.05-.53.09-.72.13a.7.7 0 0 1-.77-.59c-.13-.36-.06-.76.2-1.05.24-.24.6-.31.91-.18h.29c-.12-.08-.12-.23-.12-.23a1.11 1.11 0 0 0-1.37.27z"/><path id="dxmkP" d="M84.27 1073.46c-.37.5-.37 1.21 0 1.72.35.4.92.49 1.37.23.08-.03.1-.15.21-.3-.34.05-.53.09-.72.13a.7.7 0 0 1-.77-.59c-.13-.36-.06-.76.19-1.05.25-.24.6-.31.92-.18h.29c-.12-.08-.12-.23-.12-.23a1.11 1.11 0 0 0-1.37.27z"/><path id="dxmkbG" d="M83.22 1076.33h3.4v-4.04h-3.4z"/><path id="dxmkbH" d="M93.91 1075.18s0 .18-.12.22c-.48.27-1.08.18-1.45-.23a1.44 1.44 0 0 1 0-1.73c.36-.39.94-.5 1.41-.25 0 0 0 .12.12.2a.75.75 0 0 1-.27 0c-.72-.18-1.13 0-1.22.72a.87.87 0 1 0 1.15 1.04h.28z"/><path id="dxmkQ" d="M92.34 1073.44a1.44 1.44 0 0 0 0 1.73c.37.4.97.5 1.45.23.12-.04.12-.22.12-.22l-.1-.03h-.29a.87.87 0 0 1-.88-.18.88.88 0 0 1-.26-.86c.1-.73.5-.9 1.22-.73.09.02.18.02.27 0-.12-.07-.12-.2-.12-.2a1.2 1.2 0 0 0-1.41.26z"/><path id="dxmkR" d="M92.33 1073.44a1.44 1.44 0 0 0 0 1.72c.37.42.97.51 1.45.24.12-.04.12-.22.12-.22l-.1-.03h-.29a.87.87 0 0 1-.88-.18.88.88 0 0 1-.26-.86c.1-.73.5-.9 1.22-.73.09.02.18.02.27 0-.12-.07-.12-.2-.12-.2a1.2 1.2 0 0 0-1.41.26z"/><path id="dxmkbK" d="M91.28 1076.33h3.4v-4.04h-3.4z"/><path id="dxmkbL" d="M112.13 1075.08c-.13.18-.17.3-.24.35-.46.24-1.02.12-1.36-.27a1.51 1.51 0 0 1 0-1.7c.34-.4.9-.52 1.37-.27 0 0 0 .14.14.21a.9.9 0 0 1-.29 0 .84.84 0 0 0-.92.18c-.25.29-.32.7-.19 1.07.05.2.17.38.34.5.18.1.39.14.59.09z"/><path id="dxmkS" d="M110.53 1073.46c-.35.51-.35 1.2 0 1.7.34.4.9.5 1.36.27.07-.06.1-.17.24-.35l-.56.16c-.2.05-.41.02-.59-.1a.79.79 0 0 1-.34-.5c-.13-.36-.06-.77.2-1.06.24-.24.6-.31.91-.18.1.02.2.02.29 0-.14-.07-.14-.21-.14-.21a1.1 1.1 0 0 0-1.37.27z"/><path id="dxmkT" d="M110.53 1073.46c-.35.51-.35 1.2 0 1.7.34.4.9.5 1.36.27.07-.06.1-.17.24-.35l-.56.16c-.2.05-.41.02-.59-.1a.79.79 0 0 1-.34-.5c-.13-.36-.06-.77.2-1.06.24-.24.6-.31.91-.18.1.02.2.02.29 0-.14-.07-.14-.21-.14-.21a1.1 1.1 0 0 0-1.37.27z"/><path id="dxmkbO" d="M109.51 1076.33h3.4v-4.04h-3.4z"/><path id="dxmkbP" d="M112.63 1073.27l.27-.57.11-.14s.14 0 .15.15c.02.12.02.24 0 .35h.71v.16l-.8.15v1.43c0 .48.44.29.8.29 0 .1 0 .2-.13.25a.62.62 0 0 1-.64 0 .64.64 0 0 1-.32-.54v-.81c0-.27.12-.5-.15-.72"/><path id="dxmkU" d="M112.9 1072.7l-.27.57c.27.22.15.45.15.72v.8c0 .24.13.45.32.56.2.1.44.1.64-.01.13-.04.13-.16.13-.25-.36 0-.8.19-.8-.3v-1.42l.8-.15v-.16h-.7v-.35c-.02-.15-.16-.15-.16-.15a.78.78 0 0 0-.11.14z"/><path id="dxmkV" d="M112.9 1072.7l-.27.57c.27.22.15.45.15.72v.8c0 .24.13.45.32.56.2.1.44.1.64-.01.13-.04.13-.16.13-.25-.36 0-.8.19-.8-.3v-1.42l.8-.15v-.16h-.7a1.7 1.7 0 0 0 0-.35c-.02-.15-.16-.15-.16-.15a.78.78 0 0 0-.11.14z"/><path id="dxmkbS" d="M111.86 1076.2h2.78v-4.41h-2.78z"/><path id="dxmkbT" d="M86.92 1073.14v2.41c-.31-.17-.58-.24-.58-.32v-1.9l.38-.27z"/><path id="dxmkW" d="M86.35 1073.33v1.9c0 .08.27.15.57.32v-2.41l-.19-.08-.38.27z"/><path id="dxmkbV" d="M-148.93 1735.95h684.62V958.53h-684.62z"/><path id="dxmkX" d="M86.35 1073.33v1.9c0 .08.27.15.57.32v-2.41l-.19-.08-.38.27z"/><path id="dxmkbX" d="M85.56 1076.33h1.96v-4.04h-1.96z"/><path id="dxmkbY" d="M119.7 1075.37c-.17.14-.3.29-.38.26a.4.4 0 0 1-.24-.3s.17-.27.26-.27c.08 0 .19.17.36.31"/><path id="dxmkY" d="M119.08 1075.32a.4.4 0 0 0 .24.31c.08.03.2-.12.38-.26-.17-.14-.28-.31-.36-.31-.09 0-.26.26-.26.26z"/><path id="dxmkZ" d="M119.08 1075.32a.4.4 0 0 0 .24.31c.08.03.2-.12.38-.26-.17-.14-.28-.31-.36-.31-.09 0-.26.26-.26.26z"/><path id="dxmkcb" d="M118.31 1076.33h2.16v-2.04h-2.16z"/><clipPath id="dxmkab"><use xlink:href="#dxmka"/></clipPath><clipPath id="dxmkad"><use xlink:href="#dxmkb"/></clipPath><clipPath id="dxmkag"><use xlink:href="#dxmkc"/></clipPath><clipPath id="dxmkah"><use xlink:href="#dxmkd"/></clipPath><clipPath id="dxmkak"><use xlink:href="#dxmke"/></clipPath><clipPath id="dxmkal"><use xlink:href="#dxmkf"/></clipPath><clipPath id="dxmkao"><use xlink:href="#dxmkg"/></clipPath><clipPath id="dxmkap"><use xlink:href="#dxmkh"/></clipPath><clipPath id="dxmkas"><use xlink:href="#dxmki"/></clipPath><clipPath id="dxmkat"><use xlink:href="#dxmkj"/></clipPath><clipPath id="dxmkaw"><use xlink:href="#dxmkk"/></clipPath><clipPath id="dxmkax"><use xlink:href="#dxmkl"/></clipPath><clipPath id="dxmkaA"><use xlink:href="#dxmkm"/></clipPath><clipPath id="dxmkaB"><use xlink:href="#dxmkn"/></clipPath><clipPath id="dxmkaE"><use xlink:href="#dxmko"/></clipPath><clipPath id="dxmkaF"><use xlink:href="#dxmkp"/></clipPath><clipPath id="dxmkaI"><use xlink:href="#dxmkq"/></clipPath><clipPath id="dxmkaJ"><use xlink:href="#dxmkr"/></clipPath><clipPath id="dxmkaM"><use xlink:href="#dxmks"/></clipPath><clipPath id="dxmkaN"><use xlink:href="#dxmkt"/></clipPath><clipPath id="dxmkaQ"><use xlink:href="#dxmku"/></clipPath><clipPath id="dxmkaR"><use xlink:href="#dxmkv"/></clipPath><clipPath id="dxmkaU"><use xlink:href="#dxmkw"/></clipPath><clipPath id="dxmkaV"><use xlink:href="#dxmkx"/></clipPath><clipPath id="dxmkaY"><use xlink:href="#dxmky"/></clipPath><clipPath id="dxmkaZ"><use xlink:href="#dxmkz"/></clipPath><clipPath id="dxmkbc"><use xlink:href="#dxmkA"/></clipPath><clipPath id="dxmkbd"><use xlink:href="#dxmkB"/></clipPath><clipPath id="dxmkbg"><use xlink:href="#dxmkC"/></clipPath><clipPath id="dxmkbh"><use xlink:href="#dxmkD"/></clipPath><clipPath id="dxmkbk"><use xlink:href="#dxmkE"/></clipPath><clipPath id="dxmkbl"><use xlink:href="#dxmkF"/></clipPath><clipPath id="dxmkbo"><use xlink:href="#dxmkG"/></clipPath><clipPath id="dxmkbp"><use xlink:href="#dxmkH"/></clipPath><clipPath id="dxmkbs"><use xlink:href="#dxmkI"/></clipPath><clipPath id="dxmkbt"><use xlink:href="#dxmkJ"/></clipPath><clipPath id="dxmkbw"><use xlink:href="#dxmkK"/></clipPath><clipPath id="dxmkbx"><use xlink:href="#dxmkL"/></clipPath><clipPath id="dxmkbA"><use xlink:href="#dxmkM"/></clipPath><clipPath id="dxmkbB"><use xlink:href="#dxmkN"/></clipPath><clipPath id="dxmkbE"><use xlink:href="#dxmkO"/></clipPath><clipPath id="dxmkbF"><use xlink:href="#dxmkP"/></clipPath><clipPath id="dxmkbI"><use xlink:href="#dxmkQ"/></clipPath><clipPath id="dxmkbJ"><use xlink:href="#dxmkR"/></clipPath><clipPath id="dxmkbM"><use xlink:href="#dxmkS"/></clipPath><clipPath id="dxmkbN"><use xlink:href="#dxmkT"/></clipPath><clipPath id="dxmkbQ"><use xlink:href="#dxmkU"/></clipPath><clipPath id="dxmkbR"><use xlink:href="#dxmkV"/></clipPath><clipPath id="dxmkbU"><use xlink:href="#dxmkW"/></clipPath><clipPath id="dxmkbW"><use xlink:href="#dxmkX"/></clipPath><clipPath id="dxmkbZ"><use xlink:href="#dxmkY"/></clipPath><clipPath id="dxmkca"><use xlink:href="#dxmkZ"/></clipPath></defs><g><g transform="translate(-47 -1051)"><g><use fill="#f9f9f9" xlink:href="#dxmkaa"/></g><g><g/><g clip-path="url(#dxmkab)"><use fill="#f9f9f9" xlink:href="#dxmkac"/></g></g><g><g/><g clip-path="url(#dxmkad)"><use fill="#f9f9f9" xlink:href="#dxmkae"/></g></g><g><use fill="#f9f9f9" xlink:href="#dxmkaf"/></g><g><g/><g clip-path="url(#dxmkag)"><use fill="#f9f9f9" xlink:href="#dxmkac"/></g></g><g><g/><g clip-path="url(#dxmkah)"><use fill="#f9f9f9" xlink:href="#dxmkai"/></g></g><g><use fill="#f9f9f9" xlink:href="#dxmkaj"/></g><g><g/><g clip-path="url(#dxmkak)"><use fill="#f9f9f9" xlink:href="#dxmkac"/></g></g><g><g/><g clip-path="url(#dxmkal)"><use fill="#f9f9f9" xlink:href="#dxmkam"/></g></g><g><use fill="#f9f9f9" xlink:href="#dxmkan"/></g><g><g/><g clip-path="url(#dxmkao)"><use fill="#f9f9f9" xlink:href="#dxmkac"/></g></g><g><g/><g clip-path="url(#dxmkap)"><use fill="#f9f9f9" xlink:href="#dxmkaq"/></g></g><g><use fill="#f9f9f9" xlink:href="#dxmkar"/></g><g><g/><g clip-path="url(#dxmkas)"><use fill="#f9f9f9" xlink:href="#dxmkac"/></g></g><g><g/><g clip-path="url(#dxmkat)"><use fill="#f9f9f9" xlink:href="#dxmkau"/></g></g><g><use fill="#f9f9f9" xlink:href="#dxmkav"/></g><g><g/><g clip-path="url(#dxmkaw)"><use fill="#f9f9f9" xlink:href="#dxmkac"/></g></g><g><g/><g clip-path="url(#dxmkax)"><use fill="#f9f9f9" xlink:href="#dxmkay"/></g></g><g><use fill="#f9f9f9" xlink:href="#dxmkaz"/></g><g><g/><g clip-path="url(#dxmkaA)"><use fill="#f9f9f9" xlink:href="#dxmkac"/></g></g><g><g/><g clip-path="url(#dxmkaB)"><use fill="#f9f9f9" xlink:href="#dxmkaC"/></g></g><g><use fill="#f9f9f9" xlink:href="#dxmkaD"/></g><g><g/><g clip-path="url(#dxmkaE)"><use fill="#f9f9f9" xlink:href="#dxmkac"/></g></g><g><g/><g clip-path="url(#dxmkaF)"><use fill="#f9f9f9" xlink:href="#dxmkaG"/></g></g><g><use fill="#f9f9f9" xlink:href="#dxmkaH"/></g><g><g/><g clip-path="url(#dxmkaI)"><use fill="#f9f9f9" xlink:href="#dxmkac"/></g></g><g><g/><g clip-path="url(#dxmkaJ)"><use fill="#f9f9f9" xlink:href="#dxmkaK"/></g></g><g><use fill="#f9f9f9" xlink:href="#dxmkaL"/></g><g><g/><g clip-path="url(#dxmkaM)"><use fill="#f9f9f9" xlink:href="#dxmkac"/></g></g><g><g/><g clip-path="url(#dxmkaN)"><use fill="#f9f9f9" xlink:href="#dxmkaO"/></g></g><g><use fill="#f9f9f9" xlink:href="#dxmkaP"/></g><g><g/><g clip-path="url(#dxmkaQ)"><use fill="#f9f9f9" xlink:href="#dxmkac"/></g></g><g><g/><g clip-path="url(#dxmkaR)"><use fill="#f9f9f9" xlink:href="#dxmkaS"/></g></g><g><use fill="#f9f9f9" xlink:href="#dxmkaT"/></g><g><g/><g clip-path="url(#dxmkaU)"><use fill="#f9f9f9" xlink:href="#dxmkac"/></g></g><g><g/><g clip-path="url(#dxmkaV)"><use fill="#f9f9f9" xlink:href="#dxmkaW"/></g></g><g><use fill="#f9f9f9" xlink:href="#dxmkaX"/></g><g><g/><g clip-path="url(#dxmkaY)"><use fill="#f9f9f9" xlink:href="#dxmkac"/></g></g><g><g/><g clip-path="url(#dxmkaZ)"><use fill="#f9f9f9" xlink:href="#dxmkba"/></g></g><g><use fill="#f9f9f9" xlink:href="#dxmkbb"/></g><g><g/><g clip-path="url(#dxmkbc)"><use fill="#f9f9f9" xlink:href="#dxmkac"/></g></g><g><g/><g clip-path="url(#dxmkbd)"><use fill="#f9f9f9" xlink:href="#dxmkbe"/></g></g><g><use fill="#f9f9f9" xlink:href="#dxmkbf"/></g><g><g/><g clip-path="url(#dxmkbg)"><use fill="#f9f9f9" xlink:href="#dxmkac"/></g></g><g><g/><g clip-path="url(#dxmkbh)"><use fill="#f9f9f9" xlink:href="#dxmkbi"/></g></g><g><use fill="#f9f9f9" xlink:href="#dxmkbj"/></g><g><g/><g clip-path="url(#dxmkbk)"><use fill="#f9f9f9" xlink:href="#dxmkac"/></g></g><g><g/><g clip-path="url(#dxmkbl)"><use fill="#f9f9f9" xlink:href="#dxmkbm"/></g></g><g><use fill="#f9f9f9" xlink:href="#dxmkbn"/></g><g><g/><g clip-path="url(#dxmkbo)"><use fill="#f9f9f9" xlink:href="#dxmkac"/></g></g><g><g/><g clip-path="url(#dxmkbp)"><use fill="#f9f9f9" xlink:href="#dxmkbq"/></g></g><g><use fill="#f9f9f9" xlink:href="#dxmkbr"/></g><g><g/><g clip-path="url(#dxmkbs)"><use fill="#f9f9f9" xlink:href="#dxmkac"/></g></g><g><g/><g clip-path="url(#dxmkbt)"><use fill="#f9f9f9" xlink:href="#dxmkbu"/></g></g><g><use fill="#f9f9f9" xlink:href="#dxmkbv"/></g><g><g/><g clip-path="url(#dxmkbw)"><use fill="#f9f9f9" xlink:href="#dxmkac"/></g></g><g><g/><g clip-path="url(#dxmkbx)"><use fill="#f9f9f9" xlink:href="#dxmkby"/></g></g><g><use fill="#f9f9f9" xlink:href="#dxmkbz"/></g><g><g/><g clip-path="url(#dxmkbA)"><use fill="#f9f9f9" xlink:href="#dxmkac"/></g></g><g><g/><g clip-path="url(#dxmkbB)"><use fill="#f9f9f9" xlink:href="#dxmkbC"/></g></g><g><use fill="#f9f9f9" xlink:href="#dxmkbD"/></g><g><g/><g clip-path="url(#dxmkbE)"><use fill="#f9f9f9" xlink:href="#dxmkac"/></g></g><g><g/><g clip-path="url(#dxmkbF)"><use fill="#f9f9f9" xlink:href="#dxmkbG"/></g></g><g><use fill="#f9f9f9" xlink:href="#dxmkbH"/></g><g><g/><g clip-path="url(#dxmkbI)"><use fill="#f9f9f9" xlink:href="#dxmkac"/></g></g><g><g/><g clip-path="url(#dxmkbJ)"><use fill="#f9f9f9" xlink:href="#dxmkbK"/></g></g><g><use fill="#f9f9f9" xlink:href="#dxmkbL"/></g><g><g/><g clip-path="url(#dxmkbM)"><use fill="#f9f9f9" xlink:href="#dxmkac"/></g></g><g><g/><g clip-path="url(#dxmkbN)"><use fill="#f9f9f9" xlink:href="#dxmkbO"/></g></g><g><use fill="#f9f9f9" xlink:href="#dxmkbP"/></g><g><g/><g clip-path="url(#dxmkbQ)"><use fill="#f9f9f9" xlink:href="#dxmkac"/></g></g><g><g/><g clip-path="url(#dxmkbR)"><use fill="#f9f9f9" xlink:href="#dxmkbS"/></g></g><g><use fill="#f9f9f9" xlink:href="#dxmkbT"/></g><g><g/><g clip-path="url(#dxmkbU)"><use fill="#f9f9f9" xlink:href="#dxmkbV"/></g></g><g><g/><g clip-path="url(#dxmkbW)"><use fill="#f9f9f9" xlink:href="#dxmkbX"/></g></g><g><use fill="#f9f9f9" xlink:href="#dxmkbY"/></g><g><g/><g clip-path="url(#dxmkbZ)"><use fill="#f9f9f9" xlink:href="#dxmkac"/></g></g><g><g/><g clip-path="url(#dxmkca)"><use fill="#f9f9f9" xlink:href="#dxmkcb"/></g></g></g></g></svg>