<svg xmlns="http://www.w3.org/2000/svg" xmlns:xlink="http://www.w3.org/1999/xlink" width="78" height="64" viewBox="0 0 78 64"><defs><path id="8ttqa" d="M506 373a29.38 29.38 0 0 0-36 36 29.38 29.38 0 0 0 36-36z"/><path id="8ttqb" d="M432 373a29.38 29.38 0 0 0 36 36 29.38 29.38 0 0 0-36-36z"/><path id="8ttqc" d="M468.5 348a35.24 35.24 0 0 0-17.5 30.5c0 13.04 7.04 24.4 17.5 30.5a35.24 35.24 0 0 0 17.5-30.5c0-13.04-7.04-24.4-17.5-30.5z"/></defs><g><g transform="translate(-430 -347)"><g><use fill="#fff" fill-opacity="0" stroke="#444752" stroke-miterlimit="50" stroke-width="2" xlink:href="#8ttqa"/></g><g><use fill="#fff" fill-opacity="0" stroke="#444752" stroke-miterlimit="50" stroke-width="2" xlink:href="#8ttqb"/></g><g><use fill="#fff" fill-opacity="0" stroke="#444752" stroke-miterlimit="50" stroke-width="2" xlink:href="#8ttqc"/></g></g></g></svg>