<svg xmlns="http://www.w3.org/2000/svg" xmlns:xlink="http://www.w3.org/1999/xlink" width="66" height="65" viewBox="0 0 66 65"><defs><path id="byh5a" d="M606.73 702v-51h48.54v51zm23.36-48.39a9.6 9.6 0 0 0-6.8 2.8l-11.77 11.78a9.62 9.62 0 0 0 0 13.6l6.75 6.74 1.98 1.98.94.95 7.19 7.18c.27.27.77.43 1.36.43.8 0 1.75-.3 2.45-1a3.1 3.1 0 0 0 0-4.38.86.86 0 0 1-.21-.4l-.12-.12a.86.86 0 0 1 1.2-1.22l2.2 2.12c.28.27.78.43 1.37.43.8 0 1.75-.3 2.45-1a3.1 3.1 0 0 0 0-4.38.86.86 0 0 1-.23-.39l-.12-.12a.86.86 0 0 1 1.21-1.2l1.57 1.55.2.2a3.09 3.09 0 0 0 4.39-.2 3.1 3.1 0 0 0-.2-4.39.86.86 0 0 1-.22-.4l-.12-.12a.86.86 0 0 1 1.21-1.21l1.56 1.56a3.09 3.09 0 1 0 4.35-4.38l-18.04-18.04a.86.86 0 0 1 1.21-1.21l.9.85 2.54-2.86-2.4-2.34a9.6 9.6 0 0 0-6.8-2.81z"/><path id="byh5b" d="M607.52 702.41V684.6h15.96v17.82zm14.22-7.55l-2.92-2.92-4.89-4.88-2.82 2.82-.2.2a5.4 5.4 0 0 0 .38 7.8 5.41 5.41 0 0 0 7.65-.17z"/><path id="byh5c" d="M635.6 673.41V636.6h36.8v36.82zm15.01-6.63c1.5.57 3.1.87 4.7.86a14.32 14.32 0 0 0 14.13-14.16 13.84 13.84 0 0 0-1.28-5.64l-.4-.95-8.3 8.3a4.14 4.14 0 0 1-5.86-5.85l8.3-8.3-.94-.4a13.87 13.87 0 0 0-5.65-1.28c-7.75.12-14 6.38-14.1 14.13 0 1.6.3 3.2.86 4.7.12.32.04.67-.2.9l-3.54 3.73 7.83 7.83 3.83-3.84c.25-.21.32-.16.62-.03z"/><path id="byh5d" d="M636.88 656.42l2.41 2.34-2.54 2.86-.9-.85a.86.86 0 0 0-1.21.1.86.86 0 0 0 0 1.1l18.04 18.05a3.09 3.09 0 1 1-4.35 4.38l-1.56-1.56a.86.86 0 0 0-1.21.1.86.86 0 0 0 0 1.11l.12.12c.03.15.1.3.21.4a3.1 3.1 0 1 1-4.38 4.39l-1.57-1.56a.86.86 0 0 0-1.21 1.21l.12.12c.04.15.12.28.23.39a3.1 3.1 0 0 1 0 4.38c-.7.7-1.65 1-2.45 1-.59 0-1.1-.16-1.36-.43l-2.2-2.12a.86.86 0 0 0-1.21 1.22l.12.12c.03.15.1.29.21.4a3.1 3.1 0 0 1 0 4.38c-.7.7-1.65 1-2.45 1-.59 0-1.1-.16-1.36-.43l-7.19-7.18-.94-.95-1.98-1.98-6.75-6.75a9.62 9.62 0 0 1 0-13.59l11.77-11.77a9.6 9.6 0 0 1 13.6 0z"/><path id="byh5f" d="M618.94 697.71a5.41 5.41 0 0 1-7.83 0 5.4 5.4 0 0 1 0-7.83l2.82-2.82 4.9 4.88 2.91 2.92z"/><path id="byh5h" d="M649.99 666.81l-3.83 3.84-7.83-7.83 3.55-3.73a.86.86 0 0 0 .2-.9c-.58-1.5-.87-3.1-.87-4.7a14.32 14.32 0 0 1 14.1-14.13c1.95.02 3.88.46 5.65 1.28l.94.4-8.3 8.3a4.14 4.14 0 0 0 5.85 5.85l8.3-8.3.4.95c.83 1.77 1.26 3.7 1.29 5.64a14.32 14.32 0 0 1-14.13 14.16c-1.6 0-3.2-.29-4.7-.86-.3-.13-.37-.18-.62.03z"/><clipPath id="byh5e"><use fill="#fff" xlink:href="#byh5a"/></clipPath><clipPath id="byh5g"><use fill="#fff" xlink:href="#byh5b"/></clipPath><clipPath id="byh5i"><use fill="#fff" xlink:href="#byh5c"/></clipPath></defs><g><g transform="translate(-606 -637)"><g><use fill="#fff" fill-opacity="0" stroke="#444752" stroke-miterlimit="50" stroke-width="4" clip-path="url(&quot;#byh5e&quot;)" xlink:href="#byh5d"/></g><g><use fill="#fff" fill-opacity="0" stroke="#444752" stroke-miterlimit="50" stroke-width="4" clip-path="url(&quot;#byh5g&quot;)" xlink:href="#byh5f"/></g><g><use fill="#fff" fill-opacity="0" stroke="#444752" stroke-miterlimit="50" stroke-width="4" clip-path="url(&quot;#byh5i&quot;)" xlink:href="#byh5h"/></g></g></g></svg>