<svg xmlns="http://www.w3.org/2000/svg" xmlns:xlink="http://www.w3.org/1999/xlink" width="90" height="21" viewBox="0 0 90 21"><defs><path id="tbt4M" d="M108.69 1016.48h.22c.96-.15 1.09-.25 1.15-1.22.1-2.3.22-4.62.26-6.92 0-1.3 0-1.36-1.26-1.91h2.5c.1 0 .25.25.33.42l2.78 7.13c0 .2.17.38.32.69.2-.48.38-.82.5-1.18.87-2.2 1.75-4.4 2.59-6.6.02-.15.1-.27.23-.36a.53.53 0 0 1 .4-.08h2.23c-1.3.48-1.39.57-1.35 1.9 0 2.37.23 4.74.28 7.12 0 .67.26 1 .92.97 0 0 .13 0 .19.16h-3.74s0-.12.1-.14c1.05-.23 1.11-.25 1.1-1.33 0-2.25-.12-4.5-.18-6.74h-.2l-3.39 8.42h-.16l-3.58-8.38v.29c0 2.08-.15 4.16-.16 6.22 0 1.24 0 1.24 1.25 1.62h-3.33z"/><path id="tbt4a" d="M109.06 1006.43c1.26.55 1.26.61 1.26 1.9-.04 2.31-.15 4.62-.27 6.93-.05.97-.18 1.07-1.14 1.22h-.22v.08h3.33c-1.25-.38-1.25-.38-1.25-1.62.01-2.06.16-4.14.16-6.22v-.29l3.58 8.37h.16l3.39-8.4h.2c.06 2.23.17 4.48.17 6.73.02 1.08-.04 1.1-1.08 1.33-.11.02-.11.13-.11.13h3.74c-.06-.15-.2-.15-.2-.15-.65.02-.9-.3-.9-.97-.06-2.38-.29-4.75-.29-7.11-.04-1.34.06-1.43 1.35-1.91h-2.23a.53.53 0 0 0-.4.08.55.55 0 0 0-.23.36c-.84 2.2-1.72 4.4-2.58 6.6-.13.36-.3.7-.5 1.18-.16-.3-.33-.5-.33-.69l-2.78-7.13c-.08-.17-.23-.42-.34-.42z"/><path id="tbt4O" d="M-257.52 1700.81h677.69V907.23h-677.69z"/><path id="tbt4b" d="M109.06 1006.43c1.26.55 1.26.61 1.26 1.9-.04 2.31-.15 4.62-.27 6.93-.05.97-.18 1.07-1.14 1.22h-.22v.08h3.33c-1.25-.38-1.25-.38-1.25-1.62.01-2.06.16-4.14.16-6.22v-.29l3.58 8.37h.16l3.39-8.4h.2c.06 2.23.17 4.48.17 6.73.02 1.08-.04 1.1-1.08 1.33-.11.02-.11.14-.11.14h3.74c-.06-.16-.2-.16-.2-.16-.65.02-.9-.3-.9-.97-.06-2.38-.29-4.75-.29-7.11-.04-1.34.06-1.43 1.35-1.91h-2.23a.53.53 0 0 0-.4.08.56.56 0 0 0-.23.36c-.84 2.2-1.72 4.4-2.58 6.6-.13.36-.3.7-.5 1.18-.16-.3-.33-.5-.33-.69l-2.78-7.13c-.08-.17-.23-.42-.34-.42z"/><path id="tbt4Q" d="M107.91 1017.6h13.84v-11.95h-13.84z"/><path id="tbt4R" d="M82.6 1006.55h3.56c-1.1.42-1.1.42-1.11 1.64v2.5c0 .43.15.64.56.64h3.97c.43 0 .58-.21.56-.63v-3.02c0-.6-.17-.96-.8-.96a.28.28 0 0 1-.22-.13h3.47c-.98.27-1.02.27-1.02 1.36v7.13c0 1.18 0 1.18 1.04 1.5h-3.6v-.13c.94-.19.94-.19.98-1.2.04-1.01 0-2.03 0-3.02 0-.5-.13-.73-.65-.73h-3.73c-.45 0-.62.2-.6.65v2.9c0 1 0 1.15 1.14 1.48h-3.59c1.02-.21 1.04-.21 1.04-1.28v-7.19c.06-1.1.04-1.1-1-1.51"/><path id="tbt4c" d="M82.6 1006.55c1.04.4 1.06.4 1 1.51v7.19c0 1.07-.02 1.07-1.04 1.28h3.59c-1.14-.33-1.14-.48-1.14-1.47v-2.9c-.02-.47.15-.66.6-.66h3.73c.52 0 .65.23.65.73 0 1 .04 2 0 3.02-.04 1.01-.04 1.01-.98 1.2v.14h3.6c-1.04-.33-1.04-.33-1.04-1.51v-7.13c0-1.1.04-1.1 1.02-1.36h-3.47c.05.08.13.13.22.13.63 0 .8.37.8.96v3.02c.02.42-.13.63-.56.63h-3.97c-.41 0-.56-.21-.56-.63v-2.5c.02-1.23.02-1.23 1.11-1.65z"/><path id="tbt4d" d="M82.6 1006.55c1.04.4 1.06.4 1 1.51v7.19c0 1.07-.02 1.07-1.04 1.28h3.59c-1.14-.33-1.14-.48-1.14-1.47v-2.9c-.02-.47.15-.66.6-.66h3.73c.52 0 .65.23.65.73 0 1 .04 2 0 3.02-.04 1.01-.04 1.01-.98 1.2v.14h3.6c-1.04-.33-1.04-.33-1.04-1.51v-7.13c0-1.1.04-1.1 1.02-1.36h-3.47c.05.08.13.13.22.13.63 0 .8.37.8.96v3.02c.02.42-.13.63-.56.63h-3.97c-.41 0-.56-.21-.56-.63v-2.5c.02-1.23.02-1.23 1.11-1.65z"/><path id="tbt4U" d="M81.78 1017.37h11.61v-11.61H81.78z"/><path id="tbt4V" d="M73.66 1009.48v2.29c0 .18.08.36.22.47a2.7 2.7 0 0 0 2.95-.97 3.4 3.4 0 0 0 .38-2.51c-.11-.64-.48-1.2-1-1.57a2.3 2.3 0 0 0-1.82-.33c-.41 0-.62.24-.64.68-.1.7-.1 1.43-.1 1.94zm-2.53 7.18c1.1-.42 1.12-.42 1.14-1.62v-6.94c0-1.19 0-1.19-1.22-1.55h3.88c.7 0 1.39.11 2.05.32 1.09.3 1.85 1.3 1.88 2.45.1 1.2-.54 2.34-1.62 2.86-.9.43-1.9.62-2.89.53h-.7v3.4c0 .13.23.3.38.34.3.06.59.14.87.25z"/><path id="tbt4e" d="M73.88 1012.24a2.69 2.69 0 0 0 2.95-.97 3.4 3.4 0 0 0 .38-2.51c-.11-.64-.48-1.2-1-1.57a2.3 2.3 0 0 0-1.82-.33c-.41 0-.62.24-.64.68-.1.7-.1 1.43-.1 1.94v2.29c0 .18.1.36.23.47zm-2.32-5.69h3.37c.7 0 1.39.11 2.05.32 1.09.3 1.85 1.3 1.88 2.45.1 1.2-.54 2.34-1.62 2.86-.9.43-1.9.62-2.89.53h-.7v3.4c0 .13.23.3.38.34.3.06.59.14.87.25l-3.78-.04c1.11-.42 1.13-.42 1.15-1.62v-6.94c0-1.19 0-1.19-1.22-1.55z"/><path id="tbt4f" d="M73.88 1012.24a2.68 2.68 0 0 0 2.95-.97 3.4 3.4 0 0 0 .38-2.51c-.11-.64-.48-1.2-1-1.57a2.3 2.3 0 0 0-1.82-.33c-.41 0-.62.24-.64.68-.1.7-.1 1.43-.1 1.94v2.29c0 .18.1.36.23.47zm-2.32-5.69h3.37c.7 0 1.39.11 2.05.32 1.09.3 1.85 1.3 1.88 2.45.1 1.2-.54 2.34-1.62 2.86-.9.43-1.9.62-2.89.53h-.7v3.4c0 .13.23.3.38.34.3.06.59.14.87.25l-3.78-.04c1.11-.42 1.13-.42 1.15-1.62v-6.94c0-1.19 0-1.19-1.22-1.55z"/><path id="tbt4Y" d="M70.27 1017.48h9.38v-11.72h-9.38z"/><path id="tbt4Z" d="M136.13 1008.72c-.08-.26-.18-.5-.31-.74-.27-.43-.6-.81-.96-1.14a1.65 1.65 0 0 0-2.2.17c-.58.7-.58 1.73 0 2.44.38.38.81.7 1.27.99.52.36 1.1.65 1.61 1 1.02.65 1.5 1.9 1.2 3.1a2.82 2.82 0 0 1-2.46 2.19 5.4 5.4 0 0 1-3.2-.42.67.67 0 0 1-.33-.46c-.08-.74-.08-1.49 0-2.23l.33.8a2.93 2.93 0 0 0 2.13 2.1c.77.2 1.58-.11 2.02-.8.5-.73.5-1.71 0-2.44-.41-.44-.87-.83-1.37-1.14-.58-.4-1.2-.71-1.85-1.11a2.37 2.37 0 0 1-1.06-2.5 2.47 2.47 0 0 1 1.85-2.06 4.33 4.33 0 0 1 2.98 0c.2.12.34.31.39.54 0 .51 0 1.07.11 1.58z"/><path id="tbt4g" d="M132.8 1006.47a2.47 2.47 0 0 0-1.85 2.06c-.2.98.23 1.98 1.06 2.5.65.4 1.27.7 1.85 1.1.5.32.96.7 1.37 1.15.5.73.5 1.71 0 2.44-.44.69-1.25 1-2.02.8a2.92 2.92 0 0 1-2.13-2.1l-.33-.8c-.08.74-.08 1.5 0 2.23.04.2.16.37.33.46 1 .46 2.12.61 3.2.42 1.2-.11 2.18-1 2.46-2.2a2.82 2.82 0 0 0-1.2-3.08c-.52-.36-1.09-.65-1.6-1.01a7.18 7.18 0 0 1-1.28-1 1.95 1.95 0 0 1 0-2.43 1.65 1.65 0 0 1 2.2-.17c.37.33.69.72.96 1.14.13.24.23.48.31.74l.15-.13c-.11-.51-.11-1.07-.11-1.58a.8.8 0 0 0-.39-.54 4.33 4.33 0 0 0-2.98 0z"/><path id="tbt4h" d="M132.8 1006.47a2.47 2.47 0 0 0-1.85 2.06c-.2.98.23 1.98 1.06 2.5.65.4 1.27.7 1.85 1.1.5.32.96.7 1.37 1.15.5.73.5 1.71 0 2.44-.44.68-1.25 1-2.02.8a2.92 2.92 0 0 1-2.13-2.1l-.33-.8a10.2 10.2 0 0 0 0 2.23c.04.2.16.37.33.46 1 .46 2.12.61 3.2.42 1.2-.11 2.18-1 2.46-2.2a2.82 2.82 0 0 0-1.2-3.08c-.52-.36-1.1-.65-1.6-1.01a7.18 7.18 0 0 1-1.28-1 1.95 1.95 0 0 1 0-2.43 1.64 1.64 0 0 1 2.2-.17c.37.33.69.72.96 1.14.13.24.23.48.31.74l.15-.13c-.11-.51-.11-1.07-.11-1.58a.8.8 0 0 0-.39-.54 4.33 4.33 0 0 0-2.98 0z"/><path id="tbt4ac" d="M129.91 1017.6h7.7v-12.18h-7.7z"/><path id="tbt4ad" d="M98.9 1012.09h2.73l-1.32-3.68h-.13zm-.36 4.5h-2.69c1-.18 1.33-1 1.63-1.8 1-2.63 1.98-5.3 2.98-7.93.03-.1.07-.19.12-.27 0-.13.2-.25.3-.38.11.11.22.24.3.38.46 1.3.91 2.6 1.36 3.8.45 1.2.97 2.77 1.5 4.16.33.9.55 1.9 1.86 1.9h-4.09l.65-.1c.41 0 .62-.24.49-.66a98.22 98.22 0 0 0-1-3.08.5.5 0 0 0-.4-.22h-2.32a.8.8 0 0 0-.56.43c-.3.72-.54 1.47-.78 2.23-.4 1.12-.4 1.12.65 1.54z"/><path id="tbt4i" d="M100.18 1008.41l-1.28 3.68h2.73l-1.32-3.68zm.4-1.82c0-.13.2-.25.3-.38.11.11.22.24.3.38.46 1.3.91 2.6 1.36 3.8.45 1.2.97 2.77 1.5 4.16.33.9.55 1.9 1.86 1.9h-4.09l.65-.1c.41 0 .62-.24.49-.66a100.1 100.1 0 0 0-1-3.08.5.5 0 0 0-.4-.22h-2.32a.8.8 0 0 0-.56.43c-.3.72-.54 1.47-.78 2.23-.4 1.12-.4 1.12.65 1.54h-2.69c1-.18 1.33-1 1.63-1.8 1-2.63 1.98-5.3 2.98-7.93.03-.1.07-.19.12-.27z"/><path id="tbt4j" d="M100.18 1008.41l-1.28 3.68h2.73l-1.32-3.68zm.4-1.82c0-.13.2-.25.3-.38.11.11.22.24.3.38.46 1.3.91 2.6 1.36 3.8.45 1.2.97 2.77 1.5 4.16.33.9.55 1.9 1.86 1.9h-4.09l.65-.1c.41 0 .62-.24.49-.66-.32-1.02-.65-2.05-1-3.08a.5.5 0 0 0-.4-.22h-2.32a.8.8 0 0 0-.56.43c-.3.72-.54 1.47-.78 2.23-.4 1.12-.4 1.12.65 1.54h-2.69c1-.18 1.33-1 1.63-1.8 1-2.63 1.98-5.3 2.98-7.93.03-.1.07-.19.12-.27z"/><path id="tbt4ag" d="M95.07 1017.37h11.61v-11.95H95.07z"/><path id="tbt4ah" d="M62.53 1008.44h-.11l-1.38 3.67h2.82zm5.5 8.13h-4.06v-.14h.6c.44 0 .63-.26.5-.7-.32-1-.63-2-.99-3a.58.58 0 0 0-.45-.25h-2.31c-.22.05-.4.2-.5.4-.3.73-.55 1.5-.81 2.27-.36 1.04-.32 1.1.7 1.44H58c1.33-.2 1.5-1.42 1.87-2.37.95-2.46 1.81-4.89 2.73-7.31.03-.13.08-.26.15-.38.08-.12.18-.22.3-.32 0 .11.22.2.26.32.43 1.18.82 2.37 1.25 3.54l1.73 4.81c.3.83.62 1.65 1.87 1.52z"/><path id="tbt4k" d="M62.42 1008.44l-1.38 3.67h2.82l-1.33-3.67zm.31-1.9l.3-.33c0 .11.23.2.27.32.43 1.18.82 2.37 1.25 3.54l1.73 4.81c.3.83.62 1.65 1.87 1.52l-.13.17h-4.05v-.14h.6c.44 0 .63-.26.5-.7-.32-1-.64-2-.99-3a.58.58 0 0 0-.45-.25h-2.32c-.21.05-.4.2-.5.4-.3.73-.54 1.5-.8 2.27-.36 1.04-.32 1.1.7 1.44H58c1.33-.2 1.5-1.42 1.87-2.37.95-2.46 1.81-4.89 2.73-7.3.03-.14.08-.27.14-.39z"/><path id="tbt4l" d="M62.42 1008.44l-1.39 3.67h2.84l-1.34-3.67zm.31-1.9l.3-.33c0 .11.23.2.27.32.43 1.18.82 2.37 1.25 3.54l1.73 4.81c.3.83.62 1.65 1.87 1.52l-.13.17h-4.05v-.14h.6c.44 0 .63-.26.5-.7-.32-1-.64-2-.99-3a.58.58 0 0 0-.45-.25h-2.32c-.21.05-.4.2-.5.4-.3.73-.54 1.5-.8 2.27-.36 1.04-.32 1.1.7 1.44H58c1.33-.2 1.5-1.42 1.87-2.37.95-2.46 1.81-4.89 2.73-7.3.03-.14.08-.27.14-.39z"/><path id="tbt4ak" d="M57.21 1017.37h11.72v-11.95H57.21z"/><path id="tbt4al" d="M51.1 1006.56c-.92.35-.96.35-.96 1.42v7.51c0 .5.18.75.67.75h.85c2.15 0 2.54-.27 3.31-2.33 0 0 0-.14.23-.17-.11.9-.23 1.79-.36 2.67 0 0-.2.17-.31.17h-6.9v-.13c1-.27 1.03-.27 1.03-1.36v-7.46c0-.65-.13-1.09-.86-1.07 0 0-.12 0-.31-.13z"/><path id="tbt4m" d="M47.8 1006.56c.73-.02.86.42.86 1.07v7.46c0 1.09-.02 1.09-1.02 1.36v.13h6.89c.11 0 .31-.17.31-.17.13-.88.25-1.78.36-2.67-.23.03-.23.17-.23.17-.77 2.06-1.16 2.33-3.31 2.33h-.85c-.49 0-.67-.25-.67-.75v-7.52c0-1.06.04-1.06.96-1.4l-3.61-.14a.6.6 0 0 0 .32.13z"/><path id="tbt4n" d="M47.8 1006.56c.73-.02.86.42.86 1.07v7.46c0 1.09-.02 1.09-1.02 1.36v.13h6.89c.11 0 .31-.17.31-.17.13-.88.25-1.78.36-2.67-.23.03-.23.17-.23.17-.77 2.06-1.16 2.33-3.31 2.33h-.85c-.49 0-.67-.25-.67-.75v-7.51c0-1.07.04-1.07.96-1.42l-3.61-.13a.6.6 0 0 0 .32.13z"/><path id="tbt4ao" d="M46.71 1017.37h9.27v-11.72H46.7z"/><path id="tbt4ap" d="M51.13 1023.66a7.72 7.72 0 0 0-.66-1.53 1.22 1.22 0 0 0-1.89 0c-.55.93-.52 2.1.06 3 .27.4.73.62 1.2.56.49-.05.9-.39 1.03-.86.1-.38.2-.77.26-1.17zm-1.06 2.11c.27.62.89 1 1.55.96-.76.28-1.6.03-2.11-.61a1.6 1.6 0 0 0-.6-.48 2.18 2.18 0 0 1-1.27-2.42 2.1 2.1 0 0 1 1.89-1.78c.92-.08 1.78.5 2.07 1.4.35.96-.02 2.05-.88 2.59z"/><path id="tbt4o" d="M48.64 1025.14a1.26 1.26 0 0 0 1.2.55c.49-.05.9-.39 1.03-.86.1-.38.2-.77.26-1.17a7.72 7.72 0 0 0-.66-1.53 1.22 1.22 0 0 0-1.89 0c-.55.93-.52 2.1.06 3zm.89-3.7l.16-.01c.86 0 1.64.56 1.91 1.4.35.97-.02 2.06-.88 2.6l-.65.34c.27.62.89 1 1.55.96-.76.28-1.6.03-2.11-.61a1.6 1.6 0 0 0-.6-.48 2.18 2.18 0 0 1-1.27-2.42 2.1 2.1 0 0 1 1.89-1.78z"/><path id="tbt4p" d="M48.64 1025.14a1.26 1.26 0 0 0 1.2.55c.49-.05.9-.39 1.03-.86.1-.38.2-.77.26-1.17a7.72 7.72 0 0 0-.66-1.53 1.22 1.22 0 0 0-1.89 0c-.55.93-.52 2.1.06 3zm.89-3.7l.16-.01c.86 0 1.64.56 1.91 1.4.35.97-.02 2.06-.88 2.6l-.65.34c.27.62.89 1 1.55.96-.76.28-1.6.03-2.11-.61-.16-.21-.37-.37-.6-.48a2.17 2.17 0 0 1-1.27-2.42 2.1 2.1 0 0 1 1.89-1.78z"/><path id="tbt4as" d="M46.82 1027.64h5.7v-6.99h-5.7z"/><path id="tbt4at" d="M81.97 1023.74c.46-.18.91-.2 1.1-.45.19-.34.24-.74.16-1.12 0-.43-.48-.54-.9-.52-.42.02-.34.4-.36.67-.02.28 0 .8 0 1.42zm-.62-2.19h.96c.89 0 1.4.23 1.57.75.17.52 0 .83-.85 1.4l1.2 1.94c-.58.15-.58.15-.92-.43-.18-.35-.38-.7-.6-1.02-.22-.2-.46-.37-.72-.5v1.93h-.66z"/><path id="tbt4q" d="M81.99 1023.72v-.03l.04.02-.04.01zm-.64-2.17h.96c.89 0 1.4.23 1.57.75.16.52 0 .83-.85 1.4l1.2 1.94c-.58.15-.58.15-.92-.43-.18-.35-.38-.7-.6-1.02a3.3 3.3 0 0 0-.68-.48c.43-.16.85-.19 1.03-.43.19-.34.24-.73.16-1.11 0-.43-.48-.54-.89-.52-.42.02-.34.4-.36.67-.02.27 0 .8 0 1.4H82v1.9h-.66z"/><path id="tbt4r" d="M81.99 1023.72v-.03l.04.02-.04.01zm-.64-2.17h.96c.89 0 1.4.23 1.57.75.16.52 0 .83-.85 1.4l1.2 1.94c-.58.15-.58.15-.92-.43a8.9 8.9 0 0 0-.6-1.02c-.21-.19-.44-.35-.68-.48.43-.16.85-.19 1.03-.43.19-.34.24-.73.16-1.11 0-.43-.48-.54-.89-.52-.42.02-.34.4-.36.67-.02.27 0 .8 0 1.4H82v1.9h-.66z"/><path id="tbt4aw" d="M80.55 1026.5h4.46v-5.74h-4.46z"/><path id="tbt4ax" d="M113.9 1023.52c.42 0 .82.15 1.1-.27a1 1 0 0 0 0-1.22c-.22-.2-.49-.32-.78-.37 0 0-.31.2-.33.31l.02 1.56zm2.27 2.04a.72.72 0 0 1-.6-.03.74.74 0 0 1-.37-.47c-.19-.4-.41-.76-.67-1.1-.1-.14-.32-.16-.5-.23-.07.14-.13.3-.16.45v1.34h-.6v-3.97h1.09c.76 0 1.29.27 1.42.78.13.52 0 .88-.88 1.36z"/><path id="tbt4s" d="M113.89 1021.97l.02 1.56v-.01c.4 0 .81.15 1.1-.27a1 1 0 0 0 0-1.22c-.23-.2-.5-.32-.79-.37 0 0-.31.2-.33.3zm-.62-.42h1.09c.76 0 1.29.27 1.42.78.13.52 0 .88-.88 1.36l1.27 1.87a.72.72 0 0 1-.6-.03.74.74 0 0 1-.37-.47c-.19-.4-.41-.76-.67-1.1-.1-.14-.32-.16-.5-.23-.07.14-.13.3-.16.45v1.34h-.6z"/><path id="tbt4t" d="M113.89 1021.97l.02 1.56v-.01c.4 0 .81.15 1.1-.27a1 1 0 0 0 0-1.22 1.5 1.5 0 0 0-.79-.37s-.31.2-.33.31zm-.62-.42h1.09c.76 0 1.29.27 1.42.78.13.52 0 .88-.88 1.36l1.27 1.87a.72.72 0 0 1-.6-.03.74.74 0 0 1-.37-.47 6.1 6.1 0 0 0-.67-1.1c-.1-.14-.32-.16-.5-.23-.07.14-.13.3-.16.45v1.34h-.6z"/><path id="tbt4aA" d="M112.49 1026.4h4.46v-5.64h-4.46z"/><path id="tbt4aB" d="M59.33 1021.55h.78a8.1 8.1 0 0 0 0 3.16c.16.6.7.69 1.22.67.49.01.9-.36.96-.86v-2.65c0-.11-.13-.2-.2-.32h.6c-.09.23-.14.46-.18.7v1.9c.03.42-.12.84-.42 1.15-.3.3-.71.45-1.13.42a1.4 1.4 0 0 1-1.12-.44c-.3-.3-.44-.73-.4-1.15v-2.24c0-.15-.05-.2-.11-.34"/><path id="tbt4u" d="M62.09 1021.55c.07.11.2.2.2.32v2.65a.95.95 0 0 1-.96.86c-.52.02-1.06-.08-1.22-.67a8.1 8.1 0 0 1 0-3.16h-.78c.06.13.11.19.11.34v2.24c-.04.42.1.84.4 1.15.3.3.7.47 1.12.44.42.03.83-.12 1.13-.42.3-.3.45-.73.42-1.15v-1.9c.04-.24.1-.47.17-.7z"/><path id="tbt4v" d="M62.09 1021.55c.07.11.2.2.2.32v2.65a.95.95 0 0 1-.96.86c-.52.02-1.06-.08-1.22-.67a8.1 8.1 0 0 1 0-3.16h-.78c.06.13.11.19.11.34v2.24c-.04.42.1.85.4 1.15.3.3.7.47 1.12.44.42.03.83-.12 1.13-.42.3-.3.45-.73.42-1.15v-1.9c.04-.24.1-.47.17-.7z"/><path id="tbt4aE" d="M58.55 1026.5h4.91v-5.74h-4.91z"/><path id="tbt4aF" d="M103.4 1023.49l1.23-.29v.62c-.2-.12-.42-.22-.65-.3-.4 0-.63 0-.58.53v.11c0 .4-.24.96.3 1.2a1.5 1.5 0 0 0 1.86-.77l-.15.9h-2.64v-3.94h2.35v.71c-.18-.2-.38-.36-.6-.5-.88-.36-1.23 0-1.25.84.13.27.13.55.13.89"/><path id="tbt4w" d="M102.77 1021.55v3.95h2.64l.15-.9a1.5 1.5 0 0 1-1.86.77c-.54-.25-.3-.81-.3-1.2v-.12c-.05-.53.19-.53.58-.53.23.08.45.18.65.3v-.62l-1.23.29c0-.34 0-.62-.13-.89.02-.84.37-1.2 1.25-.84.22.14.42.3.6.5v-.71z"/><path id="tbt4x" d="M102.77 1021.55v3.95h2.64l.15-.9a1.5 1.5 0 0 1-1.86.77c-.54-.25-.3-.81-.3-1.2v-.12c-.05-.53.19-.53.58-.53.23.08.45.18.65.3v-.62l-1.23.29c0-.34 0-.62-.13-.89.02-.84.37-1.2 1.25-.84.22.14.42.3.6.5v-.71z"/><path id="tbt4aI" d="M101.99 1026.28h4.35v-5.52H102z"/><path id="tbt4aJ" d="M125.92 1008.17c-.41-.29-.75-.44-.92-.7a.75.75 0 0 1-.08-.58c.05-.2.18-.36.36-.45.4-.24.92-.1 1.16.3.32.54.32 1.22 0 1.76a3 3 0 0 1-1.55 1.43c.49-.56 1.14-1.02 1.03-1.76"/><path id="tbt4y" d="M125.28 1006.44c-.17.09-.3.26-.36.45-.05.2-.02.41.08.59.17.25.5.4.92.7.1.73-.54 1.19-1.03 1.75a3 3 0 0 0 1.55-1.43c.32-.54.32-1.22 0-1.76a.85.85 0 0 0-.73-.42.84.84 0 0 0-.43.12z"/><path id="tbt4z" d="M125.28 1006.44c-.17.09-.3.26-.36.45-.05.2-.02.41.08.59.17.25.5.4.92.7.1.73-.54 1.19-1.03 1.75a3 3 0 0 0 1.55-1.43c.32-.54.32-1.22 0-1.76a.85.85 0 0 0-.73-.42.83.83 0 0 0-.43.12z"/><path id="tbt4aM" d="M124.11 1010.71h3.35v-5.18h-3.35z"/><path id="tbt4aN" d="M93.5 1025.61h-.6v-3.83a1.23 1.23 0 0 0-1.52.61l.17-.84h3.4v.92c-.57-.82-.63-.84-1.5-.7z"/><path id="tbt4A" d="M91.55 1021.55l-.17.84c.29-.57.94-.83 1.53-.61v3.83h.6l-.06-3.85c.87-.13.93-.11 1.5.7v-.91z"/><path id="tbt4B" d="M91.55 1021.55l-.17.84c.29-.57.94-.83 1.53-.61v3.83h.6l-.06-3.85c.87-.13.93-.11 1.5.7v-.91z"/><path id="tbt4aQ" d="M90.6 1026.4h5.13v-5.64H90.6z"/><path id="tbt4aR" d="M72.21 1023.83l-.55-1.54-.54 1.54zm1.19 1.78h-.67c0-.35-.2-.67-.26-1.01a.85.85 0 0 0-.92-.67c-.52.04-.6.15-.69.53l-.31 1.13h-.28l1.63-4.27z"/><path id="tbt4C" d="M71.66 1022.3l-.54 1.53h1.1zm-1.39 3.29l1.63-4.27 1.5 4.29h-.67c0-.35-.2-.67-.26-1.01a.85.85 0 0 0-.92-.67c-.52.04-.6.15-.69.53-.09.38-.2.73-.31 1.13z"/><path id="tbt4D" d="M71.66 1022.3l-.54 1.53h1.1zm-1.39 3.29l1.63-4.27 1.5 4.29h-.67c0-.35-.2-.67-.26-1.01a.85.85 0 0 0-.92-.67c-.52.04-.6.15-.69.53-.09.38-.2.73-.31 1.13z"/><path id="tbt4aU" d="M69.49 1026.39h4.69v-5.86h-4.69z"/><path id="tbt4aV" d="M135.93 1023.01c-.4.8-.52 1.72-.3 2.6h-.71c.47-1.64-.48-2.79-1.32-3.95h.76l1.03 1.9.56-.6z"/><path id="tbt4E" d="M133.6 1021.66c.84 1.16 1.8 2.3 1.32 3.95h.7c-.2-.88-.1-1.8.3-2.6l.03-.05-.56.6-1.03-1.9z"/><path id="tbt4F" d="M133.6 1021.66c.84 1.16 1.8 2.3 1.32 3.95h.7c-.2-.88-.1-1.8.3-2.6l.03-.05-.56.6-1.03-1.9z"/><path id="tbt4aY" d="M132.82 1026.4h3.9v-5.53h-3.9z"/><path id="tbt4aZ" d="M126.67 1024.61l-.15.89h-2.53v-3.95h.64v3.51c0 .12.23.3.38.32.87.14 1.15-.01 1.66-.77"/><path id="tbt4G" d="M123.99 1021.55v3.95h2.53l.15-.89c-.5.76-.8.9-1.66.77-.15-.01-.38-.2-.38-.32v-3.51z"/><path id="tbt4H" d="M123.99 1021.55v3.95h2.53l.15-.89c-.5.76-.8.9-1.66.77-.15-.01-.38-.2-.38-.32v-3.51z"/><path id="tbt4bc" d="M123.21 1026.28h4.24v-5.52h-4.24z"/><path id="tbt4bd" d="M135.85 1022.9c.1-.25.22-.5.3-.76.1-.26.1-.35.16-.59h.53l-1.01 1.33z"/><path id="tbt4I" d="M135.83 1022.89l.02.01.04-.1zm.48-1.34c-.06.24-.06.33-.15.59l-.27.67.95-1.26z"/><path id="tbt4J" d="M135.83 1022.89l.02.01.04-.1zm.48-1.34c-.06.24-.06.33-.15.58-.08.23-.17.45-.27.68l.95-1.26z"/><path id="tbt4bg" d="M135.05 1023.69h2.56v-2.93h-2.56z"/><path id="tbt4K" d="M71.17 1023.69l.57-1.47z"/><path id="tbt4L" d="M71.17 1023.69l.57-1.47z"/><path id="tbt4bj" d="M70.39 1024.48h2.12v-3.04h-2.12z"/><clipPath id="tbt4N"><use xlink:href="#tbt4a"/></clipPath><clipPath id="tbt4P"><use xlink:href="#tbt4b"/></clipPath><clipPath id="tbt4S"><use xlink:href="#tbt4c"/></clipPath><clipPath id="tbt4T"><use xlink:href="#tbt4d"/></clipPath><clipPath id="tbt4W"><use xlink:href="#tbt4e"/></clipPath><clipPath id="tbt4X"><use xlink:href="#tbt4f"/></clipPath><clipPath id="tbt4aa"><use xlink:href="#tbt4g"/></clipPath><clipPath id="tbt4ab"><use xlink:href="#tbt4h"/></clipPath><clipPath id="tbt4ae"><use xlink:href="#tbt4i"/></clipPath><clipPath id="tbt4af"><use xlink:href="#tbt4j"/></clipPath><clipPath id="tbt4ai"><use xlink:href="#tbt4k"/></clipPath><clipPath id="tbt4aj"><use xlink:href="#tbt4l"/></clipPath><clipPath id="tbt4am"><use xlink:href="#tbt4m"/></clipPath><clipPath id="tbt4an"><use xlink:href="#tbt4n"/></clipPath><clipPath id="tbt4aq"><use xlink:href="#tbt4o"/></clipPath><clipPath id="tbt4ar"><use xlink:href="#tbt4p"/></clipPath><clipPath id="tbt4au"><use xlink:href="#tbt4q"/></clipPath><clipPath id="tbt4av"><use xlink:href="#tbt4r"/></clipPath><clipPath id="tbt4ay"><use xlink:href="#tbt4s"/></clipPath><clipPath id="tbt4az"><use xlink:href="#tbt4t"/></clipPath><clipPath id="tbt4aC"><use xlink:href="#tbt4u"/></clipPath><clipPath id="tbt4aD"><use xlink:href="#tbt4v"/></clipPath><clipPath id="tbt4aG"><use xlink:href="#tbt4w"/></clipPath><clipPath id="tbt4aH"><use xlink:href="#tbt4x"/></clipPath><clipPath id="tbt4aK"><use xlink:href="#tbt4y"/></clipPath><clipPath id="tbt4aL"><use xlink:href="#tbt4z"/></clipPath><clipPath id="tbt4aO"><use xlink:href="#tbt4A"/></clipPath><clipPath id="tbt4aP"><use xlink:href="#tbt4B"/></clipPath><clipPath id="tbt4aS"><use xlink:href="#tbt4C"/></clipPath><clipPath id="tbt4aT"><use xlink:href="#tbt4D"/></clipPath><clipPath id="tbt4aW"><use xlink:href="#tbt4E"/></clipPath><clipPath id="tbt4aX"><use xlink:href="#tbt4F"/></clipPath><clipPath id="tbt4ba"><use xlink:href="#tbt4G"/></clipPath><clipPath id="tbt4bb"><use xlink:href="#tbt4H"/></clipPath><clipPath id="tbt4be"><use xlink:href="#tbt4I"/></clipPath><clipPath id="tbt4bf"><use xlink:href="#tbt4J"/></clipPath><clipPath id="tbt4bh"><use xlink:href="#tbt4K"/></clipPath><clipPath id="tbt4bi"><use xlink:href="#tbt4L"/></clipPath></defs><g><g transform="translate(-47 -1006)"><g><use fill="#f9f9f9" xlink:href="#tbt4M"/></g><g><g/><g clip-path="url(#tbt4N)"><use fill="#f9f9f9" xlink:href="#tbt4O"/></g></g><g><g/><g clip-path="url(#tbt4P)"><use fill="#f9f9f9" xlink:href="#tbt4Q"/></g></g><g><use fill="#f9f9f9" xlink:href="#tbt4R"/></g><g><g/><g clip-path="url(#tbt4S)"><use fill="#f9f9f9" xlink:href="#tbt4O"/></g></g><g><g/><g clip-path="url(#tbt4T)"><use fill="#f9f9f9" xlink:href="#tbt4U"/></g></g><g><use fill="#f9f9f9" xlink:href="#tbt4V"/></g><g><g/><g clip-path="url(#tbt4W)"><use fill="#f9f9f9" xlink:href="#tbt4O"/></g></g><g><g/><g clip-path="url(#tbt4X)"><use fill="#f9f9f9" xlink:href="#tbt4Y"/></g></g><g><use fill="#f9f9f9" xlink:href="#tbt4Z"/></g><g><g/><g clip-path="url(#tbt4aa)"><use fill="#f9f9f9" xlink:href="#tbt4O"/></g></g><g><g/><g clip-path="url(#tbt4ab)"><use fill="#f9f9f9" xlink:href="#tbt4ac"/></g></g><g><use fill="#f9f9f9" xlink:href="#tbt4ad"/></g><g><g/><g clip-path="url(#tbt4ae)"><use fill="#f9f9f9" xlink:href="#tbt4O"/></g></g><g><g/><g clip-path="url(#tbt4af)"><use fill="#f9f9f9" xlink:href="#tbt4ag"/></g></g><g><use fill="#f9f9f9" xlink:href="#tbt4ah"/></g><g><g/><g clip-path="url(#tbt4ai)"><use fill="#f9f9f9" xlink:href="#tbt4O"/></g></g><g><g/><g clip-path="url(#tbt4aj)"><use fill="#f9f9f9" xlink:href="#tbt4ak"/></g></g><g><use fill="#f9f9f9" xlink:href="#tbt4al"/></g><g><g/><g clip-path="url(#tbt4am)"><use fill="#f9f9f9" xlink:href="#tbt4O"/></g></g><g><g/><g clip-path="url(#tbt4an)"><use fill="#f9f9f9" xlink:href="#tbt4ao"/></g></g><g><use fill="#f9f9f9" xlink:href="#tbt4ap"/></g><g><g/><g clip-path="url(#tbt4aq)"><use fill="#f9f9f9" xlink:href="#tbt4O"/></g></g><g><g/><g clip-path="url(#tbt4ar)"><use fill="#f9f9f9" xlink:href="#tbt4as"/></g></g><g><use fill="#f9f9f9" xlink:href="#tbt4at"/></g><g><g/><g clip-path="url(#tbt4au)"><use fill="#f9f9f9" xlink:href="#tbt4O"/></g></g><g><g/><g clip-path="url(#tbt4av)"><use fill="#f9f9f9" xlink:href="#tbt4aw"/></g></g><g><use fill="#f9f9f9" xlink:href="#tbt4ax"/></g><g><g/><g clip-path="url(#tbt4ay)"><use fill="#f9f9f9" xlink:href="#tbt4O"/></g></g><g><g/><g clip-path="url(#tbt4az)"><use fill="#f9f9f9" xlink:href="#tbt4aA"/></g></g><g><use fill="#f9f9f9" xlink:href="#tbt4aB"/></g><g><g/><g clip-path="url(#tbt4aC)"><use fill="#f9f9f9" xlink:href="#tbt4O"/></g></g><g><g/><g clip-path="url(#tbt4aD)"><use fill="#f9f9f9" xlink:href="#tbt4aE"/></g></g><g><use fill="#f9f9f9" xlink:href="#tbt4aF"/></g><g><g/><g clip-path="url(#tbt4aG)"><use fill="#f9f9f9" xlink:href="#tbt4O"/></g></g><g><g/><g clip-path="url(#tbt4aH)"><use fill="#f9f9f9" xlink:href="#tbt4aI"/></g></g><g><use fill="#f9f9f9" xlink:href="#tbt4aJ"/></g><g><g/><g clip-path="url(#tbt4aK)"><use fill="#f9f9f9" xlink:href="#tbt4O"/></g></g><g><g/><g clip-path="url(#tbt4aL)"><use fill="#f9f9f9" xlink:href="#tbt4aM"/></g></g><g><use fill="#f9f9f9" xlink:href="#tbt4aN"/></g><g><g/><g clip-path="url(#tbt4aO)"><use fill="#f9f9f9" xlink:href="#tbt4O"/></g></g><g><g/><g clip-path="url(#tbt4aP)"><use fill="#f9f9f9" xlink:href="#tbt4aQ"/></g></g><g><use fill="#f9f9f9" xlink:href="#tbt4aR"/></g><g><g/><g clip-path="url(#tbt4aS)"><use fill="#f9f9f9" xlink:href="#tbt4O"/></g></g><g><g/><g clip-path="url(#tbt4aT)"><use fill="#f9f9f9" xlink:href="#tbt4aU"/></g></g><g><use fill="#f9f9f9" xlink:href="#tbt4aV"/></g><g><g/><g clip-path="url(#tbt4aW)"><use fill="#f9f9f9" xlink:href="#tbt4O"/></g></g><g><g/><g clip-path="url(#tbt4aX)"><use fill="#f9f9f9" xlink:href="#tbt4aY"/></g></g><g><use fill="#f9f9f9" xlink:href="#tbt4aZ"/></g><g><g/><g clip-path="url(#tbt4ba)"><use fill="#f9f9f9" xlink:href="#tbt4O"/></g></g><g><g/><g clip-path="url(#tbt4bb)"><use fill="#f9f9f9" xlink:href="#tbt4bc"/></g></g><g><use fill="#f9f9f9" xlink:href="#tbt4bd"/></g><g><g/><g clip-path="url(#tbt4be)"><use fill="#f9f9f9" xlink:href="#tbt4O"/></g></g><g><g/><g clip-path="url(#tbt4bf)"><use fill="#f9f9f9" xlink:href="#tbt4bg"/></g></g><g><use fill="#f9f9f9" xlink:href="#tbt4K"/></g><g><g/><g clip-path="url(#tbt4bh)"><use fill="#f9f9f9" xlink:href="#tbt4O"/></g></g><g><g/><g clip-path="url(#tbt4bi)"><use fill="#f9f9f9" xlink:href="#tbt4bj"/></g></g></g></g></svg>