<svg xmlns="http://www.w3.org/2000/svg" xmlns:xlink="http://www.w3.org/1999/xlink" width="74" height="72" viewBox="0 0 74 72"><defs><path id="lgqca" d="M292.45 512.9l-27.13-22.71"/><path id="lgqcb" d="M292.45 512.9l-1.95 43.7"/><path id="lgqcc" d="M292.45 512.9l33.37 31.77"/><path id="lgqcd" d="M292.45 512.9l39.58-9.11"/><path id="lgqce" d="M292.45 512.9l-27.12 25.56"/><path id="lgqcf" d="M327.9 498.38z"/><path id="lgqcg" d="M269.28 499.51a6.26 6.26 0 1 1-.05-12.51 6.26 6.26 0 0 1 .05 12.51z"/><path id="lgqch" d="M275.5 535.24a6.25 6.25 0 1 1-.01-.02z"/><path id="lgqci" d="M292.46 525.38a12.4 12.4 0 0 1-10.1-5.2 12.37 12.37 0 0 1-.64-13.56 12.46 12.46 0 0 1 23.2 5.92v.37a12.4 12.4 0 0 1-5.02 10 12.4 12.4 0 0 1-7.44 2.47z"/><path id="lgqcj" d="M291.1 556.34a6.23 6.23 0 1 1 6.24-6.24v.61a6.24 6.24 0 0 1-6.24 5.63z"/><path id="lgqck" d="M321.85 553.94a12.47 12.47 0 1 1 0-24.94 12.47 12.47 0 0 1 0 24.94z"/></defs><g><g transform="translate(-262 -486)"><g><use fill="#fff" fill-opacity="0" stroke="#444752" stroke-miterlimit="50" stroke-width="2" xlink:href="#lgqca"/></g><g><use fill="#fff" fill-opacity="0" stroke="#444752" stroke-miterlimit="50" stroke-width="2" xlink:href="#lgqcb"/></g><g><use fill="#fff" fill-opacity="0" stroke="#444752" stroke-miterlimit="50" stroke-width="2" xlink:href="#lgqcc"/></g><g><use fill="#fff" fill-opacity="0" stroke="#444752" stroke-miterlimit="50" stroke-width="2" xlink:href="#lgqcd"/></g><g><use fill="#fff" fill-opacity="0" stroke="#444752" stroke-miterlimit="50" stroke-width="2" xlink:href="#lgqce"/></g><g><use fill="#f7f7f7" xlink:href="#lgqcf"/><use fill="#fff" fill-opacity="0" stroke="#444752" stroke-miterlimit="50" stroke-width="2" xlink:href="#lgqcf"/></g><g><use fill="#f7f7f7" xlink:href="#lgqcg"/><use fill="#fff" fill-opacity="0" stroke="#444752" stroke-miterlimit="50" stroke-width="2" xlink:href="#lgqcg"/></g><g><use fill="#f7f7f7" xlink:href="#lgqch"/><use fill="#fff" fill-opacity="0" stroke="#444752" stroke-miterlimit="50" stroke-width="2" xlink:href="#lgqch"/></g><g><use fill="#f7f7f7" xlink:href="#lgqci"/><use fill="#fff" fill-opacity="0" stroke="#444752" stroke-miterlimit="50" stroke-width="2" xlink:href="#lgqci"/></g><g><use fill="#f7f7f7" xlink:href="#lgqcj"/><use fill="#fff" fill-opacity="0" stroke="#444752" stroke-miterlimit="50" stroke-width="2" xlink:href="#lgqcj"/></g><g><use fill="#f7f7f7" xlink:href="#lgqck"/><use fill="#fff" fill-opacity="0" stroke="#444752" stroke-miterlimit="50" stroke-width="2" xlink:href="#lgqck"/></g></g></g></svg>