<svg xmlns="http://www.w3.org/2000/svg" xmlns:xlink="http://www.w3.org/1999/xlink" width="110" height="45" viewBox="0 0 110 45"><defs><path id="2b2ia" d="M631.63 385.14a9.2 9.2 0 0 1 9.26-9.14 9.2 9.2 0 0 1 9.25 9.14 9.2 9.2 0 0 1-9.26 9.14 9.2 9.2 0 0 1-9.25-9.14z"/><path id="2b2ib" d="M653 371.31a7.36 7.36 0 0 1 7.4-7.31c4.1 0 7.41 3.28 7.41 7.32a7.36 7.36 0 0 1-7.4 7.31 7.36 7.36 0 0 1-7.41-7.32z"/><path id="2b2ic" d="M614 371.31a7.36 7.36 0 0 1 7.4-7.31c4.1 0 7.41 3.28 7.41 7.32a7.36 7.36 0 0 1-7.4 7.31 7.36 7.36 0 0 1-7.41-7.32z"/><path id="2b2id" d="M592.63 385.14a9.2 9.2 0 0 1 9.26-9.14 9.2 9.2 0 0 1 9.25 9.14 9.2 9.2 0 0 1-9.26 9.14 9.2 9.2 0 0 1-9.25-9.14z"/><path id="2b2ie" d="M587 407a16.26 16.26 0 0 1 14.89-9.54c6.65 0 12.37 3.93 14.88 9.54"/><path id="2b2if" d="M626 407a16.26 16.26 0 0 1 14.89-9.54c6.65 0 12.37 3.93 14.88 9.54"/><path id="2b2ig" d="M670.86 385.14a9.2 9.2 0 0 1 9.26-9.14 9.2 9.2 0 0 1 9.25 9.14 9.2 9.2 0 0 1-9.26 9.14 9.2 9.2 0 0 1-9.25-9.14z"/><path id="2b2ih" d="M665.23 407a16.26 16.26 0 0 1 14.89-9.54c6.65 0 12.37 3.93 14.88 9.54"/></defs><g><g transform="translate(-586 -363)"><use fill="#fff" fill-opacity="0" stroke="#444752" stroke-miterlimit="50" stroke-width="2" xlink:href="#2b2ia"/></g><g transform="translate(-586 -363)"><use fill="#fff" fill-opacity="0" stroke="#444752" stroke-miterlimit="50" stroke-width="2" xlink:href="#2b2ib"/></g><g transform="translate(-586 -363)"><use fill="#fff" fill-opacity="0" stroke="#444752" stroke-miterlimit="50" stroke-width="2" xlink:href="#2b2ic"/></g><g transform="translate(-586 -363)"><use fill="#fff" fill-opacity="0" stroke="#444752" stroke-miterlimit="50" stroke-width="2" xlink:href="#2b2id"/></g><g transform="translate(-586 -363)"><use fill="#fff" fill-opacity="0" stroke="#444752" stroke-miterlimit="50" stroke-width="2" xlink:href="#2b2ie"/></g><g transform="translate(-586 -363)"><use fill="#fff" fill-opacity="0" stroke="#444752" stroke-miterlimit="50" stroke-width="2" xlink:href="#2b2if"/></g><g transform="translate(-586 -363)"><use fill="#fff" fill-opacity="0" stroke="#444752" stroke-miterlimit="50" stroke-width="2" xlink:href="#2b2ig"/></g><g transform="translate(-586 -363)"><use fill="#fff" fill-opacity="0" stroke="#444752" stroke-miterlimit="50" stroke-width="2" xlink:href="#2b2ih"/></g></g></svg>