<svg xmlns="http://www.w3.org/2000/svg" xmlns:xlink="http://www.w3.org/1999/xlink" width="87" height="50" viewBox="0 0 87 50"><defs><path id="j1jya" d="M162.2 683.96l-59.88 11.75v-42l59.89 16.25z"/><path id="j1jyb" d="M101.58 682.68a8 8 0 0 1 0-16"/><path id="j1jyc" d="M162.2 670.1v-1.47c0-1.32 1.12-2.39 2.5-2.39s2.5 1.07 2.5 2.4v16.2c0 1.33-1.12 2.4-2.5 2.4a2.45 2.45 0 0 1-2.5-2.4v-1.1"/><path id="j1jyd" d="M145.47 687.65c.68 3-1.37 5.98-4.56 6.62l-11.28 2.26c-3.19.64-6.35-1.3-7.03-4.3"/><path id="j1jye" d="M82.32 673.73l5.43-.02"/><path id="j1jyf" d="M88.3 688.3l3.55-4.1"/><path id="j1jyg" d="M88.13 659.82l3.58 4.09"/></defs><g><g transform="rotate(11 3449.37 -76.3)"><g><use fill="#fff" fill-opacity="0" stroke="#444752" stroke-miterlimit="50" stroke-width="2" xlink:href="#j1jya"/></g><g><use fill="#fff" fill-opacity="0" stroke="#444752" stroke-miterlimit="50" stroke-width="2" xlink:href="#j1jyb"/></g><g><use fill="#fff" fill-opacity="0" stroke="#444752" stroke-miterlimit="50" stroke-width="2" xlink:href="#j1jyc"/></g><g><use fill="#fff" fill-opacity="0" stroke="#444752" stroke-miterlimit="50" stroke-width="2" xlink:href="#j1jyd"/></g><g><use fill="#fff" fill-opacity="0" stroke="#444752" stroke-linecap="square" stroke-miterlimit="50" stroke-width="2" xlink:href="#j1jye"/></g><g><use fill="#fff" fill-opacity="0" stroke="#444752" stroke-linecap="square" stroke-miterlimit="50" stroke-width="2" xlink:href="#j1jyf"/></g><g><use fill="#fff" fill-opacity="0" stroke="#444752" stroke-linecap="square" stroke-miterlimit="50" stroke-width="2" xlink:href="#j1jyg"/></g></g></g></svg>