<svg xmlns="http://www.w3.org/2000/svg" xmlns:xlink="http://www.w3.org/1999/xlink" width="17" height="18" viewBox="0 0 17 18"><defs><path id="oj53a" d="M280.63 278.33c1.61 0 2.7.7 3.33 1.29l2.43-2.38a8.62 8.62 0 0 0-13.47 2.51l2.79 2.17a5.21 5.21 0 0 1 4.92-3.59z"/><path id="oj53b" d="M288.9 283.82c0-.71-.05-1.23-.18-1.77h-8.1v3.2h4.76c-.1.8-.61 2-1.76 2.8l2.72 2.11a8.43 8.43 0 0 0 2.57-6.34z"/><path id="oj53c" d="M275.72 285.33a5.31 5.31 0 0 1-.01-3.41l-2.79-2.17a8.63 8.63 0 0 0 0 7.75l2.8-2.17z"/><path id="oj53d" d="M280.63 292.25c2.32 0 4.28-.77 5.7-2.09l-2.71-2.1c-.73.5-1.71.85-3 .85a5.2 5.2 0 0 1-4.9-3.58l-2.79 2.17a8.6 8.6 0 0 0 7.7 4.75z"/></defs><g><g transform="translate(-272 -275)"><g><use fill="#ea4335" xlink:href="#oj53a"/></g><g><use fill="#4285f4" xlink:href="#oj53b"/></g><g><use fill="#fbbc05" xlink:href="#oj53c"/></g><g><use fill="#34a853" xlink:href="#oj53d"/></g><g/></g></g></svg>