<svg xmlns="http://www.w3.org/2000/svg" xmlns:xlink="http://www.w3.org/1999/xlink" width="52" height="52" viewBox="0 0 52 52"><defs><path id="7hawa" d="M97.8 866.76c5.64-1.02 11.06.9 15.78-1.83a13.12 13.12 0 0 0 4.88-17.91 13.12 13.12 0 0 0-17.95-4.73 13.15 13.15 0 0 0-5.74 16.08"/><path id="7hawb" d="M97.08 866.3l6.11-3.79c.2-.12.45-.06.58.12.04.07.06.14.06.22v7.56a.4.4 0 0 1-.41.4.43.43 0 0 1-.23-.06l-6.1-3.78a.4.4 0 0 1 0-.67z"/><path id="7hawc" d="M82 854a25 25 0 1 1 50 0 25 25 0 0 1-50 0z"/></defs><g><g transform="translate(-81 -828)"><use fill="#fff" fill-opacity="0" stroke="#444752" stroke-miterlimit="50" stroke-width="2" xlink:href="#7hawa"/></g><g transform="translate(-81 -828)"><use fill="#f7f7f7" xlink:href="#7hawb"/><use fill="#fff" fill-opacity="0" stroke="#444752" stroke-miterlimit="50" stroke-width="2" xlink:href="#7hawb"/></g><g transform="translate(-81 -828)"><use fill="#fff" fill-opacity="0" stroke="#444752" stroke-miterlimit="50" stroke-width="2" xlink:href="#7hawc"/></g></g></svg>