<svg xmlns="http://www.w3.org/2000/svg" xmlns:xlink="http://www.w3.org/1999/xlink" width="35" height="43" viewBox="0 0 35 43"><defs><path id="6qgea" d="M131.3 964.6a7.08 7.08 0 0 0 3.9-1.7 8.14 8.14 0 0 0 2.44-4.2c.37-1.4.34-4.04.34-4.04v-13.74s-.1-2.96.12-3.7c.2-.6.54-1.14 1-1.57.65-.62 2-.83 2-.83.4-.06.49-.24.46-.41a.33.33 0 0 0-.29-.27l-9.65-.02a.37.37 0 0 0-.3.3c-.02.18.06.36.46.42 0 0 1.36.2 2 .83.46.43.8.97 1 1.56.23.74.13 3.7.13 3.7l-.2 13.7c0 .59.06 3.11-.1 4.02-.2 1.26-.52 2.33-1.36 3.16a3.48 3.48 0 0 1-2.75 1.1 4.2 4.2 0 0 1-2.7-.91c-.81-.6-2.34-1.93-2.34-1.93l1.47 4.42s2.87.37 4.37.13"/><path id="6qgeb" d="M131.46 965.77a7.94 7.94 0 0 0 6.03-3.37c1.88-2.42 1.88-5.36 1.88-5.36v-18.88c-.03-.5.07-.98.29-1.43.36-.72 1.14-1.1 1.1-1.17-.03-.07-1.02.3-1.62 1.07-.44.55-.4 1.32-.4 1.55v17.96s-.03 2.6-.9 4.29c-.8 1.57-1.49 2.87-3.8 4.1-1.37.72-2.41.83-3.73.88-1.5.06-2.87-.17-2.87-.08 0 .15 1.82.62 4.03.44"/><path id="6qgec" d="M125.22 936.34c.35-.07.67-.26.89-.53.76-.99.22-1.55.03-1.48-.2.06-.03.6-.63.77-.6.17-.87-.4-1.77-.72a4.47 4.47 0 0 0-1.7-.24c-1.65.13-3.07 1.26-3.15 3.18-.05 1.46.67 2.96 2.26 3.5 1.45.5 2.36.18 2.36.18l-.61.72.37.2.3.24c.37-.46.78-.89 1.23-1.28a8.77 8.77 0 0 1 1.86-1.31c.77-.39 1.75-.77 1.81-.67.06.1-.7.46-1.06 1.04-.21.37-.48 1.03-.28 1.1.2.05.13 0 .28-.17.16-.17.19-.09.23-.06.04.03-.16.58.14.99.29.41.61.74.76.64.2-.14-.35-.53-.16-1.43.13-.52.4-1 .8-1.37a4.22 4.22 0 0 1 2.22-.9c1.13-.13 3 .29 3 .29l-.02-.8s-2.89-.37-4.35-.64a1.62 1.62 0 0 1-1.33-1.42c-.05-1 .88-1.37.84-1.55-.08-.29-1 .17-1.28.55-.15.21-.26.45-.33.7a.2.2 0 0 1-.26-.07c-.15-.16.03-.25-.15-.27-.28-.04-.3.86.12 1.4.28.39.63.72 1.03 1 .1.03-1.22.35-2.27.88-1.21.6-1.3.8-2.45 1.14-1.15.34-2.13.31-2.77-.1a2.74 2.74 0 0 1-1.3-2.45c.02-1.09.89-2.4 2.4-2.38 1.59.04 2.03 1 2.01 1.65 0 .58-.32 1.12-1.12 1.2a.87.87 0 0 1-.9-.52c-.16-.41-.02-.76-.19-.9-.17-.13-.3.04-.38.2-.18.43-.17.9.03 1.3.34.56.98.86 1.64.77a2 2 0 0 0 1.69-1.16 1.76 1.76 0 0 0 .15-1.23"/><path id="6qged" d="M133.79 949.42a6.53 6.53 0 0 1-.93 3.57.95.95 0 0 0-.24-.3c-.12-.09-.24-.17-.38-.23 0 0 .9-1.75.7-3.37-.19-1.54-1.07-4.45-4.35-4.26-1 .06-1.95.56-1.89 1.11.07.66.66.91.66.97-.01.07-.52.18-.88.02a2.47 2.47 0 0 1-.75-.74s-1.5.87-1.5 2.38c0 .65.68 2.28 2.08 2.12.88-.1 1.09-.7 1.07-1.15-.02-.44-.76-1.17-.72-1.33.02-.07.33-.02.52.06s.3.23.42.17c.12-.05.05-.14.02-.4-.04-.37-.15-.42-.03-.5.13-.07.51.46.73.73.18.23.34.47.48.72.06-.3.14-.59.24-.87.41-1.1.83-1.32.93-1.24.1.09-.06.29 0 .7.04.31.12.32.12.32.14-.17.26-.34.35-.53.16-.3.25-.6.41-.57.16.01.3.69.17 1.45-.07.44-.2.87-.38 1.27.17-.02.32-.1.45-.2.28-.2.33-.32.42-.28.1.04-.05.38-.44.86-.27.39-.68.67-1.15.78.2.08.36.22.46.4.15.31.35.52.26.6-.1.09-.22-.22-.62-.24-.4-.02-.7.15-1.26.25-.58.1-.77-.06-.77-.06.6-.35 1.1-.83 1.48-1.4.7-.98.7-1.47.53-1.5-.16-.01-.17.23-.47.72a4.91 4.91 0 0 1-2.15 1.88c-.72.22-.98.26-1.84.03-.85-.22-1.12-.74-1.28-.66-.2.1-.23 2.05-.76 3.08-.37.7-.96 1.26-1.68 1.6-.8.39-1.76.54-1.8.38-.03-.16.13-.12.32-.26l.24-.18c-.35.06-.7.06-1.05 0-.75-.07-.86-.12-.87-.3 0-.11.2-.1.47-.2.27-.1.22-.12.22-.12a4.1 4.1 0 0 1-.7-.74c-.3-.4-.44-1.01-.37-1.06.06-.05.27-.02.64.05.24.05.49.07.73.06-.09-.1-.18-.2-.25-.3-.13-.2-.26-.4-.07-.42.18-.01.44.6 1.62.51a2.4 2.4 0 0 0 1.62-.86s-.35 1.13-1.3 1.56c-1.18.54-2.16-.12-2.19.13-.04.32 1.3.93 2.6.22 1.09-.6 1.49-2.03 1.64-2.93.1-.97.14-1.94.1-2.91-.57.4-1.27.6-1.98.54a3.42 3.42 0 0 1-3.07-3.41c0-.71.14-1.41.44-2.06.18-.46.28-.53.32-.93a.84.84 0 0 0-.15-.6c-.1-.1.36.01.51.3.1.21.17.44.2.68a3.15 3.15 0 0 1 1.8-.55c1.87 0 2.66 1.57 2.66 1.57.25.03.5-.02.72-.13.5-.2.48-.52 1.2-.54.6-.02 1.03.4.82.54-.2.14-.05-.08-.62 0-.58.09-.51.99-1.2 1.16a.91.91 0 0 1-.79-.23c-.07-.12-.09 0-.09 0a2.4 2.4 0 0 1-.18.7 1.95 1.95 0 0 1-2.36 1.05c-1.3-.32-1.38-1.73-1.05-1.75.28-.03.64 1.68 2.14.95.4-.25.61-.68.57-1.13-.05-.9-.93-1.43-1.7-1.44-.95-.02-2.28.64-2.42 2.38-.1 1.18.9 2.6 2.24 2.59 2.62-.03 3.41-2.76 6.42-3.53a4.28 4.28 0 0 1 3.32.35s.28.04-.01-.39c-.3-.42-1.03-1.74-.91-2.74.1-.92.92-1.61 1.88-1.59 1.09.03 1.63.63 1.58 1.4-.06.96-1.12 1.14-1.22.9-.08-.18.45-.15.48-.64a.72.72 0 0 0-.2-.6.78.78 0 0 0-.6-.23c-.71 0-1.14.4-1.06 1.19.06.59.5 1.14.92 1.48l.64.56s-.47.3-.47.72.23.78.52 1.25c.28.5.53 1.01.73 1.55.23.66.35 1.35.34 2.04"/><path id="6qgee" d="M122 943.33c.14.04.26.1.36.19.1.07.19.16.26.26l-.37.65-.29.52s-.05.04-.33-.12a.76.76 0 0 1-.32-.32c.07-.2.16-.39.28-.57.28-.43.41-.6.41-.6"/><path id="6qgef" d="M121.36 946.47a1.03 1.03 0 0 1-.37-.12 2.67 2.67 0 0 1-.34-.29l-.14.5-.07.3c.15.12.31.2.5.25.22.07.27.03.27.03.03-.1.06-.22.07-.33.01-.12.05-.23.1-.34"/><path id="6qgeg" d="M120.31 948.86c.14.07.29.12.44.16.17.02.37.02.37.02.03.53.12 1.05.27 1.56.32.98.59 1.3.59 1.3-.1.07-.23.14-.36.19a.89.89 0 0 1-.4.08c-.23-.45-.44-.92-.6-1.4a5.5 5.5 0 0 1-.3-1.91"/><path id="6qgeh" d="M123.1 955.1c.3-.28.56-.6.77-.94l.3-.74c.28.19.64.23.95.11.65-.24.76-.62.84-.6.08.02.08.5-.21.9-.28.35-.7.54-1.15.54.94.43 1.97.65 3.02.64a5.92 5.92 0 0 0 3.3-1.2c.17.04.32.15.41.3.13.25.04.39.04.39s-1.63 1.08-3.19 1.26a7.62 7.62 0 0 1-3.56-.54s1.1 1.15 1.8 1.95a5.88 5.88 0 0 1 1.26 2.25c.23.74.06 1.88.06 1.88l-.7-.52a2.7 2.7 0 0 0-.15-1.4c-.38-1.1-1.51-2.16-1.51-2.16.07.4 0 .8-.2 1.15-.26.47-.64.58-.7.54-.12-.08.26-.6 0-1.6a3.73 3.73 0 0 0-.73-1.63c-.2-.22-.42-.42-.66-.6"/><path id="6qgei" d="M126.25 956.25l.51.5c.14.14.28.3.4.46a4.7 4.7 0 0 1 2 .02c.93.26 2.46.87 2.7 2.28.2 1.15-.64 1.35-.92 1.34a.85.85 0 0 1-.6-.22.8.8 0 0 1-.25-.57c-.03-.52.58-.57.6-.74 0-.17-.28-.33-.74 0-.56.38-.61 1.05-.26 1.6.51.82 1.65.81 2.16.5.66-.41.98-1.03.89-2a3.1 3.1 0 0 0-.88-1.61c-.45-.5-1.62-1.04-1.62-1.04s1.5-.74 2.35.15c.37.4-.08.95 0 1.03.07.08.79-.12.75-.96-.05-.4-.27-.75-.6-.97a9.46 9.46 0 0 0 1.45-.48v-.82s-.45.17-.86.3a3.3 3.3 0 0 1-.7.15s.62-1.31-.36-2.1c-1.36-1.08-2.47.23-2.39.39.09.16 1.04-.64 1.76.18.54.62.3 1.1-.39 1.53a6.77 6.77 0 0 1-5 1.08"/><path id="6qgej" d="M125.92 963.15l.34.86s-.98 1.55-3.53 1.61a3.8 3.8 0 0 1-3.89-3.27c-.15-1.5.26-2.06.26-2.75.01-.37-.06-.74-.22-1.08-.1-.28.44-.25.77.13.29.33.31.8.62.66a3.7 3.7 0 0 0 1.64-1.69c.42-.97-.28-1.43.04-1.45.4-.02 1.12.67 1.01 1.58-.02.47-.23.92-.57 1.25.24.04.48.13.69.25.42.22 1.16.86 1.13.94-.02.08-.32-.07-.46-.1a.65.65 0 0 0-.23 0 2 2 0 0 1 .57 1.78c-.1.78-.79 1.37-1.6 1.4-1.05.02-1.4-.76-1.37-1.2.02-.17.12-.24.23-.24.16.03.38.65 1.11.57.44-.04.76-.4.75-.82.01-.43-.17-.85-.5-1.13a1.57 1.57 0 0 0-1.23-.37c-.88.06-1.79.67-1.62 2.16.15 1.37 1.34 2.47 3.07 2.51a3.43 3.43 0 0 0 3-1.6"/><path id="6qgek" d="M146.74 934.11c.68.06 1.36.16 2.02.32.46.12.93.16 1.4.11.36-.08.64-.27.7-.24.06.02 0 .3-.28.64s-.66.4-.66.54c0 .13.82 1.04.75 2.46-.09 1.75-1.06 2.47-1.63 2.94-.45.37-.48.76-.37 1.06.17.42.52.75.96.91.51.22 1.12.23 1.16.33.06.14-.24.33-.5.45-.17.08-.36.13-.55.14.38.35.6.83.64 1.34 0 .74-.16 1.15-.6 1.48-.45.33-1.08.24-1.1.16-.02-.13.23-.23.48-.36.25-.14.39-.37.33-.5-.05-.13-.38.07-.48-.05-.1-.13.1-.22.15-.5.05-.28.07-1-.33-1.11-.14-.04-.03.56-.28.86-.25.3-.67.5-.75.37-.09-.13.25-.43.16-1.52-.04-.51-.55-1.14-.57-1.6-.02-.4.04-.56.31-.71.28-.16.21-.31.1-.4-.1-.08-1.51.23-2.44-.92-.6-.74-.66-1.43-.53-2.26-.06-.21-.18-.4-.35-.55-.24-.2-.5-.24-.51-.3-.01-.05.27-.22.71-.16.16.02.32.07.46.14a2.3 2.3 0 0 1 1.83-.69 1.5 1.5 0 0 1 1.38 1.35c.02.65-.3 1.01-.62 1.11-.43.14-.7 0-.72-.18-.01-.18.55-.1.6-.74a.7.7 0 0 0-.22-.56.76.76 0 0 0-.58-.21c-.94.03-1.38.77-1.2 1.81.15.8.99 1.43 2.04 1.33 1.23-.11 2.14-1.29 2.15-2.44a2.83 2.83 0 0 0-2.93-2.93 4.63 4.63 0 0 0-3.75 1.7c-.44.54-1.11 1.96-1.11 1.96.3-.06.6-.03.9.08.32.15.76.54.69.72-.06.14-.52-.16-1.09-.07-.3.02-.58.11-.83.26l-.75-.38s.45-2.18 1.81-3.52a5.3 5.3 0 0 1 4-1.67"/><path id="6qgel" d="M146.04 948.68c-.83-1.5-1.56-2.51-2.81-2.82-1.39-.33-2.18.62-2.35.44-.18-.18.1-.52.42-.85.2-.24.45-.44.72-.6-.2-.08-.42-.12-.64-.12-.33 0-.77.21-.8.08-.03-.14.69-.57 1.2-.77.28-.12.58-.2.89-.24-.12-.6-.18-1.2-.19-1.81-.02-1.1.3-1.8.51-1.71.13.05.08.39.17.83.13.62.41.87.49.83.07-.04 0-.3.17-.7.19-.47.62-.98.62-.7.02.5-.13.82.03 1.79.16 1.02.74 1.05.74 1.05.14-.3.33-.57.54-.82.33-.39.6-.8.75-.63.11.13-.38.92-.44 2.05-.04.82.05 1.65.25 2.45-.2-.32-.43-.61-.7-.88-.56-.6-.82-.62-1.39-1.31-.68-.83-.5-1.33-.79-1.33-.17 0-.02 1.02.36 1.56.38.53.82.78 1.54 1.61.74.93 1.35 1.95 1.79 3.04a2.69 2.69 0 0 1 2.4-1.2c.56.01 1.08.25 1.46.64.37.4.56.92.53 1.45-.14 1.77-1.64 1.94-1.79 1.71-.1-.15.24-.13.58-.42.45-.4.42-.56.39-.69-.02-.08-.13 0-.26.07-.17.1-.34.08-.38-.04-.04-.12.2-.2.29-.37.43-.78-.08-1.62-.92-1.59-.59.03-1.75.4-1.77 1.63-.02 1.23-.13 3.83-.13 3.83a1.5 1.5 0 0 1-.4-.1l-.43-.13s.4-3.34-.65-5.23"/><path id="6qgem" d="M139.89 939.46v.86c.39.1.76.27 1.1.49.61.36 1.05.67 1.05.67l.17-.81s-.13-.16-1.03-.66a3.86 3.86 0 0 0-1.28-.54"/><path id="6qgen" d="M140.56 941.19l.8.4c-.06.33-.08.68-.05 1.02.04.68.08 1.02.08 1.02l-.71.42a8.57 8.57 0 0 1-.12-2.85"/><path id="6qgeo" d="M142.25 946.37s-.03-.07-.34.05a.91.91 0 0 0-.39.25l.16.37c.11-.1.24-.2.38-.26a.75.75 0 0 1 .4-.06l-.21-.36"/><path id="6qgep" d="M145.99 949.9a6.34 6.34 0 0 1-1.69-1.05l-.6-.5a.93.93 0 0 0-.62-.1c-.38.04-.4.2-.4.2s.4.4.86.8c.34.28.7.55 1.1.78a1.68 1.68 0 0 1-1.9.91 1.62 1.62 0 0 1-1.3-1.6c0-1.08 1.06-1.59 1.67-1.59.7 0 1.04.48 1.23.4.3-.11.03-.95-1.1-1.04a2.46 2.46 0 0 0-1.92.8.43.43 0 0 0-.19-.28c-.18-.15-.4-.22-.47-.16-.07.06.15.2.23.56.08.37-.2.94-.13 1.57.1.93.9 2.06 2.17 2.05.95 0 1.31-.27 1.31-.27-.14.19-.1.44.07.6.37.33.9.1.95.4.05.25-.05.27-.27.36-.21.08-.46-.07-.43.1.02.14.27.2.56.17.2 0 .4-.09.54-.24a.7.7 0 0 0 .19-.54c0-1.11-1.28-1.01-1.04-1.23.2-.17.36-.39.46-.63.13.09.28.16.44.2.27.08.47.16.47.16l-.19-.83"/><path id="6qgeq" d="M139.89 953.66v.76c.65.07 1.29.2 1.9.37.5.17 1.78.68 1.74 1.9-.02.84-.7 1.52-1.57 1.58-.7-.02-1.1-.36-1.12-.93.01-.32.28-.59.62-.6.47-.06.47.35.67.24.2-.11.16-.65-.71-.74-.32-.03-.65.07-.89.28-.23.21-.37.51-.36.82 0 1.08.87 1.7 1.9 1.67a2.39 2.39 0 0 0 2.23-2.12l.03-.4c.12.04.26.02.36-.05.23-.12.44-.47.4-.54-.04-.07-.3.14-.58-.06a4.5 4.5 0 0 1-.84-.83c-.18-.2-.38-.36-.61-.5 1.1.07 2.18.34 3.18.8 1.56.76 1.97 2.32 2 2.33.04.01.2-.14.26-.68.05-.3.01-.6-.1-.87.56.43 1.05.95 1.44 1.53 1.02 1.79.33 2.92.33 2.92l.17 1.17s1-.8.8-2.78c-.21-2.03-2.24-3.4-2.24-3.4.37-.01.74-.13 1.04-.34.61-.4.62-1.37.5-1.38-.13 0-.2.45-.7.74-.5.3-1.07.3-1.8.2-.73-.1-1.47-.37-2.95-.7-1.32-.28-2.4-.42-2.4-.42s.28-.04.45-.5c.1-.2.06-.44-.09-.62a1.3 1.3 0 0 1-.75.54c-.75.26-1.52.46-2.3.6"/><path id="6qger" d="M146.81 956.3s.02-.04-.31-.25a1.52 1.52 0 0 0-.38-.2s-.38 1.05-.7 1.74c-.26.61-.37.92-.88 1.25-.5.34-.66.1-.7.2-.06.1.08.23.38.26s.51 0 .49.06c-.02.12-.22.19-.13.26.1.07.15.04.32.14.23.13.25.19.25.19.36-.6.68-1.23.96-1.86.45-1 .71-1.8.71-1.8"/><path id="6qges" d="M148.1 963.34l.2-.82c-.2.08-.43.11-.66.07a1.21 1.21 0 0 1-1.08-1.08 1.2 1.2 0 0 1 .88-1.24c.3-.06.58-.05.7.26.23.58-.47.74-.46.82.07.14.19.24.34.28.14.04.3.02.43-.05.6-.32.37-.74.53-.5.3.52-.4 2.23-.5 2.66-.1.43-.23.89.1 1.4.45.68 1.45.66 1.55.5.09-.17-.11-.1-.3-.26-.18-.16-.25-.28-.19-.3.07-.02.07.12.49.12.48 0 .69-.25.66-.52-.02-.15-.53.44-.9-.59-.29-.84.07-2.6-.25-3.46-.2-.55-.94-1.1-1.86-1.14-1.08-.03-1.98.94-1.98 1.98a2 2 0 0 0 1.65 1.85c.59.05.65 0 .65 0"/><path id="6qget" d="M141.36 961.69s-.03.08-.45.11c-.41.04-.42 0-.42 0s.47-1.74 2.24-1.97c1.86-.23 2.63.97 2.63.97-.07.2-.1.4-.08.61 0 .14 0 .28.03.41a2.56 2.56 0 0 0-2.36-1.23c-1.12.04-1.59 1.1-1.59 1.1"/><path id="6qgeu" d="M142.28 964.26l-.55.53s.36.53 1.97.34c2.24-.26 1.55-2.28 1.42-2.26-.14.02-.07.39-.3.74-.32.45-.5.4-.5.4.06-.11.1-.24.08-.36 0-.27-.02-.41-.13-.41-.12 0-.15.75-.94.99-.33.12-.7.14-1.05.03"/><path id="6qgev" d="M143.56 961.16c.15 0 .3.03.43.1.26.12.24.22.24.22s-.7.85-2.1 2.22c-2.37 2.33-3.18 2.35-3.33 2.17-.06-.08.12-.07.47-.44.36-.37.38-.55.38-.55-.5.23-1.04.33-1.59.3-.87-.05-1.61-.6-1.56-.8.06-.22.57.12 1.2.02.58-.09.63-.3.63-.3s-.12 0-.3-.17c-.2-.17-.49-.32-.33-.47.09-.08.53.09.96.08.3 0 .6-.04.9-.12a1.47 1.47 0 0 1-.47-.27c-.24-.2-.3-.41-.22-.46.07-.06.14.13.44.12.35 0 .4-.09.4-.09a1.07 1.07 0 0 1-.23-.24c-.07-.12-.28-.48-.15-.62.04-.04.45.4 1.04.44a4.08 4.08 0 0 0 2.14-.67 14.3 14.3 0 0 1-1.71 1.53c-.75.6-1.69 1.08-1.63 1.18.06.11.81-.03 2.08-1 .82-.69 1.6-1.42 2.32-2.2"/><path id="6qgew" d="M118.84 976.54c-.15-.07-.16-.11-.16-.4 0-.51.04-.92.05-1.09 0-.11.03-.16.09-.16.05 0 .07.03.07.1 0 .14.01.27.04.4.16.76.87 1.05 1.58 1.05.4.02.8-.1 1.08-.37.3-.26.46-.62.46-1 0-.72-.31-1.13-1.23-1.87l-.49-.38c-1.14-.9-1.4-1.54-1.4-2.24 0-1.1.87-1.86 2.23-1.86.34 0 .67.03 1 .1.12.03.25.05.37.06.1 0 .11.02.11.07s-.04.39-.04 1.1c0 .16-.02.24-.08.24-.05 0-.07-.05-.08-.14a1.75 1.75 0 0 0-.14-.51c-.07-.12-.36-.55-1.34-.55-.74 0-1.32.44-1.32 1.2 0 .6.3.94 1.3 1.73l.3.23c1.27.96 1.57 1.6 1.57 2.42 0 .68-.34 1.32-.9 1.72a2.9 2.9 0 0 1-1.63.43c-.5.02-.99-.08-1.44-.28"/><path id="6qgex" d="M128.67 973.68c0 .99 0 1.8.06 2.24.03.3.1.53.41.57l.49.04c.06 0 .08.03.08.06s-.05.08-.17.08c-.59 0-1.26-.03-1.32-.03l-1.05.03c-.12 0-.17-.02-.17-.08s.02-.06.09-.06c.1 0 .21-.02.32-.04.21-.04.25-.27.3-.57.06-.44.06-1.25.06-2.24v-4.37l-1.58.02c-.67 0-.93.08-1.1.33-.07.1-.13.2-.18.32-.03.08-.06.1-.1.1-.05 0-.06-.03-.06-.1 0-.1.21-.98.24-1.07.02-.08.06-.19.1-.19.15.06.31.1.48.12.3.04.72.06.84.06h4.02c.36 0 .72-.04 1.07-.1.05 0 .05.05.05.12l-.03 1.13c0 .11-.03.14-.08.14-.04 0-.07-.04-.08-.18v-.11c-.05-.31-.3-.55-1.32-.57l-1.35-.02v4.37"/><path id="6qgey" d="M137.56 968.72a4.07 4.07 0 0 0-4.23 4.04 3.94 3.94 0 0 0 4.16 4.06c2.6 0 4.29-1.91 4.29-4.23 0-2.4-1.8-3.87-4.22-3.87m.22 7.72v-.01c-1.93 0-3.43-1.54-3.43-3.96 0-2.26 1.34-3.4 3.13-3.4 1.7 0 3.27 1.35 3.27 3.82 0 3-2 3.55-2.97 3.55"/><path id="6qgez" d="M152.2 976.54a2.24 2.24 0 0 1-1.73-.77c-.61-.64-1.34-1.56-2.22-2.64.96-.86 1.3-1.63 1.3-2.4a1.78 1.78 0 0 0-.75-1.4 3.4 3.4 0 0 0-1.96-.45l-1.27.03c-.05 0-.72-.03-1.2-.03-.13 0-.18.04-.18.08s.04.06.09.06l.36.03c.35.08.44.27.46.6.02.31.02.6.02 2.21v1.83c0 1 0 1.8-.05 2.24-.06.3-.1.53-.32.57-.1.03-.21.04-.32.04-.06 0-.08 0-.08.06 0 .07.05.09.17.09l1-.03c.06 0 .74.03 1.33.03.11 0 .17-.05.17-.09 0-.03 0-.06-.09-.06l-.48-.04c-.32-.04-.39-.27-.42-.57-.05-.43-.05-1.25-.05-2.24v-.25c0-.05.02-.08.07-.08l1.32.02c.06 0 .1.02.14.06.22.27.72.97 1.17 1.53.61.78.99 1.27 1.45 1.52.28.15.55.2 1.15.2h.77c.19 0 .25-.05.25-.09 0-.03-.04-.06-.1-.06m-4.21-3.69c-.25.14-.53.21-.8.2-.4.01-.77-.04-1.13-.17a.13.13 0 0 1-.08-.12v-3.38c0-.05.03-.1.09-.12.23-.05.47-.07.72-.06 1.14 0 1.85.77 1.85 2.06 0 .79-.28 1.34-.65 1.59"/></defs><g><g transform="translate(-118 -934)"><g><use fill="#f9f9f9" xlink:href="#6qgea"/></g><g><use fill="#f9f9f9" xlink:href="#6qgeb"/></g><g><use fill="#f9f9f9" xlink:href="#6qgec"/></g><g><use fill="#f9f9f9" xlink:href="#6qged"/></g><g><use fill="#f9f9f9" xlink:href="#6qgee"/></g><g><use fill="#f9f9f9" xlink:href="#6qgef"/></g><g><use fill="#f9f9f9" xlink:href="#6qgeg"/></g><g><use fill="#f9f9f9" xlink:href="#6qgeh"/></g><g><use fill="#f9f9f9" xlink:href="#6qgei"/></g><g><use fill="#f9f9f9" xlink:href="#6qgej"/></g><g><use fill="#f9f9f9" xlink:href="#6qgek"/></g><g><use fill="#f9f9f9" xlink:href="#6qgel"/></g><g><use fill="#f9f9f9" xlink:href="#6qgem"/></g><g><use fill="#f9f9f9" xlink:href="#6qgen"/></g><g><use fill="#f9f9f9" xlink:href="#6qgeo"/></g><g><use fill="#f9f9f9" xlink:href="#6qgep"/></g><g><use fill="#f9f9f9" xlink:href="#6qgeq"/></g><g><use fill="#f9f9f9" xlink:href="#6qger"/></g><g><use fill="#f9f9f9" xlink:href="#6qges"/></g><g><use fill="#f9f9f9" xlink:href="#6qget"/></g><g><use fill="#f9f9f9" xlink:href="#6qgeu"/></g><g><use fill="#f9f9f9" xlink:href="#6qgev"/></g><g><use fill="#f9f9f9" xlink:href="#6qgew"/></g><g><use fill="#f9f9f9" xlink:href="#6qgex"/></g><g><use fill="#f9f9f9" xlink:href="#6qgey"/></g><g><use fill="#f9f9f9" xlink:href="#6qgez"/></g></g></g></svg>