<svg xmlns="http://www.w3.org/2000/svg" xmlns:xlink="http://www.w3.org/1999/xlink" width="61" height="74" viewBox="0 0 61 74"><defs><path id="1u1xa" d="M645.28 560.64h7.28v-9.96l7.38-1.26a4 4 0 0 0 3.22-3.77v-13.42h3.76c1.77 0 2.56-1.45 1.75-3.22l-5.2-11.4c.05-.6.07-1.22.07-1.84v-3.53A23.31 23.31 0 0 0 640.3 489h-3.53A26.85 26.85 0 0 0 610 515.77c0 7.23 2.9 13.82 7.6 18.65a15.02 15.02 0 0 1 3.87 10.01v1.7h8.3v-15.54l-3.7-.63a2 2 0 0 1-1.6-1.88v-6.7h-1.88c-.88 0-1.28-.73-.87-1.62l2.6-5.68c-.03-.3-.04-.62-.04-.93v-1.76c0-6.38 5.22-11.6 11.6-11.6h1.77A13.4 13.4 0 0 1 651 513.15c0 3.62-1.45 6.9-3.8 9.32a7.5 7.5 0 0 0-1.93 5z"/></defs><g><g transform="translate(-609 -488)"><use fill="#fff" fill-opacity="0" stroke="#444752" stroke-miterlimit="50" stroke-width="2" xlink:href="#1u1xa"/></g></g></svg>