<svg xmlns="http://www.w3.org/2000/svg" xmlns:xlink="http://www.w3.org/1999/xlink" width="71" height="76" viewBox="0 0 71 76"><defs><path id="dpe6a" d="M476.55 695.82a3.93 3.93 0 0 0 3.26-3.83v-7.66c0-3.18.98-4.81 2.61-7.42.33-.57.74-1.22 1.14-1.87.33-.57.66-1.06.9-1.55 1.22-2.04 2.12-3.5 2.61-5.87.4-1.47.57-2.94.57-4.4 0-10.2-8.31-18.51-18.5-18.51a18.54 18.54 0 0 0-18.51 18.5c0 1.47.16 2.94.57 4.4.49 2.37 1.39 3.84 2.6 5.88.25.49.58.98.9 1.55.41.65.74 1.3 1.15 1.87 1.63 2.7 2.6 4.24 2.6 7.42v7.66c0 1.96 1.4 3.5 3.27 3.83z"/><path id="dpe6b" d="M494.33 663.05h10.03"/><path id="dpe6c" d="M494 638.35l-7.09 7.1"/><path id="dpe6d" d="M469.05 638.03V628"/><path id="dpe6e" d="M451.36 645.44l-7.09-7.09"/><path id="dpe6f" d="M434 663.05h10.03"/><path id="dpe6g" d="M451.36 680.99l-7.09 7.1"/><path id="dpe6h" d="M486.91 680.99l7.1 7.1"/><path id="dpe6i" d="M458.46 689.14h21.36"/><path id="dpe6j" d="M458.46 684.25h21.36"/><path id="dpe6k" d="M461.72 695.83c.82 4.16 3.26 6.77 7.42 6.77s6.68-2.61 7.42-6.77"/></defs><g><g transform="translate(-434 -628)"><g><use fill="#fff" fill-opacity="0" stroke="#444752" stroke-miterlimit="50" stroke-width="2" xlink:href="#dpe6a"/></g><g><use fill="#fff" fill-opacity="0" stroke="#444752" stroke-miterlimit="50" stroke-width="2" xlink:href="#dpe6b"/></g><g><use fill="#fff" fill-opacity="0" stroke="#444752" stroke-miterlimit="50" stroke-width="2" xlink:href="#dpe6c"/></g><g><use fill="#fff" fill-opacity="0" stroke="#444752" stroke-miterlimit="50" stroke-width="2" xlink:href="#dpe6d"/></g><g><use fill="#fff" fill-opacity="0" stroke="#444752" stroke-miterlimit="50" stroke-width="2" xlink:href="#dpe6e"/></g><g><use fill="#fff" fill-opacity="0" stroke="#444752" stroke-miterlimit="50" stroke-width="2" xlink:href="#dpe6f"/></g><g><use fill="#fff" fill-opacity="0" stroke="#444752" stroke-miterlimit="50" stroke-width="2" xlink:href="#dpe6g"/></g><g><use fill="#fff" fill-opacity="0" stroke="#444752" stroke-miterlimit="50" stroke-width="2" xlink:href="#dpe6h"/></g><g><use fill="#fff" fill-opacity="0" stroke="#444752" stroke-miterlimit="50" stroke-width="2" xlink:href="#dpe6i"/></g><g><use fill="#fff" fill-opacity="0" stroke="#444752" stroke-miterlimit="50" stroke-width="2" xlink:href="#dpe6j"/></g><g><use fill="#fff" fill-opacity="0" stroke="#444752" stroke-miterlimit="50" stroke-width="2" xlink:href="#dpe6k"/></g></g></g></svg>