<svg xmlns="http://www.w3.org/2000/svg" xmlns:xlink="http://www.w3.org/1999/xlink" width="30" height="27" viewBox="0 0 30 27"><defs><path id="eetaa" d="M368.97 673.94a36.25 36.25 0 0 0-1.68 6.68 6.63 6.63 0 0 0 10.97 5.86 6.5 6.5 0 0 0 .42-9.23 6.64 6.64 0 0 0-3.37-1.97c.17-.96.38-1.96.64-2.96a49.64 49.64 0 0 1 2.06-6.14 75.53 75.53 0 0 1 1.19-2.78l-3.67-2s-.7 1.01-1.72 2.64a55.01 55.01 0 0 0-3.38 6.28 44.69 44.69 0 0 0-1.46 3.62z"/><path id="eetab" d="M385.54 673.94a36.25 36.25 0 0 0-1.68 6.68 6.63 6.63 0 0 0 10.97 5.86 6.5 6.5 0 0 0 .42-9.23 6.64 6.64 0 0 0-3.37-1.97c.17-.96.38-1.96.64-2.96a49.64 49.64 0 0 1 2.06-6.14 75.53 75.53 0 0 1 1.19-2.78l-3.67-2s-.7 1.01-1.72 2.64a55.01 55.01 0 0 0-3.38 6.28 44.69 44.69 0 0 0-1.46 3.62z"/></defs><g><g transform="translate(-367 -662)"><g><use fill="#4b4e58" xlink:href="#eetaa"/></g><g><use fill="#4b4e58" xlink:href="#eetab"/></g></g></g></svg>