<svg xmlns="http://www.w3.org/2000/svg" xmlns:xlink="http://www.w3.org/1999/xlink" width="83" height="25" viewBox="0 0 83 25"><defs><path id="57h6a" d="M263.65 1072.3c.96-2.42 2.3-4.66 3.04-7.2h2.74v.54c-.04.02-.08.04-.11.04-.84.08-1.03.3-.94 1.14l.54 5.4c.02.23.1.44.13.65.12.83.51 1.23 1.5 1.27v.52h-4.29v-.45c.24-.08.48-.12.67-.24.46-.3.54-.74.48-1.27-.18-1.82-.34-3.64-.52-5.57l-.18.34c-1 2.31-2.01 4.63-3.03 6.94-.07.17-.23.3-.35.43-.12-.14-.28-.27-.36-.43l-3.23-6.73-.25-.5-.38 2.44c-.15 1.03-.24 2.08-.47 3.1-.2.9.4 1.36 1.08 1.4l.23.01v.5h-3.5v-.48l.32-.02a1 1 0 0 0 1.04-.9l.93-6.28c.12-.81-.2-1.21-1.04-1.32v-.55H260.23c.22 0 .3.08.4.27.96 2.28 1.95 4.55 2.93 6.82.01.04.04.06.1.13"/><path id="57h6b" d="M293.06 1072.15l.02-.34v-4.53c0-.92-.32-1.33-1.2-1.53l-.53-.11v-.5l.22-.03h3.64c.12.49.11.5-.32.63-.72.2-1 .58-1 1.4v7.67c-.5.1-.87.03-1.24-.36-2.04-2.1-4.1-4.18-6.16-6.27a.8.8 0 0 0-.35-.22v4.73c0 .95.46 1.42 1.4 1.44l.21.01v.69h-4.05v-.71h.54c.7-.02 1.18-.5 1.18-1.2v-5.9c0-.59-.39-1.1-.96-1.24-.36-.08-.73-.11-1.13-.17v-.53c.84 0 1.68-.01 2.52.02.16 0 .34.16.47.29l6.34 6.45.3.36z"/><path id="57h6c" d="M276.82 1064.68c2.2.08 3.93.9 4.92 2.75 1.07 2 .75 3.97-.65 5.76-1.09 1.39-2.56 1.83-4.22 1.76a6.25 6.25 0 0 1-1.62-.3c-1.85-.59-2.83-1.99-3.25-3.81-.72-3.2 1.62-5.43 3.85-6.03.35-.1.73-.1.97-.13m3.87 5.67a5.25 5.25 0 0 0-1.77-4 3.03 3.03 0 0 0-5.01 1.44c-.31 1-.33 2.04-.14 3.08.27 1.55.99 2.71 2.6 3.15 1.79.5 3.57-.4 4.06-2.1.15-.5.18-1.04.26-1.57"/><path id="57h6d" d="M306.92 1070.06c0 2.6-2.05 4.82-4.6 5.01-.83.07-1.64 0-2.42-.25-2.02-.67-3.02-2.2-3.37-4.22-.54-3.15 2.15-5.38 4.24-5.73 2.32-.39 5.04 1.08 5.8 3.2.23.62.3 1.31.44 1.97l-.1.02m-8.68-.22c.03.34.05.66.1.97.28 2 1.19 3.04 2.96 3.43 1.68.37 3.4-.66 3.78-2.34a5.37 5.37 0 0 0-1.36-5.22 3 3 0 0 0-3.25-.84 2.98 2.98 0 0 0-2.05 2.43c-.1.52-.13 1.06-.18 1.57"/><path id="57h6e" d="M329.61 1065.69v-.58h8.35v2.1c-.52.14-.6.1-.81-.38-.26-.55-.68-.96-1.3-.98-1-.05-2-.01-3.04-.01v3.58c.72 0 1.43.02 2.13-.01.61-.03.87-.44.9-1.04h.71v3.02h-.67l-.07-.25c-.07-.45-.33-.76-.76-.8-.74-.1-1.48-.12-2.28-.17v1.33c0 .42.04.84 0 1.25-.1.8.6 1.34 1.23 1.36.64.03 1.28.04 1.92 0 .47-.02.86-.3 1.18-.64.22-.24.45-.48.6-.76.24-.45.58-.43 1-.35-.22.74-.43 1.48-.68 2.2-.02.08-.22.14-.34.14h-8.06v-.56c.27-.06.55-.09.8-.17.38-.12.65-.33.64-.84-.03-2.13-.01-4.26-.01-6.4 0-.66-.33-1-1-1.04h-.44"/><path id="57h6f" d="M317.86 1067.41c-.34.1-.57.06-.76-.26-1.18-1.92-4.5-2.17-5.89-.15-.64.95-.8 2.03-.73 3.14a4.22 4.22 0 0 0 2.18 3.56c1.02.6 2.1.53 3.18.2.27-.08.52-.35.71-.59.3-.36.58-.75.8-1.17.18-.39.43-.46.83-.32l-.5 2.3c-.02.07-.13.17-.21.2-1.7.47-3.41.8-5.16.37-1.9-.46-3.69-2.02-3.66-4.5.03-2.48 1.57-4.61 3.87-5.15a9.73 9.73 0 0 1 4.68.2c.07.03.16.09.18.15.17.67.32 1.34.48 2.02"/><path id="57h6g" d="M328.6 1072.37l-.55 2.2c-.01.06-.14.13-.21.13h-8.01v-.57l.9-.16c.57-.1.7-.26.7-.84v-6.58c0-.56-.19-.76-.74-.82-.27-.03-.55-.04-.86-.05v-.57h4.92v.5l-.94.1c-.5.08-.71.33-.71.84v6.37c0 .45.25.72.6.92.71.4 1.48.42 2.23.19a3.11 3.11 0 0 0 1.85-1.39c.2-.34.44-.4.83-.27"/><path id="57h6h" d="M297.05 1054.9l-2.64-2.66-.17-.11V1058.97c0 .1.04.24-.01.32-.09.13-.24.34-.34.32-.14-.01-.28-.2-.39-.33-.04-.05 0-.16 0-.25v-7.63c0-.24-.05-.53.24-.58.17-.02.4.1.54.23 1 .99 1.98 2 2.97 3l.33.3 1.9-2c.45-.47.9-.93 1.37-1.37.12-.1.35-.19.5-.15.1.04.2.29.2.44.02 2.63.02 5.27.02 7.9 0 .26-.09.47-.38.46-.3 0-.37-.21-.36-.47v-6.95l-2.68 2.72c.3.3.67.66 1.01 1.05.78.9.72 2.26-.14 3.07-.83.8-2.15.8-2.98 0a2.2 2.2 0 0 1-.16-3.03c.34-.4.74-.72 1.17-1.13m.47.59c-.36.35-.75.68-1.08 1.06a1.4 1.4 0 0 0 .12 1.94 1.4 1.4 0 0 0 1.93.02 1.4 1.4 0 0 0 .15-1.94c-.34-.4-.74-.72-1.12-1.08"/></defs><g><g transform="translate(-256 -1050)"><use fill="#f9f9f9" xlink:href="#57h6a"/></g><g transform="translate(-256 -1050)"><use fill="#f9f9f9" xlink:href="#57h6b"/></g><g transform="translate(-256 -1050)"><use fill="#f9f9f9" xlink:href="#57h6c"/></g><g transform="translate(-256 -1050)"><use fill="#f9f9f9" xlink:href="#57h6d"/></g><g transform="translate(-256 -1050)"><use fill="#f9f9f9" xlink:href="#57h6e"/></g><g transform="translate(-256 -1050)"><use fill="#f9f9f9" xlink:href="#57h6f"/></g><g transform="translate(-256 -1050)"><use fill="#f9f9f9" xlink:href="#57h6g"/></g><g transform="translate(-256 -1050)"><use fill="#f9f9f9" xlink:href="#57h6h"/></g></g></svg>