<svg xmlns="http://www.w3.org/2000/svg" xmlns:xlink="http://www.w3.org/1999/xlink" width="65" height="20" viewBox="0 0 65 20"><defs><path id="jsz6a" d="M202.14 1075.14l-1.03-.3c-1.1-.33-1.6-1.16-1.81-2.3-1.14 2.59-3.7 2.78-5.51 2.24a2.83 2.83 0 0 1-2.15-2.75c-.03-1.52.62-2.63 2-3.11.85-.3 1.76-.42 2.63-.67.7-.21 1.4-.42 2.02-.78a2.75 2.75 0 0 0 .99-3.69c-.5-.99-1.62-1.4-2.5-.9-.81.45-1.19 1.88-.57 2.67.3.38.87.54 1.31.8a3.41 3.41 0 0 1-3.72 1.35c-1.8-.55-2.32-2.3-1.08-3.75a4.58 4.58 0 0 1 3.38-1.57c1.6-.07 3.24-.04 4.8.26 2.27.44 3.2 1.72 3.25 4.02.02 1.54-.05 3.07-.07 4.6 0 .35 0 .69.05 1.02.15 1.34.32 1.52 1.68 1.74-.66.76-1.58.84-2.42 1.12zm-2.8-7c-2.47.31-3.56 1.94-2.8 4.08.15.4.62.9.99.93.41.04.91-.33 1.3-.63.2-.16.3-.55.32-.84.09-1.16.13-2.32.19-3.54z"/><path id="jsz6b" d="M219.83 1075.13c-1.04-.36-2.17-.58-3.1-1.13a6.19 6.19 0 0 1 .03-10.7c2.92-1.74 7.15-1.22 9.36 1.16a6.3 6.3 0 0 1-3.3 10.36c-.51.14-1.05.21-1.58.31zm-1.02-6.46c.14 1.43.22 2.86.43 4.27.17 1.16.76 1.77 1.46 1.78.74 0 1.25-.54 1.46-1.75.49-2.84.5-5.7.01-8.54-.2-1.2-.73-1.76-1.45-1.77-.72 0-1.3.56-1.48 1.74-.21 1.41-.3 2.84-.43 4.27z"/><path id="jsz6c" d="M184.3 1075.13c-1.48-.18-2.95-.86-4.57-.12l-.29-4.26c.43.6.73 1.06 1.07 1.48 1.14 1.41 2.52 2.42 4.41 2.47.41.01.84-.05 1.23-.17.6-.18.95-.6 1.02-1.25.07-.66-.17-1.2-.77-1.49-.72-.34-1.5-.57-2.24-.87-.77-.3-1.56-.58-2.3-.97-1.73-.92-2.63-2.52-2.38-4.1.25-1.62 1.65-2.96 3.48-3.38 1.3-.3 2.59-.21 3.86.16.87.25 1.73.32 2.6-.32v3.76c-.38-.48-.72-.96-1.1-1.4a5.61 5.61 0 0 0-3.12-1.94 3.34 3.34 0 0 0-.7-.07c-.98 0-1.75.5-1.88 1.2-.13.66.28 1.22 1.29 1.62.99.39 2.01.69 3 1.07.58.23 1.15.5 1.68.82a3.94 3.94 0 0 1-.1 6.83c-.84.47-1.85.63-2.78.93z"/><path id="jsz6d" d="M235.38 1074.8h-6.85c1.01-.62 1.05-1.52 1.05-2.43 0-2.53-.02-5.05 0-7.58 0-.92-.2-1.71-1.1-2.23h6.04v2.7l.13.03.29-.57a4.31 4.31 0 0 1 5.02-2.33c1.6.41 2.55 1.46 2.71 3.05.17 1.62.13 3.27.16 4.9.02.68 0 1.36 0 2.04 0 1.37 0 1.37.91 2.4h-6.92c.93-.57 1.03-1.36 1.02-2.22-.02-2.05 0-4.1 0-6.17 0-1.1-.46-1.72-1.3-1.84-.82-.11-1.6.47-1.81 1.48-.15.7-.17 1.44-.18 2.16-.03 1.49 0 2.97-.02 4.45 0 .83.15 1.56.85 2.17"/><path id="jsz6e" d="M213.04 1074.8h-7.1c1.25-.73 1.06-1.81 1.06-2.83v-13.28c0-1.02-.25-1.85-1.44-2.4h6.45v.8l-.01 15.39c0 .88.04 1.7 1.04 2.31"/></defs><g><g transform="translate(-179 -1056)"><g><use fill="#f9f9f9" xlink:href="#jsz6a"/></g><g><use fill="#f9f9f9" xlink:href="#jsz6b"/></g><g><use fill="#f9f9f9" xlink:href="#jsz6c"/></g><g><use fill="#f9f9f9" xlink:href="#jsz6d"/></g><g><use fill="#f9f9f9" xlink:href="#jsz6e"/></g></g></g></svg>