<svg xmlns="http://www.w3.org/2000/svg" xmlns:xlink="http://www.w3.org/1999/xlink" width="76" height="72" viewBox="0 0 76 72"><defs><path id="31cma" d="M383.43 57.12h1.3v-8.49h-1.3z"/><path id="31cmb" d="M398 57.84c-.77 0-1.4-.6-1.4-1.36v-.07c0-.75.63-1.36 1.4-1.36.79 0 1.42.61 1.42 1.36v.07c0 .76-.63 1.36-1.41 1.36z"/><path id="31cmc" d="M401.86 47.54c-.72 0-1.3-.57-1.3-1.26v-.07c0-.7.58-1.26 1.3-1.26.72 0 1.3.56 1.3 1.26v.07c0 .7-.58 1.26-1.3 1.26"/><path id="31cmd" d="M384.08 47.54c-.72 0-1.3-.57-1.3-1.26v-.07c0-.7.58-1.26 1.3-1.26.72 0 1.3.56 1.3 1.26v.07c0 .7-.58 1.26-1.3 1.26"/><path id="31cme" d="M401.21 57.12h1.3v-8.49h-1.3z"/><path id="31cmf" d="M376.68 57.12h-1.3v-5.15a3.8 3.8 0 0 1 3.85-3.73c.79 0 1.54.23 2.18.65l-.73 1.04a2.6 2.6 0 0 0-1.45-.43c-1.4 0-2.55 1.1-2.55 2.47z"/><path id="31cmg" d="M391.3 57.26a4.59 4.59 0 0 1-4.66-4.5c0-2.49 2.09-4.51 4.66-4.51a4.59 4.59 0 0 1 4.66 4.5c0 2.49-2.1 4.51-4.66 4.51m0-7.75a3.3 3.3 0 0 0-3.36 3.24 3.3 3.3 0 0 0 3.36 3.24 3.3 3.3 0 0 0 3.36-3.24 3.3 3.3 0 0 0-3.36-3.24"/><path id="31cmh" d="M409.08 57.25a4.59 4.59 0 0 1-4.66-4.5c0-2.49 2.09-4.51 4.66-4.51a4.59 4.59 0 0 1 4.66 4.5c0 2.49-2.1 4.51-4.66 4.51m0-7.75a3.3 3.3 0 0 0-3.36 3.24 3.3 3.3 0 0 0 3.36 3.24 3.3 3.3 0 0 0 3.36-3.24 3.3 3.3 0 0 0-3.36-3.24"/><path id="31cmi" d="M360.46 57.25a4.59 4.59 0 0 1-4.66-4.5c0-2.49 2.09-4.51 4.66-4.51 1.04 0 2.03.33 2.85.94l-.8 1a3.4 3.4 0 0 0-2.05-.68 3.3 3.3 0 0 0-3.36 3.25 3.3 3.3 0 0 0 3.36 3.24 3.4 3.4 0 0 0 2.05-.68l.8 1c-.82.61-1.8.94-2.85.94"/><path id="31cmj" d="M369.37 57.25a3.83 3.83 0 0 1-3.89-3.76v-4.86h1.3v4.86c0 1.38 1.16 2.5 2.6 2.5 1.42 0 2.58-1.12 2.58-2.5v-4.86h1.3v4.86a3.83 3.83 0 0 1-3.89 3.76"/><path id="31cmk" d="M351.45 53.4a3.1 3.1 0 0 1-4.23.59 2.86 2.86 0 0 1-.6-4.1 3.1 3.1 0 0 1 4.22-.59c1.34.97 1.61 2.8.61 4.1"/><path id="31cml" d="M349.89 43.16s-.14.54-.3 1.33a21.85 21.85 0 0 0-.43 4.38c.01.48.05.92.09 1.3l.14.88.06.33-3.44.38v-.43a15.9 15.9 0 0 1 .53-4.37c.28-1.15.66-2.25.98-3.05l.54-1.31z"/><path id="31cmm" d="M415.42 43.3a3.06 3.06 0 0 1 3.95-1.57 2.89 2.89 0 0 1 1.62 3.83 3.06 3.06 0 0 1-3.96 1.56 2.89 2.89 0 0 1-1.61-3.83"/><path id="31cmn" d="M419.5 52.85s0-.56-.05-1.36a21.85 21.85 0 0 0-.68-4.35c-.13-.46-.28-.88-.4-1.23l-.37-.83-.14-.3 3.25-1.18.1.41a16.02 16.02 0 0 1 .59 4.37 24.12 24.12 0 0 1-.39 4.59z"/><path id="31cmo" d="M421.4 56.1l-.16 1.12c-.05.36-.14.84-.24 1.39a34.37 34.37 0 0 1-2.04 6.76 36.36 36.36 0 0 1-11.55 14.89c-.58.47-1.21.88-1.83 1.32-.65.41-1.29.85-1.97 1.23a37.57 37.57 0 0 1-13.69 4.78c-1.64.25-3.31.36-4.98.4-.86-.01-1.63.01-2.5-.05a38.82 38.82 0 0 1-7.37-1.08c-3.16-.8-6.18-1.99-8.89-3.48-.69-.35-1.33-.77-1.99-1.15-.62-.43-1.27-.82-1.86-1.26a37.3 37.3 0 0 1-8.58-8.62 35.93 35.93 0 0 1-5.03-10.5 26.37 26.37 0 0 1-.75-3.17l-.2-1.13.73-.11.21 1.1c.06.37.17.8.3 1.33a33.09 33.09 0 0 0 2.26 6.4A35.11 35.11 0 0 0 363 80.08c.58.42 1.2.8 1.82 1.2.64.36 1.27.75 1.94 1.09a36.2 36.2 0 0 0 13.35 4.03c.8.07 1.6.14 2.38.16.78.05 1.64.02 2.42.02a37.3 37.3 0 0 0 9.41-1.5c3.02-.89 5.86-2.15 8.4-3.7.64-.36 1.24-.8 1.85-1.19.58-.43 1.19-.83 1.73-1.28a35.76 35.76 0 0 0 7.86-8.63A34.42 34.42 0 0 0 418.53 60c.15-.66.29-1.24.36-1.75.1-.5.18-.93.22-1.31l.14-1.13z"/><path id="31cmp" d="M348.88 39.65l.38-.88c.26-.57.55-1.4 1.15-2.49.3-.53.58-1.14.95-1.76l1.24-1.99 1.58-2.15a96.1 96.1 0 0 1 1.92-2.25 37.97 37.97 0 0 1 5.7-4.99l.37-.27.38-.24 1.56-1c.26-.18.54-.33.82-.48l.83-.46c.57-.3 1.13-.62 1.73-.87l1.8-.81c.61-.25 1.24-.47 1.87-.7.32-.11.63-.24.95-.34l.98-.27c.66-.18 1.3-.4 1.98-.54 2.67-.63 5.46-.92 8.24-1.01l2.08.05c.34.01.67 0 1.02.04l1.05.1 1.04.1c.35.04.7.07 1.03.14l2.03.36c.34.05.67.14 1 .22l.99.26.98.24.95.32c.64.21 1.27.41 1.89.64l1.8.75c.61.23 1.17.54 1.74.83l.85.43c.28.14.56.28.82.45l1.57.95.39.23.37.26.72.51a37.66 37.66 0 0 1 5.05 4.26c.7.75 1.35 1.47 1.96 2.17l1.61 2.08 1.28 1.92c.39.6.68 1.18.97 1.69.61 1 .94 1.87 1.22 2.44l.4.87-.67.28-.41-.86c-.29-.54-.63-1.38-1.24-2.37-.3-.49-.6-1.06-.98-1.63l-1.28-1.86-1.6-2a99.75 99.75 0 0 0-1.95-2.08 36.67 36.67 0 0 0-4.98-4.07l-.71-.49-.36-.24-.38-.22-1.55-.9c-.25-.16-.53-.3-.8-.42l-.83-.4c-.55-.27-1.1-.56-1.69-.78l-1.76-.7-1.83-.59-.93-.29-.95-.22-.96-.23c-.32-.07-.63-.16-.96-.2l-1.96-.32a8.63 8.63 0 0 0-.99-.1l-.98-.1-1-.08c-.32-.03-.67 0-1-.02l-2.03-.02c-2.67.13-5.34.46-7.89 1.1-.64.14-1.25.36-1.88.54l-.93.28c-.3.1-.6.23-.9.34-.6.23-1.2.45-1.78.69l-1.7.8c-.58.25-1.1.57-1.63.86l-.8.45c-.26.14-.52.3-.76.46l-1.47.98-.37.24-.34.26-.67.53a36.04 36.04 0 0 0-4.66 4.3c-.63.74-1.23 1.46-1.79 2.15l-1.45 2.06c-.41.68-.8 1.31-1.14 1.9-.35.59-.6 1.15-.85 1.64-.53.96-.83 1.86-1.08 2.42l-.36.89z"/></defs><g><g transform="translate(-346 -16)"><g><use fill="#444752" xlink:href="#31cma"/></g><g><use fill="#444752" xlink:href="#31cmb"/></g><g><use fill="#444752" xlink:href="#31cmc"/></g><g><use fill="#444752" xlink:href="#31cmd"/></g><g><use fill="#444752" xlink:href="#31cme"/></g><g><use fill="#444752" xlink:href="#31cmf"/></g><g><use fill="#444752" xlink:href="#31cmg"/></g><g><use fill="#444752" xlink:href="#31cmh"/></g><g><use fill="#444752" xlink:href="#31cmi"/></g><g><use fill="#444752" xlink:href="#31cmj"/></g><g><use fill="#444752" xlink:href="#31cmk"/></g><g><use fill="#444752" xlink:href="#31cml"/></g><g><use fill="#444752" xlink:href="#31cmm"/></g><g><use fill="#444752" xlink:href="#31cmn"/></g><g><use fill="#444752" xlink:href="#31cmo"/></g><g><use fill="#444752" xlink:href="#31cmp"/></g></g></g></svg>